<svg width="29" height="29" viewBox="0 0 29 29" fill="none" xmlns="http://www.w3.org/2000/svg">
<g clip-path="url(#clip0)">
<path d="M22.2572 2.27466C20.9604 0.765937 18.6965 0 15.533 0H7.60283C6.59821 0 5.75746 0.728531 5.60071 1.73316L2.29827 23.1082C2.2288 23.5695 2.3624 24.0362 2.66521 24.3889C2.96268 24.738 3.3973 24.9375 3.8533 24.9375H9.51233L10.8216 16.4552C10.8483 16.3358 10.9462 16.2503 11.0567 16.2503H13.383C19.0367 16.2503 22.4264 13.525 23.4506 8.15278L23.5415 7.638C23.8799 5.31703 23.4969 3.71391 22.2572 2.27466ZM21.7816 7.36013L21.7014 7.81434C20.8482 12.2906 18.1282 14.4673 13.3848 14.4673H11.0585C10.1411 14.4673 9.35915 15.0783 9.11333 15.9511L9.09908 15.9475L9.06168 16.1916C9.0599 16.1933 9.0599 16.1951 9.0599 16.1987L7.9858 23.1562H4.09377L7.36058 2.00569C7.38018 1.87566 7.48171 1.78125 7.60283 1.78125H15.5312C18.1532 1.78125 19.9629 2.337 20.9088 3.43603C21.7994 4.47094 22.0416 5.57709 21.7816 7.36013Z" fill="url(#paint0_linear)"/>
<path d="M12.6559 19.5203L12.6201 19.7689L14.3832 20.0227L14.419 19.7741L12.6559 19.5203Z" fill="black"/>
<path d="M25.8216 5.82642C25.1198 5.02129 24.1294 4.42101 22.8772 4.04517L22.366 5.7516C23.2904 6.02948 24.0012 6.44807 24.475 6.99313C25.3567 8.01913 25.6061 9.15913 25.3424 10.9137C25.3424 10.9137 25.2943 11.2004 25.2552 11.3768C24.4108 15.8513 21.6927 18.0262 16.9403 18.0262H14.6247C13.6272 18.0262 12.7846 18.7529 12.6225 19.7611L11.5467 26.7187H7.64928L8.04115 24.1822L6.28128 23.9114L5.85022 26.6973C5.79322 27.1604 5.93572 27.6236 6.24031 27.9691C6.53956 28.3076 6.96528 28.4999 7.41059 28.4999H13.0732L14.3806 20.039C14.4002 19.9232 14.4893 19.8074 14.6247 19.8074H16.9403C22.6064 19.8074 25.9926 17.0821 26.9972 11.7402C27.0382 11.5638 27.0987 11.2094 27.1005 11.1933C27.4443 8.91154 27.0507 7.25854 25.8216 5.82642Z" fill="url(#paint1_linear)"/>
</g>
<defs>
<linearGradient id="paint0_linear" x1="12.9696" y1="0" x2="12.9696" y2="24.9375" gradientUnits="userSpaceOnUse">
<stop stop-color="#EFF5FA"/>
<stop offset="1" stop-color="#D2E1EF"/>
</linearGradient>
<linearGradient id="paint1_linear" x1="16.5287" y1="4.04517" x2="16.5287" y2="28.4999" gradientUnits="userSpaceOnUse">
<stop stop-color="#EFF5FA"/>
<stop offset="1" stop-color="#D2E1EF"/>
</linearGradient>
<clipPath id="clip0">
<rect width="28.5" height="28.5" fill="white" transform="translate(0.5)"/>
</clipPath>
</defs>
</svg>
