<svg width="162" height="162" viewBox="0 0 162 162" fill="none" xmlns="http://www.w3.org/2000/svg">
<g filter="url(#filter0_d)">
<circle cx="81" cy="70" r="60.0625" fill="white" stroke="#36C6AF" stroke-width="3.875"/>
<path d="M113.933 93.1811V89.8042C113.933 87.6093 112.498 85.752 110.556 84.9922V57.7242H113.089C116.382 57.7242 119 55.1072 119 51.8148C119 48.6912 116.636 46.1586 113.511 45.9053L81.76 29.1899C81.2533 28.9367 80.6622 28.9367 80.1556 29.1899L48.4889 45.9053C45.3644 46.1586 43 48.6912 43 51.8148C43 55.1072 45.6178 57.7242 48.9111 57.7242H51.4444V84.9922C49.5022 85.6676 48.0667 87.5249 48.0667 89.8042V93.1811C45.28 93.1811 43 95.4604 43 98.2463V103.312C43 104.24 43.76 105 44.6889 105H117.311C118.24 105 119 104.24 119 103.312V98.2463C119 95.4604 116.72 93.1811 113.933 93.1811ZM81 32.6512L106.249 45.9053H89.2756C88.5156 42.0219 85.0533 39.1516 81 39.1516C76.9467 39.1516 73.4844 42.0219 72.7244 45.9053H55.7511L81 32.6512ZM85.8133 45.9053H76.1867C76.8622 43.9636 78.72 42.5285 81 42.5285C83.28 42.5285 85.0533 43.9636 85.8133 45.9053ZM48.9111 54.3474C47.4756 54.3474 46.3778 53.1655 46.3778 51.8148C46.3778 50.3796 47.4756 49.2821 48.9111 49.2821H113.089C113.764 49.2821 114.44 49.5354 114.862 50.0419C115.284 50.464 115.622 51.1394 115.622 51.8148C115.622 53.1655 114.524 54.3474 113.089 54.3474H48.9111ZM86.9111 84.9922V57.7242H98.7333V84.9922C96.7911 85.6676 95.3556 87.5249 95.3556 89.8042V93.1811H90.2889V89.8042C90.2889 87.6093 88.8533 85.752 86.9111 84.9922ZM98.7333 89.8042C98.7333 88.8756 99.4933 88.1158 100.422 88.1158H108.867C109.796 88.1158 110.556 88.8756 110.556 89.8042V93.1811H98.7333V89.8042ZM102.111 84.739V57.7242H107.178V84.739H102.111ZM63.2667 84.9922V57.7242H75.0889V84.9922C73.1467 85.6676 71.7111 87.5249 71.7111 89.8042V93.1811H66.6444V89.8042C66.6444 87.6093 65.2089 85.752 63.2667 84.9922ZM75.0889 89.8042C75.0889 88.8756 75.8489 88.1158 76.7778 88.1158H85.2222C86.1511 88.1158 86.9111 88.8756 86.9111 89.8042V93.1811H75.0889V89.8042ZM78.4667 84.739V57.7242H83.5333V84.739H78.4667ZM59.8889 57.7242V84.739H54.8222V57.7242H59.8889ZM51.4444 89.8042C51.4444 88.8756 52.2044 88.1158 53.1333 88.1158H61.5778C62.5067 88.1158 63.2667 88.8756 63.2667 89.8042V93.1811H51.4444V89.8042ZM115.622 101.623H46.3778V98.2463C46.3778 97.3177 47.1378 96.5579 48.0667 96.5579H113.933C114.862 96.5579 115.622 97.3177 115.622 98.2463V101.623Z" fill="#36C6AF"/>
</g>
<defs>
<filter id="filter0_d" x="0.764706" y="0.705882" width="160.471" height="160.471" filterUnits="userSpaceOnUse" color-interpolation-filters="sRGB">
<feFlood flood-opacity="0" result="BackgroundImageFix"/>
<feColorMatrix in="SourceAlpha" type="matrix" values="0 0 0 0 0 0 0 0 0 0 0 0 0 0 0 0 0 0 127 0"/>
<feOffset dy="10.9412"/>
<feGaussianBlur stdDeviation="9.11765"/>
<feColorMatrix type="matrix" values="0 0 0 0 0 0 0 0 0 0 0 0 0 0 0 0 0 0 0.14 0"/>
<feBlend mode="normal" in2="BackgroundImageFix" result="effect1_dropShadow"/>
<feBlend mode="normal" in="SourceGraphic" in2="effect1_dropShadow" result="shape"/>
</filter>
</defs>
</svg>
