<svg width="32" height="32" viewBox="0 0 32 32" fill="none" xmlns="http://www.w3.org/2000/svg">
<circle cx="16" cy="16" r="15.5" fill="white" stroke="#36C6AF"/>
<path d="M11.3336 14C10.9661 14 10.667 14.2992 10.667 14.6667C10.667 15.0342 10.9661 15.3333 11.3336 15.3333C11.7011 15.3333 12.0003 15.0342 12.0003 14.6667C12.0003 14.2992 11.7011 14 11.3336 14Z" fill="#36C6AF"/>
<path d="M18.4369 12.35C17.0417 11.8923 14.9578 11.8923 13.5626 12.35C13.3875 12.4073 13.2924 12.5958 13.3497 12.7705C13.4073 12.946 13.5958 13.042 13.7702 12.9834C15.0333 12.5687 16.9662 12.5687 18.2292 12.9834C18.2637 12.9949 18.2986 13 18.3331 13C18.4734 13 18.6036 12.9112 18.6498 12.7705C18.7071 12.5958 18.612 12.4073 18.4369 12.35Z" fill="#36C6AF"/>
<path d="M23.6666 12.6666C23.5152 12.6666 23.3697 12.6513 23.2323 12.6236C23.2958 12.3365 23.3333 12.0179 23.3333 11.6666C23.3333 11.1152 22.8847 10.6666 22.3333 10.6666C21.7818 10.6666 21.3333 11.1152 21.3333 11.6666C21.3333 12.2145 21.7717 12.7314 22.4006 13.0403C22.3043 13.264 22.1898 13.4516 22.0714 13.6126C21.024 11.8783 18.6994 10.6666 16 10.6666C14.443 10.6666 12.9456 11.0735 11.7519 11.817C11.3454 11.5036 10.8506 11.3333 10.3333 11.3333C10.1491 11.3333 9.99996 11.4824 9.99996 11.6667C9.99996 12.1266 10.1409 12.5768 10.401 12.9612C9.95405 13.4831 9.63831 14.0641 9.47424 14.6666H9.33331C8.59797 14.6666 8 15.2646 8 15.9999C8 16.7418 8.37597 17.4189 9.00553 17.8118L11.3333 19.262V20.9999C11.3333 21.1842 11.4824 21.3333 11.6667 21.3333H13C13.1263 21.3333 13.2415 21.262 13.2982 21.149L13.6927 20.36C15.1679 20.7669 16.832 20.7669 18.3073 20.36L18.7018 21.149C18.7585 21.262 18.8737 21.3333 19 21.3333H20.3333C20.5176 21.3333 20.6667 21.1842 20.6667 20.9999V19.235C21.9401 18.2981 22.6667 17.0061 22.6667 15.6666C22.6667 15.1809 22.5693 14.7126 22.3963 14.2683C22.6222 14.0165 22.8543 13.6884 23.0316 13.262C23.236 13.3082 23.4495 13.3333 23.6667 13.3333C23.8509 13.3333 24 13.1842 24 12.9999C24 12.8157 23.8508 12.6666 23.6666 12.6666ZM20.1435 18.7893C20.0537 18.8518 20 18.954 20 19.0634V20.6666H19.206L18.7786 19.8121C18.7051 19.6653 18.5364 19.5927 18.3805 19.6432C16.8733 20.1165 15.1266 20.1165 13.6194 19.6432C13.4629 19.5937 13.2946 19.6659 13.2213 19.8121L12.7939 20.6666H12V19.0771C12 18.9618 11.9407 18.8551 11.8431 18.7942L9.3584 17.246C8.92512 16.9759 8.66665 16.51 8.66665 15.9999C8.66665 15.6325 8.96581 15.3333 9.33331 15.3333H9.73859C9.89809 15.3333 10.0351 15.2203 10.0657 15.0638C10.1937 14.4072 10.543 13.7659 11.0758 13.2093C11.1953 13.0846 11.1995 12.889 11.0856 12.7591C10.8991 12.5465 10.7725 12.3034 10.7106 12.0433C11.0016 12.1113 11.2708 12.2578 11.4915 12.472C11.6058 12.583 11.7803 12.5976 11.9108 12.5085C13.028 11.7507 14.4802 11.3333 16 11.3333C19.3083 11.3333 22 13.2773 22 15.6667C21.9999 16.8509 21.3408 17.9599 20.1435 18.7893ZM22.5992 12.3903C22.2288 12.1797 21.9999 11.889 21.9999 11.6666C21.9999 11.4827 22.1494 11.3333 22.3333 11.3333C22.5172 11.3333 22.6666 11.4827 22.6666 11.6666C22.6666 11.93 22.6419 12.1709 22.5992 12.3903Z" fill="#36C6AF"/>
</svg>
