<svg width="29" height="29" viewBox="0 0 29 29" fill="none" xmlns="http://www.w3.org/2000/svg">
<g clip-path="url(#clip0)">
<path d="M28.3409 11.8639C28.7053 11.8639 29.0001 11.5709 29.0001 11.2066V8.57054C29.0001 8.33821 28.8778 8.12263 28.6776 8.00418L15.7847 0.347551C15.7789 0.343659 15.7731 0.340445 15.7673 0.337232C14.966 -0.106851 14.0623 -0.120321 13.2146 0.346254L0.322481 8.00418C0.122282 8.12256 0 8.33821 0 8.57054V11.2066C0 11.5709 0.294799 11.8639 0.659112 11.8639H2.63639V23.7281C1.18235 23.7281 0 24.9103 0 26.3642V28.3412C0 28.7055 0.294799 29.0003 0.659112 29.0003H28.3409C28.7053 29.0003 29.0001 28.7056 29.0001 28.3412V26.3642C29.0001 24.9103 27.8177 23.7281 26.3637 23.7281V11.8639H28.3409ZM27.6818 26.3639V27.6821H1.31816V26.3639C1.31816 25.6373 0.283584 27.918 1.01023 27.918L27.8461 28.3509L28.3409 26.6195V26.3639C29.0676 26.3638 27.6818 25.6372 27.6818 26.3639ZM3.95455 23.7275V11.8639H6.59093V23.7275H3.95455ZM7.9091 23.7275V11.8639H11.8636V23.7275H7.9091ZM13.1818 23.7275V11.8639H15.8182V23.7275H13.1818ZM17.1364 23.7275V11.8639H21.0909V23.7275H17.1364ZM22.4091 23.7275V11.8639H25.0455V23.7275H22.4091ZM1.31816 8.00418V8.94369L13.8686 1.4877C14.2793 1.26179 14.7156 1.26241 15.1211 1.48319L27.6818 8.94369L14.4281 0.347551L1.31816 8.00418Z" fill="url(#paint0_linear)"/>
<path d="M14.499 3.95325C13.0444 3.95325 11.8613 5.13627 11.8613 6.59093C11.8613 8.04559 13.0444 9.22855 14.499 9.22855C15.9537 9.22855 17.1366 8.04552 17.1366 6.59093C17.1366 5.13634 15.9536 3.95325 14.499 3.95325ZM14.499 7.91039C13.7717 7.91039 13.1796 7.31826 13.1796 6.59093C13.1796 5.8636 13.7717 5.27147 14.499 5.27147C15.2263 5.27147 15.8185 5.8636 15.8185 6.59093C15.8185 7.31826 15.2263 7.91039 14.499 7.91039Z" fill="#61CBE8"/>
</g>
<defs>
<linearGradient id="paint0_linear" x1="14.5" y1="0.000244141" x2="14.5" y2="29.0003" gradientUnits="userSpaceOnUse">
<stop stop-color="#EFF5FA"/>
<stop offset="1" stop-color="#D2E1EF"/>
</linearGradient>
<clipPath id="clip0">
<rect width="29" height="29" fill="white"/>
</clipPath>
</defs>
</svg>
