<svg width="529" height="894" viewBox="0 0 529 894" fill="none" xmlns="http://www.w3.org/2000/svg">
<path d="M34.1472 476.015C246.319 316.059 100.414 150.859 34.1472 91.5875C-32.1192 150.859 -177.998 316.059 34.1472 476.015ZM78.3158 924L-10.0485 923.976V748.483C-123.609 756.503 -466.167 756.383 -459.916 463.065C-459.589 443.722 -443.227 427.923 -422.107 425.29C-421.265 425.122 -248.885 401.04 -109.638 453.944C-292.918 227.462 -4.04163 16.2053 5.90649 9.02372C21.8072 -2.73007 45.4815 -3.20885 62.1161 8.80826C63.0674 9.52641 364.12 223.848 177.987 453.92C317.207 401.064 489.532 425.098 490.375 425.194C511.44 427.923 527.83 443.722 528.156 463.065C534.435 756.335 191.958 756.502 78.3158 748.531V924ZM94.1349 671.688C187.528 677.194 415.764 672.502 438.405 498.565C344.985 493.107 116.749 497.799 94.1349 671.688ZM-370.165 498.565C-347.524 672.478 -119.288 677.17 -25.8948 671.688C-48.5091 497.799 -276.745 493.107 -370.165 498.565Z" fill="#083351"/>
</svg>
