<svg width="166" height="36" viewBox="0 0 166 36" fill="none" xmlns="http://www.w3.org/2000/svg">
<path d="M58.305 17.5781H62.5777V25.777C61.4806 26.6046 60.2104 27.2398 58.7669 27.6824C57.3234 28.1251 55.8703 28.3464 54.4076 28.3464C52.3097 28.3464 50.4236 27.9038 48.7492 27.0184C47.0747 26.1139 45.7564 24.8725 44.7941 23.2943C43.851 21.6968 43.3795 19.8973 43.3795 17.8957C43.3795 15.8941 43.851 14.1041 44.7941 12.5259C45.7564 10.9285 47.0844 9.68711 48.778 8.80178C50.4717 7.8972 52.3771 7.44492 54.4942 7.44492C56.2649 7.44492 57.8719 7.74323 59.3154 8.33987C60.7589 8.93651 61.9714 9.80259 62.953 10.9381L59.9505 13.7096C58.5071 12.1891 56.7653 11.4289 54.7252 11.4289C53.4357 11.4289 52.2905 11.6984 51.2897 12.2373C50.2889 12.7762 49.5094 13.5364 48.9513 14.5179C48.3931 15.4995 48.114 16.6254 48.114 17.8957C48.114 19.1467 48.3931 20.263 48.9513 21.2445C49.5094 22.2261 50.2793 22.996 51.2608 23.5541C52.2616 24.093 53.3972 24.3624 54.6674 24.3624C56.0147 24.3624 57.2272 24.0737 58.305 23.4964V17.5781ZM72.9847 28.231C71.3487 28.231 69.8764 27.8941 68.5676 27.2205C67.2781 26.5277 66.2677 25.575 65.5363 24.3624C64.805 23.1499 64.4393 21.7738 64.4393 20.2341C64.4393 18.6944 64.805 17.3183 65.5363 16.1058C66.2677 14.8932 67.2781 13.9502 68.5676 13.2766C69.8764 12.5837 71.3487 12.2373 72.9847 12.2373C74.6206 12.2373 76.0833 12.5837 77.3728 13.2766C78.6623 13.9502 79.6728 14.8932 80.4041 16.1058C81.1355 17.3183 81.5012 18.6944 81.5012 20.2341C81.5012 21.7738 81.1355 23.1499 80.4041 24.3624C79.6728 25.575 78.6623 26.5277 77.3728 27.2205C76.0833 27.8941 74.6206 28.231 72.9847 28.231ZM72.9847 24.5357C74.1395 24.5357 75.0825 24.1507 75.8139 23.3809C76.5645 22.5918 76.9398 21.5429 76.9398 20.2341C76.9398 18.9254 76.5645 17.8861 75.8139 17.1162C75.0825 16.3271 74.1395 15.9325 72.9847 15.9325C71.8299 15.9325 70.8772 16.3271 70.1266 17.1162C69.376 17.8861 69.0007 18.9254 69.0007 20.2341C69.0007 21.5429 69.376 22.5918 70.1266 23.3809C70.8772 24.1507 71.8299 24.5357 72.9847 24.5357ZM105.823 17.4915C106.978 17.8572 107.882 18.4731 108.537 19.3391C109.191 20.186 109.518 21.2349 109.518 22.4859C109.518 24.2566 108.825 25.6231 107.44 26.5854C106.073 27.5285 104.072 28 101.435 28H90.9841V7.79135H100.857C103.321 7.79135 105.207 8.26288 106.516 9.20596C107.844 10.149 108.508 11.4289 108.508 13.0456C108.508 14.0272 108.267 14.9029 107.786 15.6727C107.324 16.4426 106.67 17.0488 105.823 17.4915ZM95.6321 11.3134V16.0769H100.28C101.435 16.0769 102.311 15.8748 102.907 15.4706C103.504 15.0665 103.802 14.4698 103.802 13.6807C103.802 12.8916 103.504 12.3046 102.907 11.9197C102.311 11.5155 101.435 11.3134 100.28 11.3134H95.6321ZM101.088 24.4779C102.32 24.4779 103.244 24.2758 103.86 23.8717C104.495 23.4675 104.813 22.842 104.813 21.9951C104.813 20.3207 103.571 19.4835 101.088 19.4835H95.6321V24.4779H101.088ZM117.996 12.2373C120.402 12.2373 122.249 12.8146 123.539 13.9694C124.828 15.105 125.473 16.8275 125.473 19.1371V28H121.258V26.0657C120.411 27.5092 118.833 28.231 116.523 28.231C115.33 28.231 114.291 28.0289 113.406 27.6247C112.539 27.2205 111.875 26.6624 111.414 25.9503C110.952 25.2382 110.721 24.4298 110.721 23.5252C110.721 22.0818 111.26 20.9462 112.337 20.1186C113.434 19.291 115.119 18.8772 117.39 18.8772H120.969C120.969 17.8957 120.671 17.1451 120.074 16.6254C119.478 16.0865 118.583 15.8171 117.39 15.8171C116.562 15.8171 115.744 15.9518 114.936 16.2212C114.147 16.4714 113.473 16.8179 112.915 17.2605L111.298 14.1138C112.145 13.5171 113.155 13.0552 114.329 12.728C115.523 12.4008 116.745 12.2373 117.996 12.2373ZM117.649 25.1997C118.419 25.1997 119.102 25.0264 119.699 24.68C120.296 24.3143 120.719 23.7851 120.969 23.0922V21.5044H117.88C116.033 21.5044 115.109 22.1106 115.109 23.3231C115.109 23.9005 115.33 24.3624 115.773 24.7089C116.235 25.0361 116.86 25.1997 117.649 25.1997ZM137.979 12.2373C139.904 12.2373 141.453 12.8146 142.627 13.9694C143.82 15.1242 144.417 16.8371 144.417 19.1082V28H139.913V19.8011C139.913 18.5693 139.644 17.6551 139.105 17.0585C138.566 16.4426 137.786 16.1346 136.766 16.1346C135.631 16.1346 134.726 16.4907 134.053 17.2028C133.379 17.8957 133.042 18.935 133.042 20.3207V28H128.539V12.4682H132.84V14.287C133.437 13.6326 134.178 13.1322 135.063 12.7858C135.948 12.4201 136.92 12.2373 137.979 12.2373ZM154.158 21.9085L151.992 24.0449V28H147.489V6.57883H151.992V18.704L158.575 12.4682H163.944L157.478 19.0505L164.522 28H159.065L154.158 21.9085Z" fill="#DC1B37"/>
<rect y="1.07666" width="33.6811" height="33.6811" rx="3.36811" fill="#DC1B37"/>
<path d="M16.9307 18.2412C22.9021 13.6992 18.7957 9.00831 16.9307 7.32527C15.0656 9.00831 10.96 13.6992 16.9307 18.2412ZM18.1737 30.9619L15.6868 30.9612V25.978C12.4907 26.2058 2.84962 26.2024 3.02557 17.8735C3.03475 17.3243 3.49527 16.8756 4.08966 16.8009C4.11338 16.7961 8.96489 16.1123 12.8839 17.6145C7.72562 11.1835 15.8559 5.18476 16.1358 4.98084C16.5833 4.64709 17.2496 4.63349 17.7178 4.97472C17.7446 4.99512 26.2175 11.0808 20.9789 17.6138C24.8972 16.113 29.7472 16.7954 29.7709 16.7981C30.3637 16.8756 30.825 17.3243 30.8342 17.8735C31.0109 26.201 21.3721 26.2058 18.1737 25.9794V30.9619ZM18.619 23.7974C21.2474 23.9538 27.671 23.8205 28.3082 18.8815C25.679 18.7266 19.2554 18.8598 18.619 23.7974ZM5.55154 18.8815C6.18877 23.8199 12.6123 23.9531 15.2408 23.7974C14.6043 18.8598 8.18079 18.7266 5.55154 18.8815Z" fill="white"/>
<path fill-rule="evenodd" clip-rule="evenodd" d="M23.4565 30.2342C23.4565 30.7325 23.0525 31.1364 22.5543 31.1364H11.1268C10.6285 31.1364 10.2246 30.7325 10.2246 30.2342C10.2246 29.7359 10.6285 29.332 11.1268 29.332H22.5543C23.0525 29.332 23.4565 29.7359 23.4565 30.2342Z" fill="white"/>
</svg>
