<svg width="84" height="84" viewBox="0 0 84 84" fill="none" xmlns="http://www.w3.org/2000/svg">
<path d="M40.5398 76.1886C41.6989 76.8493 43.1004 76.8493 44.2595 76.1886C50.5144 72.6234 70.3997 59.8975 70.3997 42.2002V20.6378C70.3997 18.8708 69.3036 17.2892 67.6491 16.6687L43.8881 7.75835C42.9284 7.39848 41.8709 7.39848 40.9113 7.75835L17.1502 16.6687C15.4957 17.2892 14.3997 18.8708 14.3997 20.6378V42.2002C14.3997 59.8975 34.2849 72.6234 40.5398 76.1886Z" fill="url(#paint0_linear)"/>
<mask id="mask0" mask-type="alpha" maskUnits="userSpaceOnUse" x="25" y="22" width="36" height="36">
<circle cx="42.6004" cy="40.1998" r="17.4" fill="url(#paint1_linear)"/>
</mask>
<g mask="url(#mask0)">
<circle cx="42.6004" cy="40.1998" r="17.4" fill="url(#paint2_linear)"/>
<g clip-path="url(#clip0)">
<path d="M46.8008 57.1498V54.4498C46.8008 53.0176 46.2319 51.6441 45.2192 50.6314C44.2065 49.6187 42.833 49.0498 41.4008 49.0498H31.9508C30.5186 49.0498 29.1451 49.6187 28.1324 50.6314C27.1197 51.6441 26.5508 53.0176 26.5508 54.4498V57.1498" stroke="white" stroke-width="2.4" stroke-linecap="round" stroke-linejoin="round"/>
<path d="M36.6756 43.6496C39.658 43.6496 42.0756 41.2319 42.0756 38.2496C42.0756 35.2673 39.658 32.8496 36.6756 32.8496C33.6933 32.8496 31.2756 35.2673 31.2756 38.2496C31.2756 41.2319 33.6933 43.6496 36.6756 43.6496Z" stroke="white" stroke-width="2.4" stroke-linecap="round" stroke-linejoin="round"/>
<path d="M48.1506 43.6502L50.8506 46.3502L56.2506 40.9502" stroke="white" stroke-width="2.4" stroke-linecap="round" stroke-linejoin="round"/>
</g>
</g>
<defs>
<linearGradient id="paint0_linear" x1="42.3997" y1="7.2002" x2="42.3997" y2="77.2002" gradientUnits="userSpaceOnUse">
<stop stop-color="#F0F6FB"/>
<stop offset="1" stop-color="#E2EAF3"/>
</linearGradient>
<linearGradient id="paint1_linear" x1="42.6004" y1="22.7998" x2="42.6004" y2="57.5998" gradientUnits="userSpaceOnUse">
<stop stop-color="#002D4C"/>
<stop offset="0.0001" stop-color="#1C6BA2"/>
<stop offset="1" stop-color="#002D4C"/>
</linearGradient>
<linearGradient id="paint2_linear" x1="42.6004" y1="22.7998" x2="42.6004" y2="57.5998" gradientUnits="userSpaceOnUse">
<stop stop-color="#002D4C"/>
<stop offset="0.0001" stop-color="#1C6BA2"/>
<stop offset="1" stop-color="#002D4C"/>
</linearGradient>
<clipPath id="clip0">
<rect width="32.4" height="32.4" fill="white" transform="translate(25.2007 28.7998)"/>
</clipPath>
</defs>
</svg>
