<svg id="Layer_1" data-name="Layer 1" xmlns="http://www.w3.org/2000/svg" viewBox="0 0 1000 200"><defs><style>.cls-1{fill:#007FFF;}</style></defs><title>cloudentity-white</title><path class="cls-1" d="M124.48,131.49a41.49,41.49,0,0,1-14.19,12q-8.72,4.62-20.94,4.62a51.62,51.62,0,0,1-19.45-3.58,45.14,45.14,0,0,1-15.36-10,46.14,46.14,0,0,1-10.08-15.35,51.25,51.25,0,0,1-3.64-19.58,50.94,50.94,0,0,1,3.7-19.72A44.78,44.78,0,0,1,54.8,64.67a46.9,46.9,0,0,1,15.55-9.82,53.16,53.16,0,0,1,19.52-3.51,50.82,50.82,0,0,1,9.5.91A47.21,47.21,0,0,1,108.6,55a38.43,38.43,0,0,1,8.07,4.49,29.32,29.32,0,0,1,6.25,6.18l-10.15,7.8a25.45,25.45,0,0,0-9.57-7.74,29.74,29.74,0,0,0-13.33-3,34.69,34.69,0,0,0-14.51,2.92,32.7,32.7,0,0,0-11,8,36.08,36.08,0,0,0-7,11.77,40.82,40.82,0,0,0-2.47,14.25,43.28,43.28,0,0,0,2.4,14.57A35,35,0,0,0,64.17,126a31.74,31.74,0,0,0,10.93,7.88,35,35,0,0,0,14.38,2.86,31.83,31.83,0,0,0,14.18-3.12,27.34,27.34,0,0,0,10.54-9.11Z"/><path class="cls-1" d="M153.75,134.35h41.12V145.8h-54V53.68h12.88Z"/><path class="cls-1" d="M299.6,99.61a50.52,50.52,0,0,1-3.7,19.58,46.48,46.48,0,0,1-10.22,15.35,45.74,45.74,0,0,1-15.48,10,54.82,54.82,0,0,1-39,0,45.15,45.15,0,0,1-25.57-25.37A51.25,51.25,0,0,1,202,99.61a51.68,51.68,0,0,1,3.64-19.72,44.33,44.33,0,0,1,10.15-15.22,46.32,46.32,0,0,1,15.42-9.82,55.84,55.84,0,0,1,39,0,46.19,46.19,0,0,1,15.48,9.82A45.22,45.22,0,0,1,295.9,79.89,50.94,50.94,0,0,1,299.6,99.61Zm-13.92,0a40.82,40.82,0,0,0-2.47-14.25,36.08,36.08,0,0,0-7-11.77,32.7,32.7,0,0,0-11-8,37.19,37.19,0,0,0-28.89,0,32,32,0,0,0-10.92,8,36.64,36.64,0,0,0-7,11.77,40.82,40.82,0,0,0-2.47,14.25,41.68,41.68,0,0,0,2.47,14.44,35.16,35.16,0,0,0,7,11.77,32.65,32.65,0,0,0,10.93,7.88,34.69,34.69,0,0,0,14.31,2.86,35.62,35.62,0,0,0,14.44-2.86,32.29,32.29,0,0,0,11.06-7.88,35.16,35.16,0,0,0,7-11.77A41.68,41.68,0,0,0,285.68,99.61Z"/><path class="cls-1" d="M355.55,148.14a38.21,38.21,0,0,1-15.87-3.06A32.22,32.22,0,0,1,328.49,137a33.1,33.1,0,0,1-6.57-11.65,43.47,43.47,0,0,1-2.15-13.59v-58h12.88v57.25a37.75,37.75,0,0,0,1.17,9.3,23.64,23.64,0,0,0,3.84,8.26,19.48,19.48,0,0,0,7,5.86,27.64,27.64,0,0,0,21.66,0,19.35,19.35,0,0,0,7.09-5.86,23.64,23.64,0,0,0,3.84-8.26,37.75,37.75,0,0,0,1.17-9.3V53.68h12.88v58a43.18,43.18,0,0,1-2.15,13.59A33.1,33.1,0,0,1,382.61,137a32.22,32.22,0,0,1-11.19,8.13A38.21,38.21,0,0,1,355.55,148.14Z"/><path class="cls-1" d="M529,137.47H578.3v8.33H519.62V53.68h57.11V62H529V93.62h44.62V102H529Z"/><path class="cls-1" d="M665.21,132.14h.26V53.68h9.37V145.8H663.13L609.52,66.56h-.26V145.8h-9.37V53.68H611.6Z"/><path class="cls-1" d="M732.09,145.8h-9.37V62H691.88V53.68h71V62H732.09Z"/><path class="cls-1" d="M789.33,145.8H780V53.68h9.36Z"/><path class="cls-1" d="M846.58,145.8h-9.36V62H806.38V53.68h71V62H846.58Z"/><path class="cls-1" d="M924.52,145.8h-9.37V106.11L880.67,53.68h11.71L920.1,98.31l28-44.63H959l-34.48,52.43Z"/><rect class="cls-1" x="416.31" y="53.68" width="10.99" height="92.12"/><path class="cls-1" d="M493.21,78.79a42,42,0,0,0-11.58-14.31,47.69,47.69,0,0,0-16-8.2,62.57,62.57,0,0,0-17.69-2.6H435.86V64.87h9.47a50.08,50.08,0,0,1,15.41,2.28A35.1,35.1,0,0,1,473,73.78a29.76,29.76,0,0,1,8,10.86,37.35,37.35,0,0,1,2.86,15.1,36.3,36.3,0,0,1-2.86,14.7,30.27,30.27,0,0,1-8,10.93,35.69,35.69,0,0,1-12.23,6.77,48.9,48.9,0,0,1-15.41,2.34h-9.47V145.8h12.07a58.23,58.23,0,0,0,17.69-2.8,49.63,49.63,0,0,0,16-8.46,42.75,42.75,0,0,0,11.58-14.31q4.41-8.66,4.42-20.49Q497.63,87.5,493.21,78.79Z"/></svg>
