<svg width="51" height="36" viewBox="0 0 51 36" fill="none" xmlns="http://www.w3.org/2000/svg">
<path opacity="0.46" d="M40.636 19.2233C40.0552 18.6312 40.0438 17.6484 40.6246 17.0445L46.0002 11.3723H20.3749C19.5549 11.3723 18.8944 10.6855 18.8944 9.83294C18.8944 8.98035 19.5549 8.29354 20.3749 8.29354H45.9888L40.6132 2.62144C40.0438 2.01752 40.0438 1.04651 40.6246 0.442589C41.2054 -0.149489 42.1394 -0.149488 42.7202 0.454431L50.5786 8.74352C50.7039 8.88562 50.8178 9.03956 50.8861 9.22902C50.9658 9.41849 51 9.61979 51 9.8211C51 10.2237 50.8519 10.6026 50.5786 10.8987L42.7202 19.1878C42.1507 19.8035 41.2168 19.8154 40.636 19.2233ZM10.364 35.5646C10.9448 34.9726 10.9562 33.9897 10.3754 33.3858L5.01117 27.7137H30.6251C31.4451 27.7137 32.1056 27.0269 32.1056 26.1743C32.1056 25.3217 31.4451 24.6349 30.6251 24.6349H5.01117L10.3868 18.9628C10.9562 18.3589 10.9562 17.3879 10.3754 16.7839C9.79455 16.1919 8.86065 16.1919 8.27981 16.7958L0.421394 25.0849C0.296114 25.227 0.182224 25.3809 0.11389 25.5704C0.034167 25.7598 0 25.9611 0 26.1625C0 26.5651 0.148057 26.944 0.421394 27.24L8.27981 35.5291C8.84926 36.1449 9.78316 36.1567 10.364 35.5646Z" fill="#36C6AF"/>
</svg>
