<svg width="166" height="32" viewBox="0 0 166 32" fill="none" xmlns="http://www.w3.org/2000/svg">
<path opacity="0.3" d="M15.8484 5.40795C16.3102 4.55715 17.2007 4.02734 18.1687 4.02734H30.8807C31.8815 4.02734 32.5184 5.09766 32.0408 5.97729L21.3077 25.7489C20.8458 26.5997 19.9554 27.1295 18.9873 27.1295H6.27538C5.27449 27.1295 4.63767 26.0592 5.11518 25.1796L15.8484 5.40795Z" fill="#36C6AF"/>
<path d="M12.1784 1.60496C12.5826 0.860507 13.3617 0.396926 14.2088 0.396926H26.9207C27.6714 0.396926 28.149 1.19966 27.7908 1.85939L17.0577 21.631C16.6535 22.3755 15.8744 22.8391 15.0273 22.8391H2.31542C1.56475 22.8391 1.08714 22.0363 1.44527 21.3766L12.1784 1.60496Z" stroke="#36C6AF" stroke-width="0.660063"/>
<path opacity="0.1" d="M19.8093 9.3684C20.2712 8.5176 21.1616 7.98779 22.1297 7.98779H34.8416C35.8425 7.98779 36.4793 9.05811 36.0018 9.93774L25.2686 29.7094C24.8068 30.5602 23.9163 31.09 22.9482 31.09H10.2363C9.23543 31.09 8.59861 30.0197 9.07612 29.14L19.8093 9.3684Z" fill="#36C6AF"/>
<path d="M48.8278 6.85716C48.9641 7.11388 49.0809 7.46395 49.1782 7.90738C49.2951 8.32747 49.3535 8.77089 49.3535 9.23765C49.3535 10.1478 49.188 10.8013 48.857 11.1981C48.5454 11.5715 48.1171 11.7582 47.5719 11.7582H41.4385V15.714H47.8347C47.9905 15.9707 48.1171 16.3091 48.2144 16.7292C48.3312 17.1493 48.3897 17.5927 48.3897 18.0595C48.3897 18.9463 48.2242 19.5881 47.8931 19.9849C47.5816 20.3583 47.1532 20.545 46.6081 20.545H41.4969V27.9315C41.2827 28.0016 40.942 28.0716 40.4747 28.1416C40.0268 28.2116 39.579 28.2466 39.1312 28.2466C38.6833 28.2466 38.2842 28.1999 37.9337 28.1066C37.6027 28.0366 37.3204 27.8965 37.0867 27.6865C36.853 27.4764 36.6778 27.1847 36.561 26.8113C36.4442 26.4379 36.3857 25.9478 36.3857 25.341V10.1128C36.3857 9.10929 36.6291 8.3158 37.1159 7.73234C37.6027 7.14889 38.2647 6.85716 39.102 6.85716H48.8278Z" fill="#36C6AF"/>
<path d="M51.0473 6.33205C51.0473 5.4452 51.2906 4.69838 51.7774 4.09158C52.2837 3.48479 52.9457 3.1814 53.7635 3.1814C54.5813 3.1814 55.2335 3.48479 55.7203 4.09158C56.2266 4.69838 56.4797 5.4452 56.4797 6.33205C56.4797 7.2189 56.2266 7.96572 55.7203 8.57252C55.2335 9.17931 54.5813 9.48271 53.7635 9.48271C52.9457 9.48271 52.2837 9.17931 51.7774 8.57252C51.2906 7.96572 51.0473 7.2189 51.0473 6.33205ZM56.246 28.0366C56.0318 28.0832 55.7106 28.1416 55.2822 28.2116C54.8733 28.305 54.4547 28.3516 54.0263 28.3516C53.598 28.3516 53.2085 28.3166 52.8581 28.2466C52.5271 28.1766 52.2447 28.0366 52.0111 27.8265C51.7774 27.6165 51.5924 27.3364 51.4561 26.9863C51.3393 26.6129 51.2809 26.1345 51.2809 25.551V11.3031C51.4951 11.2564 51.8066 11.1981 52.2155 11.128C52.6439 11.0347 53.0722 10.988 53.5006 10.988C53.929 10.988 54.3087 11.023 54.6397 11.093C54.9901 11.1631 55.2822 11.3031 55.5159 11.5131C55.7495 11.7232 55.9248 12.0149 56.0416 12.3883C56.1779 12.7384 56.246 13.2051 56.246 13.7886V28.0366Z" fill="#36C6AF"/>
<path d="M68.2728 17.2893C68.2728 16.5658 68.0975 16.0407 67.7471 15.714C67.4161 15.3639 66.9585 15.1889 66.3744 15.1889C65.9849 15.1889 65.5955 15.2472 65.2061 15.3639C64.8361 15.4806 64.5149 15.6557 64.2423 15.889V28.0366C64.0476 28.1066 63.736 28.1766 63.3077 28.2466C62.8988 28.3166 62.4704 28.3516 62.0226 28.3516C61.5942 28.3516 61.2048 28.3166 60.8543 28.2466C60.5233 28.1766 60.241 28.0366 60.0073 27.8265C59.7737 27.6165 59.5887 27.3364 59.4524 26.9863C59.3356 26.6129 59.2771 26.1345 59.2771 25.551V15.0489C59.2771 14.4187 59.3842 13.9053 59.5984 13.5085C59.8321 13.1118 60.1436 12.7501 60.533 12.4233C61.1951 11.8632 62.0226 11.4081 63.0156 11.058C64.0281 10.708 65.1477 10.5329 66.3744 10.5329C68.5746 10.5329 70.2686 11.1164 71.4563 12.2833C72.644 13.4269 73.2379 15.0255 73.2379 17.0793V28.0366C73.0432 28.1066 72.7317 28.1766 72.3033 28.2466C71.8944 28.3166 71.466 28.3516 71.0182 28.3516C70.5898 28.3516 70.2004 28.3166 69.8499 28.2466C69.5189 28.1766 69.2366 28.0366 69.0029 27.8265C68.7693 27.6165 68.5843 27.3364 68.448 26.9863C68.3312 26.6129 68.2728 26.1345 68.2728 25.551V17.2893Z" fill="#36C6AF"/>
<path d="M82.25 24.2908C82.581 24.2908 82.9412 24.2558 83.3306 24.1858C83.7395 24.0924 84.0413 23.9757 84.236 23.8357V21.0351L82.1332 21.2452C81.588 21.2918 81.1401 21.4319 80.7897 21.6652C80.4392 21.8986 80.2639 22.2487 80.2639 22.7155C80.2639 23.1822 80.41 23.5673 80.702 23.8707C81.0136 24.1508 81.5296 24.2908 82.25 24.2908ZM82.0163 10.5329C83.0678 10.5329 84.0219 10.6613 84.8786 10.918C85.7548 11.1747 86.4947 11.5715 87.0983 12.1083C87.7214 12.6217 88.1984 13.2868 88.5294 14.1037C88.8604 14.8972 89.0259 15.8424 89.0259 16.9393V24.7809C89.0259 25.3877 88.8799 25.8895 88.5878 26.2862C88.3152 26.6596 87.9842 26.9863 87.5948 27.2664C86.3292 28.1766 84.5476 28.6317 82.25 28.6317C81.218 28.6317 80.2834 28.515 79.4462 28.2816C78.6284 28.0482 77.9177 27.6982 77.3141 27.2314C76.7299 26.7646 76.2724 26.1695 75.9414 25.446C75.6298 24.7225 75.4741 23.8824 75.4741 22.9255C75.4741 21.3152 75.8732 20.0782 76.6715 19.2147C77.4698 18.3512 78.7063 17.8144 80.3808 17.6044L84.2068 17.1143V16.8692C84.2068 16.1924 83.9537 15.714 83.4475 15.4339C82.9607 15.1305 82.25 14.9788 81.3154 14.9788C80.5755 14.9788 79.855 15.0722 79.1541 15.2589C78.4531 15.4456 77.8203 15.679 77.2557 15.9591C77.0025 15.749 76.7884 15.4339 76.6131 15.0139C76.4379 14.5704 76.3503 14.1153 76.3503 13.6486C76.3503 13.0418 76.4671 12.5633 76.7007 12.2133C76.9539 11.8399 77.3335 11.5248 77.8398 11.2681C78.4045 11.0114 79.0665 10.8247 79.8258 10.708C80.6047 10.5913 81.3349 10.5329 82.0163 10.5329Z" fill="#36C6AF"/>
<path d="M100.928 17.2893C100.928 16.5658 100.752 16.0407 100.402 15.714C100.071 15.3639 99.6133 15.1889 99.0292 15.1889C98.6398 15.1889 98.2504 15.2472 97.8609 15.3639C97.491 15.4806 97.1697 15.6557 96.8971 15.889V28.0366C96.7024 28.1066 96.3909 28.1766 95.9625 28.2466C95.5536 28.3166 95.1253 28.3516 94.6774 28.3516C94.2491 28.3516 93.8596 28.3166 93.5092 28.2466C93.1782 28.1766 92.8958 28.0366 92.6622 27.8265C92.4285 27.6165 92.2435 27.3364 92.1072 26.9863C91.9904 26.6129 91.932 26.1345 91.932 25.551V15.0489C91.932 14.4187 92.0391 13.9053 92.2533 13.5085C92.4869 13.1118 92.7985 12.7501 93.1879 12.4233C93.8499 11.8632 94.6774 11.4081 95.6704 11.058C96.6829 10.708 97.8025 10.5329 99.0292 10.5329C101.229 10.5329 102.923 11.1164 104.111 12.2833C105.299 13.4269 105.893 15.0255 105.893 17.0793V28.0366C105.698 28.1066 105.387 28.1766 104.958 28.2466C104.549 28.3166 104.121 28.3516 103.673 28.3516C103.245 28.3516 102.855 28.3166 102.505 28.2466C102.174 28.1766 101.891 28.0366 101.658 27.8265C101.424 27.6165 101.239 27.3364 101.103 26.9863C100.986 26.6129 100.928 26.1345 100.928 25.551V17.2893Z" fill="#36C6AF"/>
<path d="M116.832 15.2239C116.346 15.2239 115.878 15.3173 115.431 15.504C115.002 15.6907 114.623 15.9707 114.292 16.3441C113.98 16.6942 113.727 17.1376 113.532 17.6744C113.337 18.2112 113.24 18.8413 113.24 19.5648C113.24 21.0118 113.581 22.097 114.262 22.8205C114.963 23.544 115.81 23.9057 116.803 23.9057C117.387 23.9057 117.894 23.824 118.322 23.6607C118.75 23.4973 119.13 23.3223 119.461 23.1355C119.85 23.4623 120.143 23.824 120.337 24.2208C120.532 24.5942 120.629 25.0493 120.629 25.5861C120.629 26.5429 120.25 27.2897 119.49 27.8265C118.731 28.34 117.679 28.5967 116.336 28.5967C115.109 28.5967 113.999 28.3866 113.006 27.9666C112.013 27.5231 111.157 26.9163 110.436 26.1462C109.735 25.3527 109.19 24.4075 108.801 23.3106C108.411 22.2137 108.217 21.0001 108.217 19.6698C108.217 18.1295 108.421 16.7876 108.83 15.644C109.258 14.4771 109.833 13.5202 110.553 12.7734C111.273 12.0266 112.101 11.4665 113.036 11.093C113.99 10.7196 114.992 10.5329 116.044 10.5329C117.446 10.5329 118.526 10.8363 119.286 11.4431C120.045 12.0499 120.425 12.8317 120.425 13.7886C120.425 14.232 120.337 14.6521 120.162 15.0489C119.987 15.4223 119.782 15.749 119.549 16.0291C119.218 15.8424 118.819 15.6673 118.351 15.504C117.884 15.3173 117.378 15.2239 116.832 15.2239Z" fill="#36C6AF"/>
<path d="M127.955 28.0366C127.76 28.1066 127.449 28.1766 127.02 28.2466C126.611 28.3166 126.183 28.3516 125.735 28.3516C125.307 28.3516 124.917 28.3166 124.567 28.2466C124.236 28.1766 123.953 28.0366 123.72 27.8265C123.486 27.6165 123.301 27.3364 123.165 26.9863C123.048 26.6129 122.99 26.1345 122.99 25.551V15.0489C122.99 14.5121 123.068 14.057 123.223 13.6836C123.399 13.2868 123.642 12.9368 123.953 12.6334C124.265 12.33 124.645 12.0616 125.092 11.8282C125.56 11.5715 126.056 11.3498 126.582 11.1631C127.108 10.9764 127.653 10.8363 128.218 10.743C128.782 10.6263 129.347 10.5679 129.912 10.5679C130.846 10.5679 131.586 10.7896 132.131 11.2331C132.676 11.6532 132.949 12.3533 132.949 13.3335C132.949 13.6602 132.91 13.987 132.832 14.3137C132.754 14.6171 132.657 14.8972 132.54 15.1539C132.131 15.1539 131.713 15.1772 131.284 15.2239C130.856 15.2706 130.437 15.3406 130.028 15.4339C129.62 15.5273 129.23 15.6323 128.86 15.749C128.51 15.8424 128.208 15.9591 127.955 16.0991V28.0366Z" fill="#36C6AF"/>
<path d="M149.017 19.5648C149.017 21.0118 148.832 22.307 148.462 23.4506C148.092 24.5708 147.566 25.516 146.885 26.2862C146.223 27.0564 145.424 27.6398 144.49 28.0366C143.555 28.4333 142.513 28.6317 141.364 28.6317C140.216 28.6317 139.174 28.4216 138.239 28.0016C137.305 27.5815 136.497 26.9863 135.815 26.2162C135.153 25.4227 134.637 24.4658 134.267 23.3456C133.897 22.2254 133.712 20.9651 133.712 19.5648C133.712 18.1878 133.897 16.9393 134.267 15.819C134.637 14.6988 135.153 13.7536 135.815 12.9834C136.497 12.1899 137.305 11.5831 138.239 11.1631C139.174 10.743 140.216 10.5329 141.364 10.5329C142.513 10.5329 143.555 10.7546 144.49 11.1981C145.424 11.6181 146.223 12.2249 146.885 13.0184C147.566 13.7886 148.092 14.7338 148.462 15.854C148.832 16.9743 149.017 18.2112 149.017 19.5648ZM138.794 19.5648C138.794 20.9884 139.018 22.0853 139.466 22.8555C139.933 23.6023 140.576 23.9757 141.394 23.9757C142.211 23.9757 142.835 23.5906 143.263 22.8205C143.711 22.0503 143.935 20.9651 143.935 19.5648C143.935 18.1645 143.711 17.091 143.263 16.3441C142.815 15.574 142.182 15.1889 141.364 15.1889C140.547 15.1889 139.914 15.574 139.466 16.3441C139.018 17.091 138.794 18.1645 138.794 19.5648Z" fill="#36C6AF"/>
<path d="M166 19.5648C166 21.0118 165.815 22.307 165.445 23.4506C165.075 24.5708 164.549 25.516 163.868 26.2862C163.206 27.0564 162.408 27.6398 161.473 28.0366C160.538 28.4333 159.497 28.6317 158.348 28.6317C157.199 28.6317 156.157 28.4216 155.223 28.0016C154.288 27.5815 153.48 26.9863 152.799 26.2162C152.137 25.4227 151.621 24.4658 151.251 23.3456C150.881 22.2254 150.696 20.9651 150.696 19.5648C150.696 18.1878 150.881 16.9393 151.251 15.819C151.621 14.6988 152.137 13.7536 152.799 12.9834C153.48 12.1899 154.288 11.5831 155.223 11.1631C156.157 10.743 157.199 10.5329 158.348 10.5329C159.497 10.5329 160.538 10.7546 161.473 11.1981C162.408 11.6181 163.206 12.2249 163.868 13.0184C164.549 13.7886 165.075 14.7338 165.445 15.854C165.815 16.9743 166 18.2112 166 19.5648ZM155.778 19.5648C155.778 20.9884 156.002 22.0853 156.449 22.8555C156.917 23.6023 157.559 23.9757 158.377 23.9757C159.195 23.9757 159.818 23.5906 160.246 22.8205C160.694 22.0503 160.918 20.9651 160.918 19.5648C160.918 18.1645 160.694 17.091 160.246 16.3441C159.799 15.574 159.166 15.1889 158.348 15.1889C157.53 15.1889 156.897 15.574 156.449 16.3441C156.002 17.091 155.778 18.1645 155.778 19.5648Z" fill="#36C6AF"/>
</svg>
