<svg width="500" height="266" viewBox="0 0 500 266" fill="none" xmlns="http://www.w3.org/2000/svg">
<g clip-path="url(#clip0)">
<rect y="4" width="498" height="261" fill="url(#paint0_radial)" fill-opacity="0.5"/>
<path d="M86.9065 185.564H92.4529L81.2806 264.298H79.1099L86.9065 185.564Z" fill="#B1B5BA"/>
<path d="M79.1133 264.299H80.0431L88.8528 189.186C88.8875 188.773 89.0634 188.385 89.3506 188.085C89.6379 187.787 90.0189 187.595 90.4302 187.543L92.2392 187.359L92.4635 185.593H86.91L79.1133 264.299Z" fill="#858990"/>
<path d="M69.8806 185.564H75.4269L64.2474 264.298H62.0767L69.8806 185.564Z" fill="#B1B5BA"/>
<path d="M62.0767 264.298H63.0065L68.6866 217.695L70.4052 216.632L75.1736 187.326L75.3979 185.564H69.8516L62.0767 264.298Z" fill="#858990"/>
<path d="M130.55 264.341H128.379L118.85 186.993H124.389L130.55 264.341Z" fill="#B1B5BA"/>
<path d="M129.16 264.342L123.885 217.739L126.175 217.196L122.387 186.965H118.824L128.364 264.309H129.178L129.16 264.342Z" fill="#858990"/>
<path d="M129.443 181.263H65.2826C64.3275 181.263 63.5532 182.037 63.5532 182.992V186.299C63.5532 187.254 64.3275 188.028 65.2826 188.028H129.443C130.398 188.028 131.173 187.254 131.173 186.299V182.992C131.173 182.037 130.398 181.263 129.443 181.263Z" fill="#21252B"/>
<path d="M174.486 142.406H174.125L174.486 142.373V142.406Z" fill="black"/>
<path d="M160.97 135.188L165.702 135.821L175.832 134.92C176.712 134.939 177.55 135.298 178.17 135.923L184.414 141.501C184.604 141.672 184.721 141.91 184.739 142.165C184.758 142.42 184.678 142.672 184.515 142.869C184.353 143.069 184.12 143.198 183.865 143.229C183.61 143.26 183.353 143.19 183.148 143.035L177.236 138.694L181.075 143.234C181.176 143.353 181.247 143.494 181.282 143.646C181.317 143.798 181.315 143.956 181.276 144.107C181.237 144.258 181.162 144.397 181.058 144.513C180.954 144.628 180.823 144.717 180.677 144.772C180.508 144.834 180.325 144.847 180.148 144.812C179.971 144.777 179.808 144.694 179.675 144.573L174.53 139.53L178.437 143.368C178.544 143.473 178.623 143.602 178.667 143.745C178.711 143.888 178.719 144.04 178.689 144.186C178.659 144.333 178.593 144.47 178.496 144.584C178.4 144.698 178.276 144.787 178.137 144.841C177.996 144.899 177.842 144.92 177.69 144.903C177.538 144.885 177.393 144.829 177.269 144.74L171.788 140.738L175.496 143.477C175.597 143.549 175.679 143.644 175.735 143.755C175.792 143.865 175.822 143.988 175.822 144.112C175.822 144.236 175.792 144.358 175.735 144.469C175.679 144.579 175.597 144.674 175.496 144.747C175.387 144.826 175.259 144.877 175.125 144.895C174.991 144.912 174.855 144.897 174.729 144.848L169.751 142.775C169.512 142.673 169.255 142.624 168.996 142.63C168.737 142.636 168.482 142.698 168.249 142.811L166.346 143.745C165.203 144.284 163.611 144.168 161.907 144.168L158.104 143.994C158.796 141.321 160.97 135.188 160.97 135.188Z" fill="#FB9C9C"/>
<path opacity="0.15" d="M170.872 142.185C172.008 142.753 173.911 143.723 174.577 144.088C175.514 144.624 175.781 143.922 175.781 143.922C175.816 144.075 175.806 144.236 175.753 144.384C175.7 144.531 175.605 144.661 175.481 144.758C175.371 144.837 175.243 144.888 175.108 144.906C174.974 144.924 174.837 144.907 174.71 144.859L169.736 142.786C169.497 142.684 169.24 142.635 168.981 142.641C168.722 142.647 168.467 142.709 168.234 142.822L169.2 142.254C169.454 142.113 169.738 142.033 170.028 142.021C170.318 142.009 170.607 142.065 170.872 142.185Z" fill="black"/>
<g opacity="0.15">
<path opacity="0.15" d="M175.185 143.162C175.166 143.164 175.148 143.163 175.13 143.157C175.113 143.151 175.097 143.142 175.083 143.13L171.679 140.626C171.61 140.557 171.578 140.456 171.643 140.391C171.708 140.326 171.813 140.29 171.878 140.358L175.286 142.862C175.321 142.889 175.344 142.929 175.35 142.973C175.356 143.017 175.345 143.061 175.319 143.097C175.281 143.131 175.235 143.154 175.185 143.162Z" fill="black"/>
</g>
<g opacity="0.15">
<path opacity="0.15" d="M178.069 142.941C178.033 142.941 177.967 142.941 177.967 142.909L174.295 139.291C174.279 139.276 174.266 139.258 174.257 139.238C174.248 139.218 174.243 139.196 174.243 139.173C174.243 139.151 174.248 139.13 174.257 139.109C174.266 139.089 174.279 139.071 174.295 139.056C174.31 139.041 174.328 139.029 174.348 139.02C174.368 139.012 174.389 139.008 174.411 139.008C174.432 139.008 174.454 139.012 174.474 139.02C174.494 139.029 174.512 139.041 174.527 139.056L178.199 142.674C178.215 142.689 178.228 142.707 178.237 142.727C178.246 142.748 178.251 142.769 178.251 142.791C178.251 142.814 178.246 142.835 178.237 142.856C178.228 142.876 178.215 142.894 178.199 142.909C178.161 142.935 178.115 142.947 178.069 142.941Z" fill="black"/>
</g>
<path d="M193.007 251.711L198.607 263.289H213.893L215.178 258.093L209.968 255.427C209.528 255.202 209.195 254.811 209.042 254.342L206.549 246.863L193.007 251.711Z" fill="#FB9C9C"/>
<path opacity="0.15" d="M197.71 254.663L207.522 249.783L206.549 246.867L193.007 251.711L198.607 263.289H202.153L197.385 255.854C197.32 255.756 197.277 255.646 197.259 255.531C197.241 255.415 197.247 255.298 197.278 255.185C197.309 255.072 197.363 254.967 197.438 254.878C197.512 254.788 197.605 254.715 197.71 254.663Z" fill="black"/>
<path d="M156.559 258.082L155.275 263.278H139.989V250.402L152.051 249.638V252.894V255.181C152.207 255.649 152.539 256.039 152.978 256.266L156.559 258.082Z" fill="#FB9C9C"/>
<path opacity="0.15" d="M152.059 252.894L142.652 254.468C142.423 254.506 142.217 254.632 142.078 254.818C141.939 255.004 141.876 255.236 141.903 255.467L142.84 263.289H139.979V252.894H152.059Z" fill="black"/>
<path d="M226.523 263.187C226.492 262.432 226.236 261.704 225.789 261.095C225.342 260.486 224.723 260.024 224.013 259.768L213.723 256.642C213.541 256.582 213.343 256.598 213.172 256.684C213.001 256.77 212.871 256.92 212.811 257.102C212.421 258.404 211.44 261.204 209.523 263.191L198.466 263.154C198.274 263.154 198.09 263.231 197.954 263.366C197.819 263.502 197.743 263.686 197.743 263.878C197.743 264.07 197.819 264.254 197.954 264.39C198.09 264.525 198.274 264.602 198.466 264.602L225.807 264.638C225.999 264.638 226.183 264.561 226.319 264.426C226.454 264.29 226.531 264.106 226.531 263.914V263.191L226.523 263.187Z" fill="#21252B"/>
<path d="M166.885 262.945V263.643C166.884 263.827 166.809 264.004 166.678 264.134C166.548 264.263 166.371 264.337 166.187 264.338L139.508 264.302C139.413 264.309 139.317 264.296 139.226 264.264C139.136 264.232 139.053 264.182 138.983 264.117C138.912 264.051 138.856 263.972 138.818 263.884C138.78 263.796 138.76 263.701 138.76 263.605C138.76 263.509 138.78 263.414 138.818 263.326C138.856 263.238 138.912 263.16 138.983 263.094C139.053 263.029 139.136 262.979 139.226 262.947C139.317 262.915 139.413 262.902 139.508 262.909L150.297 262.945C152.168 261.002 153.123 258.271 153.506 257.001C153.533 256.912 153.578 256.83 153.637 256.758C153.697 256.687 153.771 256.63 153.854 256.588C153.937 256.546 154.027 256.522 154.12 256.516C154.212 256.511 154.305 256.524 154.393 256.556L161.198 258.625L164.432 259.609C165.125 259.858 165.728 260.308 166.164 260.9C166.601 261.493 166.85 262.202 166.882 262.938L166.885 262.945Z" fill="#21252B"/>
<path d="M207.355 249.276L194.07 253.936L160.022 182.301H104.356V157.337L167.934 157.67C172.004 157.51 173.853 160.108 175.315 164.417L207.355 249.276Z" fill="#3F4249"/>
<path opacity="0.15" d="M201.52 251.335L194.07 253.947L160.101 182.312H104.356V157.348H151.928C158.853 157.381 160.521 157.348 163.213 162.464L201.52 251.335Z" fill="black"/>
<path d="M153.762 252.894H137.793C135.655 218.886 132.728 189.475 133.509 182.308H84.855C81.3138 182.308 77.9172 180.902 75.4125 178.399C72.9078 175.895 71.4994 172.499 71.4976 168.958V157.319H142.771H143.241C148.61 157.551 152.796 162.088 152.862 167.449L153.762 252.894Z" fill="#3F4249"/>
<path opacity="0.15" d="M138.567 175.619C137.63 175.293 89.9094 175.619 89.9094 175.619C86.7763 175.619 84.222 174.533 82.3117 172.724C78.2994 168.907 78.1475 162.529 81.7654 158.325L82.6337 157.319H71.5483V168.958C71.5483 172.501 72.9557 175.898 75.4604 178.403C77.9655 180.908 81.3631 182.315 84.9058 182.315H133.56C132.912 195.582 135.951 222.883 137.739 251.143H142.959C142.959 251.143 139.142 176.194 138.567 175.619Z" fill="black"/>
<path d="M161.223 135.155L128.947 127.713L119.664 103.473C116.997 96.5229 102.102 103.415 102.424 104.352L114.935 135.926C115.706 137.872 117.088 138.715 119.729 138.961L159.631 144.178L161.223 135.155Z" fill="#006580"/>
<path d="M124.421 115.886L110.941 119.2L109.294 119.606L106.187 109.114L106.476 95.4775L113.925 96.7004C116.147 97.547 117.825 99.0087 118.603 100.771L124.421 115.886Z" fill="#006580"/>
<path opacity="0.15" d="M120.966 138.14C118.322 137.894 116.94 137.055 116.169 135.105L105.695 103.191C105.673 103.126 102.359 104.168 102.439 104.352L114.95 135.926C115.72 137.872 117.102 138.715 119.744 138.961L159.646 144.178L159.823 143.162L120.966 138.14Z" fill="black"/>
<path d="M113.936 96.7149L111.23 116.997L110.941 119.197L110.579 121.881L109.7 128.527L109.635 131.737L109.533 136.624L109.324 146.599V146.849L109.627 150.829L109.989 155.666C110.033 156.183 109.973 156.704 109.815 157.198C109.656 157.692 109.401 158.149 109.064 158.544C108.727 158.939 108.316 159.264 107.853 159.499C107.39 159.734 106.885 159.874 106.368 159.913C93.8822 160.763 78.5855 159.414 72.4712 160.579C72.2259 160.624 71.9737 160.618 71.7306 160.561C71.4875 160.504 71.2592 160.398 71.0591 160.249C70.8594 160.099 70.6926 159.91 70.5696 159.692C70.4466 159.475 70.3695 159.235 70.3438 158.987L69.8952 152.71L69.1463 142.279L66.024 98.6867L65.9697 97.9631L71.9249 96.3459L72.8438 96.0998L72.9343 96.0745L82.5652 93.4587L99.9567 94.4283L106.469 95.5137L113.918 96.7366L113.936 96.7149Z" fill="#006580"/>
<path opacity="0.15" d="M110.586 121.885L109.707 128.532L109.642 131.741H75.4233V121.885H110.586Z" fill="black"/>
<path opacity="0.3" d="M111.23 117.001L110.586 121.885H75.4233V117.001H111.23Z" fill="black"/>
<path opacity="0.3" d="M109.642 131.751L109.541 136.639H75.4233V131.751H109.642Z" fill="black"/>
<path opacity="0.15" d="M70.235 157.59L108.35 156.62C108.422 156.3 108.433 155.968 108.383 155.644L69.8262 151.877L70.235 157.59Z" fill="black"/>
<path opacity="0.15" d="M109.367 146.889L109.729 128.553L111.65 113.571C111.655 113.525 111.649 113.479 111.635 113.436C111.621 113.392 111.598 113.352 111.567 113.318C111.536 113.284 111.499 113.257 111.457 113.238C111.415 113.219 111.37 113.209 111.324 113.209C111.248 113.209 111.173 113.236 111.114 113.284C111.056 113.334 111.016 113.402 111.002 113.477L108.083 128.564L107.721 146.899L108.386 155.731C108.422 156.245 108.356 156.761 108.191 157.25C108.027 157.738 107.769 158.19 107.43 158.578C107.091 158.966 106.679 159.284 106.217 159.513C105.756 159.742 105.254 159.878 104.74 159.913C101.606 160.13 102.732 160.163 106.393 159.913C106.909 159.877 107.412 159.74 107.875 159.509C108.338 159.278 108.75 158.958 109.088 158.567C109.426 158.175 109.684 157.721 109.846 157.23C110.008 156.74 110.072 156.221 110.033 155.705L109.367 146.889Z" fill="black"/>
<path d="M111.158 146.928L109.624 150.868L107.714 155.774L71.6752 153.039C71.0688 152.993 70.4686 152.885 69.8843 152.717C68.072 152.18 66.4548 151.129 65.2283 149.691C64.0019 148.253 63.2186 146.491 62.974 144.616L62.6375 142.236L58.1694 110.796C57.7678 106.324 60.474 101.349 66.0131 98.6939C66.3423 98.5347 66.6824 98.3828 67.0333 98.2417L71.9248 96.335L72.8438 96.089L78.5854 141.313L109.338 146.614L111.158 146.928Z" fill="#006580"/>
<path d="M78.5859 141.313L69.1358 142.272L62.7465 142.908L62.638 142.207L57.9346 112.33C57.4853 109.843 57.7744 107.278 58.7657 104.953C59.7573 102.628 61.4078 100.645 63.5135 99.2471C64.2903 98.7431 65.1054 98.3017 65.952 97.9265L71.9071 96.3093L72.8261 96.0633L72.9165 96.038L78.5859 141.313Z" fill="#006580"/>
<path d="M122.67 153.879H122.308L122.67 153.846V153.879Z" fill="black"/>
<path d="M109.15 146.66L113.893 147.293L124.023 146.393C124.902 146.412 125.74 146.772 126.36 147.395L132.605 152.97C132.794 153.142 132.91 153.381 132.928 153.636C132.947 153.891 132.866 154.144 132.702 154.341C132.541 154.541 132.307 154.67 132.052 154.701C131.797 154.732 131.54 154.662 131.335 154.508L125.423 150.166L129.265 154.707C129.367 154.825 129.437 154.967 129.472 155.119C129.507 155.271 129.504 155.429 129.465 155.58C129.426 155.731 129.35 155.87 129.246 155.986C129.141 156.101 129.01 156.19 128.864 156.244C128.694 156.305 128.512 156.319 128.335 156.284C128.159 156.249 127.995 156.166 127.862 156.045L122.72 151.002L126.628 154.848C126.735 154.952 126.814 155.081 126.858 155.224C126.902 155.367 126.91 155.518 126.88 155.664C126.85 155.81 126.783 155.947 126.687 156.061C126.591 156.175 126.467 156.263 126.328 156.317C126.187 156.377 126.033 156.399 125.881 156.382C125.728 156.365 125.583 156.309 125.459 156.219L119.971 152.203L123.676 154.942C123.776 155.014 123.859 155.109 123.915 155.22C123.972 155.33 124.002 155.453 124.002 155.577C124.002 155.701 123.972 155.823 123.915 155.933C123.859 156.044 123.776 156.139 123.676 156.212C123.567 156.292 123.439 156.342 123.305 156.359C123.17 156.376 123.034 156.359 122.909 156.309L117.945 154.24C117.706 154.139 117.448 154.089 117.189 154.094C116.93 154.1 116.674 154.161 116.44 154.272L114.526 155.209C113.383 155.749 111.791 155.633 110.087 155.633L106.197 155.662C106.906 153.006 109.15 146.66 109.15 146.66Z" fill="#FB9C9C"/>
<path opacity="0.15" d="M119.052 153.647C120.188 154.215 122.091 155.185 122.76 155.55C123.694 156.085 123.962 155.384 123.962 155.384C123.997 155.537 123.988 155.697 123.934 155.846C123.881 155.994 123.786 156.124 123.661 156.219C123.552 156.299 123.424 156.35 123.29 156.367C123.156 156.384 123.02 156.367 122.894 156.317L117.92 154.248C117.68 154.146 117.423 154.097 117.163 154.102C116.904 154.108 116.649 154.168 116.415 154.28L117.384 153.716C117.636 153.571 117.919 153.489 118.209 153.477C118.5 153.465 118.789 153.524 119.052 153.647Z" fill="black"/>
<g opacity="0.15">
<path opacity="0.15" d="M123.372 154.635C123.354 154.637 123.336 154.635 123.319 154.63C123.302 154.624 123.287 154.615 123.274 154.602L119.866 152.098C119.801 152.03 119.765 151.928 119.833 151.863C119.846 151.845 119.863 151.83 119.882 151.818C119.901 151.807 119.922 151.799 119.944 151.796C119.966 151.793 119.988 151.795 120.01 151.801C120.031 151.807 120.051 151.817 120.069 151.831L123.473 154.334C123.491 154.348 123.506 154.364 123.517 154.383C123.528 154.402 123.536 154.423 123.539 154.445C123.541 154.467 123.54 154.49 123.535 154.511C123.529 154.532 123.519 154.552 123.506 154.57C123.469 154.605 123.422 154.627 123.372 154.635Z" fill="black"/>
</g>
<g opacity="0.15">
<path opacity="0.15" d="M126.267 154.414C126.234 154.414 126.165 154.414 126.165 154.381L122.493 150.763C122.477 150.748 122.463 150.73 122.454 150.709C122.445 150.689 122.44 150.667 122.439 150.644C122.439 150.622 122.443 150.6 122.451 150.579C122.46 150.558 122.472 150.539 122.488 150.523C122.504 150.508 122.523 150.495 122.544 150.487C122.565 150.478 122.587 150.474 122.609 150.475C122.632 150.475 122.654 150.48 122.674 150.489C122.695 150.499 122.713 150.512 122.728 150.528L126.4 154.146C126.432 154.178 126.449 154.22 126.449 154.264C126.449 154.308 126.432 154.35 126.4 154.381C126.361 154.407 126.314 154.419 126.267 154.414Z" fill="black"/>
</g>
<path d="M154.54 253.296H136.834L136.715 250.604H154.54V253.296Z" fill="#006580"/>
<path opacity="0.15" d="M142.959 253.296H136.849L136.715 250.604H142.959V253.296Z" fill="black"/>
<path d="M209.244 248.661L192.507 254.45L191.516 251.943L208.364 246.118L209.244 248.661Z" fill="#006580"/>
<path opacity="0.15" d="M201.346 251.393L192.55 254.432L191.516 251.943L200.466 248.849L201.346 251.393Z" fill="black"/>
<path d="M101.002 78.9685L101.444 76.2587C101.714 74.6219 101.361 72.9432 100.452 71.5553L99.4609 70.043C98.5575 68.6595 97.1693 67.6642 95.5691 67.2525C93.9692 66.8408 92.2728 67.0423 90.814 67.818L90.3437 68.0677C89.4895 68.521 88.7449 69.1559 88.162 69.928C87.5795 70.6997 87.1733 71.5901 86.9717 72.5358C86.7615 73.1476 86.6139 73.7793 86.5304 74.4208L86.0636 77.297L85.5607 80.8354L83.5166 94.5438H100.579L100.09 84.5655C100.36 83.7446 100.531 82.8944 100.601 82.0329C100.724 80.9692 100.865 79.9309 101.002 78.9685Z" fill="#FA9B9B"/>
<path d="M108.776 68.9377C109.015 66.5437 107.155 64.3983 104.622 64.1461C102.089 63.8936 99.8415 65.6298 99.6031 68.0235C99.3647 70.4175 101.225 72.5629 103.758 72.8151C106.291 73.0676 108.538 71.3314 108.776 68.9377Z" fill="#21252B"/>
<path d="M104.559 66.2623C104.559 66.2623 107.572 88.4801 96.2845 88.8346C86.516 89.1602 86.9502 74.0264 86.9502 74.0264L88.3973 64.3267L104.559 66.2623Z" fill="#FA9B9B"/>
<path d="M103.39 56.7366C101.961 56.7366 100.442 56.7149 99.0922 56.7366C98.137 56.7366 97.2651 56.7366 96.5596 56.7691C95.1884 56.801 93.8559 57.2308 92.7246 58.0065C92.4424 58.2036 92.1139 58.3245 91.7712 58.3581C91.4283 58.3918 91.0827 58.3368 90.7673 58.1982C90.4091 58.0325 90.0292 57.9189 89.6385 57.8618C89.4467 57.8353 89.2535 57.8223 89.0596 57.822C88.132 57.8198 87.2311 58.1353 86.5071 58.7156C85.7835 59.2963 85.2799 60.1067 85.0799 61.013C85.0799 61.013 84.9424 61.9464 83.5929 62.6411C83.5314 62.6664 83.4735 62.699 83.4156 62.7279L83.2492 62.8039L83.1515 62.8509C81.3425 63.8314 80.1016 65.9479 80.1016 68.4045C80.1016 71.7945 82.4822 74.555 85.4236 74.555C86.1301 74.5546 86.8277 74.395 87.4641 74.0882L87.5075 74.5116C87.5234 74.6299 87.5802 74.7395 87.6681 74.8205C87.756 74.9019 87.8693 74.95 87.9887 74.9566H88.0068C88.0744 74.9627 88.1421 74.9544 88.2061 74.9323C88.2698 74.9102 88.3284 74.8744 88.3772 74.8278C88.4264 74.7814 88.4648 74.7246 88.4901 74.6621C88.5155 74.5995 88.527 74.5318 88.5241 74.4645L88.5603 73.3791L88.5965 72.2937C88.615 72.136 88.6895 71.9906 88.8063 71.8835C88.9232 71.7764 89.0748 71.7152 89.2333 71.7113H89.2731C89.5187 71.7123 89.7629 71.6744 89.9966 71.5991C90.4474 71.4537 90.8396 71.1682 91.1164 70.7843C91.3928 70.4001 91.5393 69.9377 91.5343 69.4645C91.5661 68.8751 91.8237 68.3205 92.2535 67.9164C92.6833 67.5119 93.2524 67.289 93.8425 67.2937L100.094 67.4638H100.5L103.756 67.5542C104.129 67.534 104.496 67.4493 104.841 67.3046C106.087 66.9428 107.16 66.1443 107.864 65.0546C108.568 63.9652 108.856 62.6584 108.674 61.3744C108.491 60.0901 107.852 58.9146 106.873 58.064C105.894 57.2134 104.641 56.7445 103.343 56.7438L103.39 56.7366Z" fill="#21252B"/>
<path opacity="0.15" d="M86.2158 78.0966C86.2158 78.0966 87.1384 78.263 87.663 77.9193L85.854 80.1914L86.2158 78.0966Z" fill="black"/>
<path d="M87.3299 72.3586C87.3299 72.3586 86.8197 70.253 84.5838 70.9693C82.0513 71.7978 82.0042 77.3441 86.0744 78.0786C88.1982 78.4693 87.8834 77.1777 87.7061 75.4664L87.3299 72.3586Z" fill="#FA9B9B"/>
<path opacity="0.3" d="M84.3347 72.3951C84.5124 72.2822 84.7106 72.2062 84.9183 72.1715C85.126 72.1368 85.3384 72.1436 85.5431 72.1925C85.7371 72.2634 85.9136 72.3748 86.0609 72.5199C86.2081 72.6646 86.3228 72.839 86.397 73.0318C86.6133 73.5138 86.6983 74.0441 86.643 74.5695V75.0398C86.6405 75.0727 86.631 75.1049 86.6155 75.1339C86.5999 75.1632 86.5789 75.1889 86.5529 75.2095C86.5272 75.2301 86.4975 75.2453 86.4657 75.254C86.4339 75.263 86.4006 75.2652 86.368 75.2605C86.3351 75.2583 86.3029 75.2493 86.2736 75.2344C86.2443 75.2193 86.2186 75.1986 86.1973 75.1733C86.1763 75.1476 86.1607 75.1183 86.1517 75.0868C86.1423 75.055 86.1397 75.0221 86.1437 74.9891V74.5224C86.1712 74.0854 86.1046 73.6473 85.9483 73.2381C85.9122 73.1002 85.8427 72.9736 85.7457 72.8694C85.6488 72.7652 85.5276 72.6867 85.3926 72.6407C85.258 72.5948 85.1137 72.5829 84.9733 72.6064C84.8329 72.6299 84.7005 72.6878 84.588 72.775C84.5258 72.8068 84.4534 72.8137 84.3861 72.7941C84.3192 72.7746 84.2617 72.7305 84.2262 72.67C84.1683 72.6302 84.219 72.4928 84.3347 72.3951Z" fill="black"/>
<path opacity="0.15" d="M100.148 91.0818L100.123 87.5832C99.0993 88.4552 96.3605 89.5333 93.3974 88.5167C91.9141 87.9867 90.6366 87.0015 89.7469 85.7019C89.7313 85.6759 89.7107 85.6534 89.6861 85.6357C89.6619 85.618 89.634 85.6057 89.6044 85.5992C89.5747 85.5927 89.5443 85.5923 89.5146 85.5981C89.485 85.6042 89.4571 85.6158 89.4321 85.6332C89.4061 85.6487 89.3833 85.6697 89.3659 85.6947C89.3482 85.7196 89.3355 85.7475 89.3294 85.7775C89.3229 85.8072 89.3225 85.8379 89.3283 85.868C89.3341 85.898 89.346 85.9262 89.3634 85.9516C90.523 87.6053 92.2585 88.7667 94.2295 89.2077C95.0403 89.9006 95.9821 90.4237 96.9987 90.7457C98.0154 91.0673 99.0866 91.1817 100.148 91.0818Z" fill="black"/>
<path opacity="0.3" d="M97.5467 84.4896C97.5467 84.5258 97.5069 84.5221 97.5467 84.4896L96.1791 84.4606C96.0999 84.4548 96.0257 84.4194 95.9718 84.3608C95.9179 84.3022 95.8886 84.2251 95.8897 84.1459C95.889 84.1054 95.8969 84.0648 95.9128 84.0276C95.9288 83.9903 95.9523 83.9567 95.982 83.9292C96.0116 83.9017 96.0467 83.8803 96.0851 83.8673C96.1234 83.8543 96.1643 83.8492 96.2045 83.8528L97.5358 83.8781C97.7167 83.8962 97.847 84.0156 97.8325 84.1567C97.8144 84.3738 97.6842 84.504 97.5467 84.4896Z" fill="black"/>
<path opacity="0.3" d="M97.08 82.4951C94.8956 82.3917 94.0283 83.6707 93.736 84.2778C93.7189 84.3092 93.7087 84.3441 93.7054 84.3796C93.7026 84.4151 93.707 84.4513 93.7186 84.4852C93.7299 84.5188 93.7485 84.5501 93.7726 84.5763C93.7967 84.6027 93.8259 84.6237 93.8583 84.638C93.8911 84.6525 93.9265 84.6599 93.9618 84.6599C93.9974 84.6599 94.0328 84.6525 94.0652 84.638C94.098 84.6234 94.1272 84.6024 94.1513 84.5759C94.1751 84.5495 94.1934 84.5185 94.205 84.4845C94.4652 83.8806 95.4192 82.5306 98.1015 83.1313C98.134 83.1384 98.1671 83.1394 98.1998 83.1336C98.2323 83.1278 98.2634 83.1155 98.2914 83.0977C98.3193 83.08 98.3434 83.0567 98.3624 83.0296C98.3813 83.0024 98.3948 82.9714 98.4019 82.9391C98.409 82.9068 98.4099 82.8733 98.4041 82.8403C98.3984 82.8077 98.3862 82.7764 98.3685 82.7483C98.3508 82.7202 98.3277 82.696 98.3007 82.6769C98.2737 82.6578 98.2432 82.6443 98.2108 82.6372C97.8397 82.5513 97.4607 82.5038 97.08 82.4951Z" fill="black"/>
<path d="M95.5496 76.5014C96.0453 76.5014 96.4469 76.0998 96.4469 75.6042C96.4469 75.1089 96.0453 74.7069 95.5496 74.7069C95.0539 74.7069 94.6523 75.1089 94.6523 75.6042C94.6523 76.0998 95.0539 76.5014 95.5496 76.5014Z" fill="#21252B"/>
<path d="M95.9729 75.5388C96.0727 75.5388 96.1538 75.4577 96.1538 75.3579C96.1538 75.258 96.0727 75.177 95.9729 75.177C95.8727 75.177 95.792 75.258 95.792 75.3579C95.792 75.4577 95.8727 75.5388 95.9729 75.5388Z" fill="white"/>
<path d="M102.616 77.2427C103.112 77.2427 103.513 76.8411 103.513 76.3455C103.513 75.8498 103.112 75.4482 102.616 75.4482C102.121 75.4482 101.719 75.8498 101.719 76.3455C101.719 76.8411 102.121 77.2427 102.616 77.2427Z" fill="#21252B"/>
<path d="M103.035 76.2807C103.135 76.2807 103.216 76.1997 103.216 76.0998C103.216 76 103.135 75.9189 103.035 75.9189C102.936 75.9189 102.854 76 102.854 76.0998C102.854 76.1997 102.936 76.2807 103.035 76.2807Z" fill="white"/>
<g opacity="0.3">
<path opacity="0.3" d="M99.0341 81.1432L97.8511 81.0998C97.7849 81.0904 97.7244 81.0568 97.6818 81.0054C97.6391 80.9544 97.6166 80.8889 97.6188 80.8223C97.621 80.7554 97.6477 80.6921 97.6941 80.6436C97.74 80.5955 97.8026 80.5662 97.8692 80.5608L99.0522 80.6078C99.1959 80.6128 99.3359 80.56 99.4412 80.4616C99.5464 80.3632 99.6079 80.2272 99.613 80.0832C99.6177 79.9392 99.5653 79.7995 99.4669 79.6942C99.3684 79.589 99.232 79.5275 99.0884 79.5224C99.02 79.5137 98.9567 79.4815 98.9093 79.4312C98.8619 79.3813 98.833 79.3162 98.8279 79.2474C98.8062 79.1027 98.9582 79.0086 99.1029 78.9869C99.3836 78.9974 99.6496 79.1161 99.8446 79.3187C100.04 79.5209 100.148 79.7912 100.148 80.0723C100.137 80.3603 100.015 80.6327 99.8069 80.8325C99.5993 81.0322 99.3221 81.1436 99.0341 81.1432Z" fill="black"/>
</g>
<path opacity="0.15" d="M76.0422 112.156L78.3939 120.333L81.0965 138.846L107.732 146.335L78.5857 141.317L74.9677 112.373C74.9514 112.236 74.9873 112.098 75.0683 111.986C75.1493 111.874 75.2694 111.797 75.4048 111.769C75.5401 111.742 75.6808 111.767 75.7991 111.838C75.9171 111.91 76.0039 112.024 76.0422 112.156Z" fill="black"/>
<path opacity="0.3" d="M109.149 146.661L106.197 155.662L100.854 155.243L104.164 145.337L109.149 146.661Z" fill="black"/>
<path d="M100.872 90.7692L83.125 89.6527C82.4709 89.6114 81.9072 90.1082 81.866 90.7623L81.7089 93.2612C81.6677 93.9153 82.1648 94.4786 82.8186 94.5199L100.566 95.6364C101.22 95.6776 101.783 95.1809 101.825 94.5268L101.982 92.0278C102.023 91.3737 101.526 90.8104 100.872 90.7692Z" fill="#006580"/>
<path d="M166.882 262.938H159.393C160.402 262.012 160.887 260.427 161.202 258.625L164.436 259.609C165.128 259.859 165.73 260.308 166.166 260.901C166.601 261.494 166.85 262.203 166.882 262.938Z" fill="#FB9C9C"/>
<path d="M226.527 263.097H219.038C220.047 262.17 220.532 260.586 220.847 258.784L224.081 259.768C224.773 260.017 225.375 260.467 225.811 261.06C226.246 261.653 226.496 262.362 226.527 263.097Z" fill="#FB9C9C"/>
<path opacity="0.15" d="M226.523 263.187C226.5 262.593 226.338 262.012 226.05 261.492C225.761 260.972 225.354 260.526 224.863 260.192C226.133 261.103 225.905 262.001 224.081 261.954C214.606 261.494 212.063 261.494 210.955 261.4C210.967 261.387 210.976 261.372 210.982 261.355C210.988 261.338 210.989 261.32 210.988 261.302C210.572 261.97 210.086 262.592 209.541 263.158H198.466C198.274 263.158 198.09 263.235 197.954 263.37C197.819 263.506 197.743 263.69 197.743 263.882C197.743 264.074 197.819 264.258 197.954 264.394C198.09 264.529 198.274 264.606 198.466 264.606H225.836C226.028 264.606 226.212 264.529 226.348 264.394C226.483 264.258 226.56 264.074 226.56 263.882V263.195H226.527L226.523 263.187Z" fill="black"/>
<path opacity="0.15" d="M166.849 262.934C166.828 262.339 166.667 261.758 166.378 261.237C166.09 260.717 165.682 260.272 165.188 259.939C166.458 260.851 166.23 261.748 164.407 261.697C154.932 261.241 152.83 261.241 151.744 261.144C151.758 261.131 151.768 261.116 151.775 261.099C151.781 261.082 151.783 261.064 151.78 261.046C151.363 261.712 150.878 262.334 150.333 262.902H139.526C139.335 262.902 139.15 262.978 139.015 263.114C138.879 263.25 138.803 263.433 138.803 263.626C138.803 263.817 138.879 264.001 139.015 264.137C139.15 264.273 139.335 264.349 139.526 264.349H166.165C166.357 264.349 166.542 264.273 166.677 264.137C166.813 264.001 166.889 263.817 166.889 263.626V262.942H166.856L166.849 262.934Z" fill="black"/>
<path opacity="0.15" d="M95.2856 94.8296H95.2675L81.74 93.9432C81.6641 93.9378 81.5932 93.9023 81.5429 93.8448C81.4929 93.7869 81.4672 93.712 81.4723 93.6357C81.4788 93.5597 81.5143 93.4888 81.5718 93.4385C81.629 93.3879 81.7035 93.3615 81.7798 93.3644L95.3073 94.2544C95.3453 94.2569 95.3822 94.2667 95.4162 94.2833C95.4506 94.3 95.481 94.3235 95.5056 94.3521C95.5306 94.3806 95.5497 94.4139 95.5617 94.4501C95.5736 94.4863 95.578 94.5243 95.5751 94.5619C95.5696 94.635 95.5367 94.703 95.4832 94.7529C95.4293 94.8025 95.3587 94.83 95.2856 94.8296Z" fill="black"/>
<path d="M119.136 154.949H147.934C148.05 154.952 148.159 154.999 148.241 155.08C148.323 155.162 148.37 155.272 148.372 155.387V156.834C148.37 156.95 148.324 157.06 148.242 157.142C148.16 157.223 148.05 157.27 147.934 157.272H119.136C119.021 157.269 118.911 157.222 118.829 157.141C118.748 157.059 118.701 156.949 118.698 156.834V155.387C118.697 155.329 118.708 155.272 118.729 155.218C118.751 155.165 118.783 155.116 118.824 155.075C118.865 155.034 118.913 155.002 118.967 154.98C119.021 154.959 119.078 154.948 119.136 154.949Z" fill="white"/>
<path d="M147.935 157.461H119.136C118.973 157.458 118.817 157.392 118.702 157.276C118.586 157.161 118.52 157.005 118.517 156.842V155.395C118.516 155.313 118.532 155.232 118.562 155.157C118.593 155.081 118.639 155.013 118.696 154.955C118.754 154.897 118.822 154.852 118.898 154.821C118.973 154.791 119.054 154.775 119.136 154.776H147.935C148.098 154.779 148.254 154.845 148.369 154.96C148.485 155.076 148.55 155.232 148.553 155.395V156.842C148.551 157.005 148.486 157.162 148.37 157.277C148.254 157.393 148.098 157.459 147.935 157.461ZM119.136 155.131C119.102 155.13 119.068 155.136 119.036 155.148C119.005 155.161 118.976 155.179 118.952 155.204C118.928 155.228 118.909 155.257 118.897 155.288C118.884 155.319 118.878 155.353 118.879 155.387V156.835C118.882 156.902 118.91 156.966 118.957 157.013C119.005 157.061 119.068 157.089 119.136 157.092H147.935C148.002 157.089 148.066 157.061 148.113 157.013C148.161 156.966 148.189 156.902 148.192 156.835V155.387C148.189 155.32 148.161 155.257 148.113 155.209C148.066 155.161 148.002 155.133 147.935 155.131H119.136Z" fill="black"/>
<path d="M119.125 154.949H147.924C148.039 154.952 148.149 154.999 148.23 155.08C148.312 155.162 148.359 155.272 148.361 155.387V156.834C148.36 156.95 148.313 157.06 148.231 157.142C148.149 157.223 148.039 157.27 147.924 157.272H119.125C119.009 157.269 118.9 157.222 118.818 157.141C118.737 157.059 118.69 156.949 118.687 156.834V155.387C118.686 155.329 118.697 155.272 118.719 155.218C118.74 155.165 118.772 155.116 118.813 155.075C118.854 155.034 118.903 155.002 118.956 154.98C119.01 154.959 119.067 154.948 119.125 154.949Z" fill="black"/>
<path d="M138.51 155.072H188.719C188.834 155.076 188.944 155.123 189.025 155.204C189.106 155.285 189.154 155.395 189.157 155.51V156.957C189.154 157.072 189.107 157.182 189.026 157.263C188.944 157.345 188.834 157.392 188.719 157.395H138.51C138.394 157.392 138.285 157.345 138.203 157.263C138.121 157.182 138.074 157.072 138.072 156.957V155.51C138.08 155.397 138.129 155.29 138.209 155.21C138.29 155.129 138.396 155.08 138.51 155.072Z" fill="#21252B"/>
<path d="M188.133 155.423H137.012C136.931 155.415 136.856 155.376 136.801 155.316C136.747 155.255 136.717 155.177 136.717 155.096C136.717 155.014 136.747 154.936 136.801 154.875C136.856 154.815 136.931 154.777 137.012 154.768H188.133C188.176 154.768 188.219 154.776 188.259 154.792C188.299 154.809 188.335 154.833 188.366 154.864C188.396 154.894 188.42 154.931 188.436 154.971C188.452 155.011 188.46 155.054 188.459 155.097C188.456 155.183 188.421 155.264 188.36 155.325C188.3 155.385 188.219 155.42 188.133 155.423Z" fill="black"/>
<path d="M138.444 154.949H146.006C146.289 154.95 146.565 154.851 146.784 154.67C147.002 154.489 147.151 154.237 147.203 153.958L153.542 120.633C153.578 120.457 153.574 120.274 153.531 120.099C153.487 119.924 153.405 119.762 153.29 119.623C153.175 119.484 153.03 119.372 152.867 119.297C152.703 119.221 152.525 119.183 152.344 119.186H144.779C144.496 119.187 144.221 119.286 144.002 119.467C143.784 119.648 143.635 119.899 143.582 120.177L137.247 153.506C137.213 153.682 137.219 153.863 137.263 154.037C137.308 154.21 137.391 154.372 137.505 154.51C137.619 154.648 137.763 154.759 137.925 154.835C138.088 154.911 138.265 154.95 138.444 154.949Z" fill="black"/>
<path d="M139.522 154.949H188.093C188.377 154.95 188.652 154.851 188.871 154.67C189.09 154.489 189.239 154.237 189.291 153.958L195.629 120.633C195.666 120.457 195.662 120.274 195.618 120.099C195.575 119.924 195.493 119.762 195.377 119.623C195.262 119.484 195.118 119.372 194.954 119.297C194.791 119.221 194.612 119.183 194.432 119.186H145.89C145.606 119.186 145.331 119.285 145.113 119.466C144.894 119.647 144.745 119.898 144.692 120.177L138.354 153.506C138.315 153.68 138.315 153.861 138.356 154.035C138.396 154.209 138.476 154.372 138.588 154.511C138.701 154.65 138.843 154.761 139.005 154.837C139.167 154.913 139.343 154.951 139.522 154.949Z" fill="#21252B"/>
<path opacity="0.6" d="M167.272 136.14C166.978 136.813 167.3 137.395 167.97 137.395H168.089C167.709 137.831 167.243 138.185 166.72 138.434C166.197 138.683 165.629 138.822 165.05 138.842C163.603 138.813 162.948 137.645 163.603 136.212C164.258 134.779 165.911 133.679 167.344 133.701C168.248 133.73 168.86 134.197 169.008 134.928C168.638 134.958 168.282 135.087 167.977 135.3C167.672 135.513 167.429 135.802 167.272 136.14Z" fill="black"/>
<path d="M213.578 157.403H105.799V162.048H213.578V157.403Z" fill="#B2B6BB"/>
<path d="M140.025 157.403H105.799V162.048H140.025V157.403Z" fill="#868A91"/>
<path d="M209.244 183.925H111.668V162.048H207.67L209.244 183.925Z" fill="#65676B"/>
<path d="M111.668 162.048L106.325 264.342H109.125L121.665 162.048H111.668Z" fill="#65676B"/>
<path d="M133.024 162.048L130.369 264.342H133.165L143.017 162.048H133.024Z" fill="#65676B"/>
<path d="M209.103 165.029H139.197V162.048H208.911L209.103 165.029Z" fill="#65676B"/>
<path d="M103.075 72.4059C102.676 72.3842 102.278 72.4417 101.901 72.5745C101.525 72.7073 101.179 72.9131 100.882 73.1801C100.235 73.7713 99.8044 74.5622 99.6593 75.4269C99.4885 75.3357 99.2997 75.2836 99.1061 75.2749C98.9129 75.2662 98.7197 75.301 98.5413 75.3762C98.4256 73.5383 97.1521 72.0368 95.5095 71.9247C95.1112 71.9026 94.7121 71.9594 94.3358 72.0926C93.9596 72.2253 93.6133 72.4316 93.317 72.6989C92.7324 73.2282 92.3232 73.924 92.1448 74.6924L91.385 74.526C91.3474 74.5159 91.3083 74.5137 91.2696 74.5191C91.2313 74.5249 91.194 74.5379 91.1607 74.5582C91.1275 74.5785 91.0985 74.6052 91.0757 74.6367C91.0529 74.6685 91.037 74.7044 91.0283 74.7423C91.02 74.7803 91.0193 74.8198 91.0261 74.8581C91.0334 74.8965 91.0479 74.933 91.0696 74.9652C91.0909 74.9978 91.1188 75.0256 91.1513 75.0473C91.1839 75.0687 91.2204 75.0835 91.2584 75.0904L92.0471 75.264C92.0471 75.3292 92.0471 75.3943 92.029 75.4594C91.906 77.5289 93.27 79.3089 95.0645 79.4392H95.2563C95.9961 79.4334 96.7078 79.1566 97.257 78.6613C97.999 77.9786 98.4541 77.0401 98.5305 76.0347C98.6839 75.9106 98.8782 75.8484 99.075 75.8603C99.2722 75.8726 99.4574 75.958 99.5942 76.0998C99.5471 78.1005 100.882 79.7973 102.633 79.9167H102.825C103.564 79.9109 104.275 79.6327 104.822 79.1353C105.601 78.424 106.066 77.4323 106.114 76.3784C106.233 74.3089 104.869 72.5289 103.075 72.4059ZM96.8735 78.2235C96.6354 78.4406 96.3561 78.6081 96.0522 78.7163C95.7487 78.8245 95.4263 78.8708 95.1043 78.8531C93.6246 78.7518 92.503 77.2467 92.6043 75.4956C92.6043 75.3798 92.626 75.2677 92.6405 75.1555C92.6495 75.1381 92.6568 75.1201 92.6622 75.1012C92.6658 75.0795 92.6658 75.0578 92.6622 75.0361C92.7845 74.3038 93.1488 73.6338 93.6969 73.1331C94.1401 72.7304 94.7154 72.5039 95.3141 72.4963H95.4661C96.9458 72.594 98.0674 74.1027 97.9625 75.8538C97.9281 76.7568 97.5366 77.6092 96.8735 78.2235ZM105.535 76.3386C105.5 77.2376 105.11 78.086 104.449 78.6975C104.211 78.916 103.932 79.0846 103.627 79.1935C103.323 79.302 103 79.3487 102.677 79.3306C101.197 79.2293 100.079 77.7242 100.18 75.9732C100.216 75.073 100.606 74.2239 101.266 73.6106C101.504 73.3925 101.784 73.2246 102.088 73.1164C102.393 73.0083 102.716 72.9623 103.038 72.9811C104.518 73.0824 105.643 74.5911 105.535 76.3386Z" fill="#006580"/>
<path d="M103.802 68.0174H102.652C102.621 68.0166 102.591 68.0101 102.564 67.9982C102.535 67.9862 102.51 67.9689 102.489 67.9468C102.468 67.9251 102.451 67.8991 102.44 67.8708C102.429 67.8426 102.423 67.8126 102.424 67.7822C102.424 67.6375 102.522 67.5398 102.663 67.5543H103.813C103.958 67.5626 104.104 67.5528 104.247 67.5253C104.73 67.419 105.196 67.2475 105.633 67.0152C105.66 67.0007 105.691 66.9924 105.721 66.9899C105.752 66.9877 105.783 66.9913 105.812 67.0011C105.842 67.0109 105.869 67.0264 105.892 67.047C105.915 67.0673 105.934 67.0922 105.948 67.1201C105.962 67.1472 105.97 67.1769 105.973 67.2077C105.975 67.2381 105.971 67.2688 105.962 67.2977C105.951 67.3271 105.936 67.3538 105.916 67.3766C105.895 67.3994 105.87 67.4179 105.843 67.4313C105.373 67.6842 104.868 67.8647 104.345 67.9667L103.802 68.0174Z" fill="#FA9B9B"/>
<path d="M98.383 85.8752C98.366 85.8257 98.3385 85.7801 98.3023 85.7421C98.2657 85.7037 98.222 85.6741 98.1728 85.6549C98.1239 85.6357 98.0715 85.6274 98.019 85.6303C97.9665 85.6336 97.9155 85.648 97.8692 85.6726C97.4087 85.9121 96.8808 85.9888 96.3714 85.8897C96.1185 85.8466 95.8743 85.7634 95.6478 85.6437C95.6066 85.6198 95.5613 85.6039 95.5139 85.5974C95.4669 85.5909 95.4188 85.5938 95.3728 85.6061C95.3269 85.618 95.2835 85.6393 95.2455 85.6679C95.2079 85.6969 95.176 85.7331 95.1521 85.7739C94.6746 86.5663 93.922 87.4563 92.862 87.6806C92.7737 87.6962 92.6923 87.7381 92.6286 87.8007C92.5646 87.8637 92.5215 87.9443 92.5045 88.0323C92.4875 88.1202 92.498 88.211 92.5338 88.2931C92.57 88.3749 92.6301 88.444 92.7064 88.491C94.0885 89.3304 96.6102 90.2023 99.5986 88.2269C99.6569 88.1871 99.7053 88.1343 99.7393 88.0721C99.773 88.0098 99.7918 87.9407 99.7936 87.8698C99.7954 87.7993 99.7802 87.7291 99.7495 87.6654C99.7187 87.6014 99.6731 87.546 99.6167 87.5033C99.0458 87.1024 98.6145 86.5333 98.383 85.8752Z" fill="#21252B"/>
<path d="M31.8847 242.862C31.8558 242.613 28.6937 217.634 21.5591 204.107L21.7436 204.013C28.8927 217.569 32.0584 242.587 32.0909 242.837L31.8847 242.862Z" fill="#868A91"/>
<path d="M32.9883 233.872C32.243 220.018 37.1091 199.863 37.1561 199.667L37.3587 199.718C37.3081 199.921 32.4528 220.037 33.1945 233.861L32.9883 233.872Z" fill="#868A91"/>
<path d="M10.4087 190.912C22.2539 191.715 22.3045 205.264 22.3045 205.264C9.40654 202.855 10.3617 190.962 10.4087 190.912Z" fill="#006580"/>
<path d="M67.8692 193.119C53.8677 189.508 50.6514 202.352 50.6514 202.352C65.21 202.605 67.8692 193.119 67.8692 193.119Z" fill="#006580"/>
<path d="M40.9701 190.962C31.2849 196.733 35.4564 207.67 35.4564 207.67C45.2248 201.7 41.0207 190.962 40.9701 190.962Z" fill="#006580"/>
<path d="M37.8619 242.851H37.6557C37.6032 232.518 39.8073 222.298 44.1137 212.905C47.3084 206.063 50.5464 202.322 50.579 202.286L50.7346 202.42C50.702 202.456 47.4784 206.183 44.2982 212.999C40.0048 222.362 37.8084 232.55 37.8619 242.851Z" fill="#868A91"/>
<path d="M33.5925 242.854C32.0875 216.765 30.9261 212.254 28.6142 203.267C28.3791 202.355 28.1331 201.4 27.8726 200.372L28.0752 200.325C28.332 201.353 28.5781 202.308 28.7988 203.22C31.1142 212.225 32.2756 216.74 33.7843 242.851L33.5925 242.854Z" fill="#868A91"/>
<path d="M40.6656 242.356C39.0737 222.743 43.6287 208.897 47.7278 200.749C52.5252 191.209 58.4731 185.807 61.3024 184.505L61.3892 184.693C58.5853 185.985 52.6844 191.346 47.9124 200.843C43.8241 208.977 39.2836 222.783 40.8718 242.352L40.6656 242.356Z" fill="#868A91"/>
<path d="M42.8761 242.402C42.3298 237.851 42.3616 233.248 42.9702 228.704C43.9072 221.968 46.722 213.024 54.8225 208.676L54.9202 208.856C46.8956 213.162 44.1062 222.04 43.1728 228.726C42.5686 233.253 42.5367 237.838 43.0787 242.373L42.8761 242.402Z" fill="#868A91"/>
<path d="M31.3892 239.07C31.3892 239.027 29.9927 235.043 25.7524 231.74L25.8791 231.577C30.17 234.92 31.5701 238.962 31.5846 239.001L31.3892 239.07Z" fill="#868A91"/>
<path d="M29.964 231.285C29.8735 231.209 21.0964 223.506 16.7549 222.24L16.8128 222.044C21.2013 223.339 30.011 231.089 30.0979 231.147L29.964 231.285Z" fill="#868A91"/>
<path d="M65.0576 205.011C51.2588 201.9 47.7964 215.141 47.7964 215.141C62.7493 216.303 65.1227 205.011 65.0576 205.011Z" fill="#006580"/>
<path opacity="0.4" d="M65.0576 205.011C51.2588 201.9 47.7964 215.141 47.7964 215.141C62.7493 216.303 65.1227 205.011 65.0576 205.011Z" fill="white"/>
<path d="M55.7741 222.424C43.1801 219.313 40.7705 228.698 40.7705 228.698C51.6099 231.809 55.7162 222.424 55.7741 222.424Z" fill="#006580"/>
<path d="M15.6298 206.068C31.035 207.877 32.1892 222.627 32.1892 222.627C14.8773 220.467 15.6298 206.017 15.6298 206.068Z" fill="#006580"/>
<path d="M36.3025 242.851C36.2012 232.333 35.6042 178.111 35.6006 177.565H35.8177C35.8177 178.111 36.4219 232.333 36.5232 242.851H36.3025Z" fill="#868A91"/>
<path d="M46.5915 204.812C46.5915 219.363 33.4438 218.661 33.4438 218.661C33.8454 204.964 46.5915 204.812 46.5915 204.812Z" fill="#006580"/>
<path opacity="0.4" d="M46.5915 204.812C46.5915 219.363 33.4438 218.661 33.4438 218.661C33.8454 204.964 46.5915 204.812 46.5915 204.812Z" fill="white"/>
<path d="M6.09619 216.856C17.4348 214.295 20.9985 224.331 20.9985 224.331C8.00285 225.286 6.15046 216.856 6.09619 216.856Z" fill="#006580"/>
<path opacity="0.4" d="M6.09619 216.856C17.4348 214.295 20.9985 224.331 20.9985 224.331C8.00285 225.286 6.15046 216.856 6.09619 216.856Z" fill="white"/>
<path d="M26.2158 245.51H49.5009V242.597H26.2158V245.51Z" fill="#868A91"/>
<path d="M27.9229 245.51H47.8939L46.5915 264.627H29.2253L27.9229 245.51Z" fill="#868A91"/>
<path d="M27.9229 245.51H47.8939L46.5915 264.627H29.2253L27.9229 245.51Z" fill="#868A91"/>
<path d="M26.2661 245.51H27.9231L29.2292 264.627H33.4441L33.4948 246.313H47.7965L47.8942 245.51H30.0288V242.597H26.2661V245.51Z" fill="#61656D"/>
<path d="M33.9437 169.786C42.3265 179.117 35.901 188.853 35.901 188.853C28.3757 179.269 33.9437 169.786 33.9437 169.786Z" fill="#006580"/>
<path opacity="0.4" d="M33.9437 169.786C42.3265 179.117 35.901 188.853 35.901 188.853C28.3757 179.269 33.9437 169.786 33.9437 169.786Z" fill="white"/>
<path d="M24.4609 184.038C37.1056 193.321 30.0325 208.426 30.0325 208.426C15.7815 197.685 24.5116 184.038 24.4609 184.038Z" fill="#006580"/>
<path opacity="0.4" d="M24.4609 184.038C37.1056 193.321 30.0325 208.426 30.0325 208.426C15.7815 197.685 24.5116 184.038 24.4609 184.038Z" fill="white"/>
<path d="M17.6377 229.049C26.6174 227.645 28.3251 234.219 28.3251 234.219C19.0921 235.724 17.6377 229.049 17.6377 229.049Z" fill="#006580"/>
<path d="M30.9335 223.028C42.5761 224.533 40.6188 237.279 40.6188 237.279C28.173 234.081 30.9335 223.028 30.9335 223.028Z" fill="#006580"/>
<path opacity="0.4" d="M30.9335 223.028C42.5761 224.533 40.6188 237.279 40.6188 237.279C28.173 234.081 30.9335 223.028 30.9335 223.028Z" fill="white"/>
<path d="M56.1255 188.705C57.4822 181.979 64.5046 182.681 64.5046 182.681C62.5003 189.458 56.1255 188.654 56.1255 188.705Z" fill="#006580"/>
<path opacity="0.3" d="M56.1255 188.705C57.4822 181.979 64.5046 182.681 64.5046 182.681C62.5003 189.458 56.1255 188.654 56.1255 188.705Z" fill="white"/>
<path d="M47.5945 200.948C56.1256 191.064 47.3955 181.983 47.3955 181.983C39.0127 191.263 47.5945 200.948 47.5945 200.948Z" fill="#006580"/>
<path opacity="0.4" d="M47.5945 200.948C56.1256 191.064 47.3955 181.983 47.3955 181.983C39.0127 191.263 47.5945 200.948 47.5945 200.948Z" fill="white"/>
<path opacity="0.05" d="M73.8316 150.734C73.2253 150.688 72.625 150.58 72.0407 150.412C70.2274 149.876 68.6084 148.826 67.3805 147.388C66.1525 145.95 65.3685 144.187 65.1232 142.312L64.7868 139.931L60.0834 110.054C59.7643 108.251 59.8276 106.402 60.2698 104.626C60.7115 102.85 61.5219 101.186 62.6486 99.7428C60.807 101.199 59.3953 103.128 58.5639 105.324C57.7325 107.52 57.5125 109.899 57.9271 112.21L62.6305 142.087L62.9669 144.468C63.2115 146.342 63.9948 148.105 65.2213 149.543C66.4478 150.98 68.065 152.031 69.8772 152.568C70.4615 152.737 71.0617 152.844 71.6681 152.89L107.714 155.629L108.589 153.379L73.8316 150.734Z" fill="black"/>
<path d="M42.851 102.594H9.7251V144.783H42.851V102.594Z" fill="#E0E0E0"/>
<path d="M38.4296 106.838H14.146V140.539H38.4296V106.838Z" fill="white"/>
<path d="M8.78027 144.772H9.73541V102.583H8.78027V144.772Z" fill="#C1C1C1"/>
<path d="M31.4182 122.348C31.4189 121.305 31.11 120.284 30.5307 119.416C29.9519 118.548 29.1281 117.872 28.1642 117.472C27.2004 117.072 26.1396 116.967 25.1161 117.17C24.093 117.373 23.1527 117.876 22.4146 118.613C21.6765 119.351 21.1736 120.291 20.9699 121.314C20.7659 122.337 20.8701 123.398 21.2695 124.362C21.6686 125.326 22.3448 126.15 23.212 126.73C24.0796 127.31 25.0998 127.619 26.1432 127.619C27.5416 127.619 28.8828 127.064 29.8719 126.076C30.861 125.087 31.4171 123.746 31.4182 122.348Z" fill="#006580"/>
<path opacity="0.2" d="M36.4147 119.479L31.1506 111.32L25.8647 119.576L36.4147 119.479Z" fill="black"/>
<path opacity="0.2" d="M25.8651 125.224H16.6899V134.395H25.8651V125.224Z" fill="black"/>
<path d="M322.84 176.943C319.78 179.252 320.098 181.079 320.134 181.126C320.17 181.173 324.635 181.932 327.696 179.621C330.757 177.309 332.33 174.244 331.216 172.746C330.102 171.249 325.898 174.635 322.84 176.943Z" fill="#606060"/>
<path d="M312.257 172.298C314.385 173.904 314.739 177.034 314.703 177.067C314.667 177.099 311.573 177.627 309.446 176.025C307.319 174.422 306.881 172.993 307.659 171.965C308.437 170.938 310.134 170.692 312.257 172.298Z" fill="#606060"/>
<path d="M324.121 166.17C324.993 161.627 324.038 157.625 321.983 157.229C319.928 156.834 317.554 160.196 316.679 164.738C315.807 169.281 316.762 173.284 318.817 173.679C320.872 174.074 323.245 170.712 324.121 166.17Z" fill="#606060"/>
<path d="M320.379 163.137L316.667 188.101H316.606C316.689 187.298 316.856 186.506 317.102 185.738C317.604 184.2 318.397 182.772 319.439 181.534C319.971 180.926 320.546 180.359 321.161 179.838C321.562 179.523 321.986 179.233 322.398 178.937L323.726 178.177L324.54 177.815C324.808 177.688 325.083 177.576 325.361 177.479L327.047 176.918V176.958L325.365 177.529C325.086 177.625 324.811 177.738 324.544 177.866L323.733 178.228L322.409 178.987C322 179.284 321.581 179.573 321.179 179.888C320.568 180.408 319.996 180.974 319.471 181.581C318.954 182.194 318.498 182.857 318.111 183.56C317.724 184.261 317.402 184.998 317.152 185.76C316.906 186.523 316.743 187.31 316.664 188.108V188.134H316.562V188.097L320.365 163.101L320.379 163.137ZM320.379 163.181L316.653 188.097L316.624 188.061H316.66L316.628 188.086C316.711 187.285 316.877 186.494 317.123 185.728C317.626 184.193 318.418 182.768 319.457 181.531C319.985 180.922 320.557 180.355 321.172 179.834C321.573 179.523 321.993 179.23 322.405 178.933L323.733 178.173L324.547 177.812C324.815 177.682 325.09 177.569 325.369 177.475L327.055 176.907V176.947L325.369 177.511C325.09 177.606 324.815 177.717 324.547 177.844L323.733 178.206L322.405 178.966C321.993 179.259 321.573 179.548 321.172 179.863C320.557 180.381 319.981 180.947 319.453 181.556C318.932 182.169 318.473 182.832 318.082 183.535C317.691 184.238 317.366 184.977 317.112 185.742C316.866 186.509 316.7 187.3 316.617 188.101H316.649L320.39 163.137L320.379 163.181Z" fill="black"/>
<path d="M316.66 188.047C316.928 186.616 317.015 185.157 316.917 183.705C316.87 182.238 316.574 180.79 316.034 179.425C315.506 178.055 314.652 176.833 313.553 175.861C312.438 174.908 311.139 174.191 309.739 173.756V173.712C311.15 174.144 312.456 174.856 313.585 175.807C314.703 176.78 315.571 178.007 316.118 179.385C316.65 180.76 316.939 182.217 316.971 183.691C316.997 184.424 316.979 185.158 316.917 185.89C316.892 186.252 316.859 186.614 316.823 186.976L316.765 187.526L316.736 187.797C316.722 187.883 316.697 187.967 316.66 188.047ZM316.66 188.126C316.646 188.022 316.646 187.916 316.66 187.812L316.689 187.54L316.751 186.994C316.787 186.632 316.82 186.27 316.848 185.908C316.91 185.178 316.928 184.445 316.906 183.712C316.877 182.248 316.595 180.8 316.071 179.432C315.539 178.064 314.685 176.843 313.581 175.872C312.464 174.923 311.165 174.21 309.761 173.778V173.734C311.165 174.175 312.467 174.897 313.581 175.858C314.685 176.834 315.535 178.063 316.063 179.44C316.599 180.808 316.892 182.258 316.935 183.727C317.033 185.189 316.939 186.658 316.66 188.097V188.126Z" fill="black"/>
<path d="M332.996 201.628H301.809C301.548 201.628 301.302 201.525 301.118 201.342C300.933 201.159 300.832 200.91 300.832 200.651C300.832 200.392 300.933 200.144 301.118 199.961C301.302 199.778 301.548 199.674 301.809 199.674H332.996C333.256 199.674 333.502 199.778 333.687 199.961C333.867 200.144 333.972 200.392 333.972 200.651C333.972 200.91 333.867 201.159 333.687 201.342C333.502 201.525 333.256 201.628 332.996 201.628Z" fill="#61656D"/>
<path d="M331.693 201.628L336.867 265.232H335.854L328.075 201.628H331.693Z" fill="#61656D"/>
<path d="M302.93 201.628L297.757 265.232H298.806L306.548 201.628H302.93Z" fill="#61656D"/>
<path d="M302.931 201.628L302.786 202.859H304.559L298.336 265.232H298.806L306.549 201.628H302.931Z" fill="#3F4249"/>
<path d="M333.104 226.013H332.2L328.075 201.628H331.693L336.867 265.232H336.36L333.104 226.013Z" fill="#3F4249"/>
<path d="M315.087 201.628L315.919 265.232H316.968L318.705 201.628H315.087Z" fill="#3F4249"/>
<path d="M326.483 183.792H309.696V185.89H326.483V183.792Z" fill="#006580"/>
<path d="M324.313 199.675H311.795L310.854 185.89H325.253L324.313 199.675Z" fill="#868A91"/>
<path d="M324.313 199.675H311.795L310.854 185.89H325.253L324.313 199.675Z" fill="#006580"/>
<path opacity="0.2" d="M326.447 183.792H323.734V185.89H310.854L310.926 186.469H321.238L321.274 199.674H324.313L325.253 185.89H326.447V183.792Z" fill="black"/>
<path d="M170.286 99.3126H169.562V92.0839C169.562 90.8365 170.058 89.64 170.94 88.758C171.822 87.8759 173.018 87.3806 174.265 87.3806H215.036V88.1042H174.265C173.21 88.1042 172.198 88.5232 171.451 89.2695C170.705 90.0159 170.286 91.0282 170.286 92.0839V99.3126Z" fill="#006580"/>
<path d="M170.286 114.689H169.562V107.54C169.562 106.484 169.143 105.472 168.397 104.725C167.65 103.979 166.638 103.56 165.583 103.56H162.916C161.669 103.56 160.472 103.064 159.59 102.182C158.708 101.3 158.213 100.104 158.213 98.8568V87.7424H158.936V98.8459C158.936 99.9013 159.356 100.914 160.102 101.66C160.849 102.406 161.861 102.826 162.916 102.826H165.583C166.83 102.826 168.026 103.321 168.908 104.203C169.79 105.085 170.286 106.282 170.286 107.529V114.689Z" fill="#006580"/>
<path d="M175.832 88.1042H175.076V87.3807H175.832C176.888 87.3807 177.9 86.9613 178.646 86.2153C179.393 85.4689 179.812 84.4566 179.812 83.4009V79.707C179.814 77.7732 180.583 75.9194 181.951 74.5518C183.318 73.1842 185.172 72.4154 187.106 72.4132H195.622V73.1368H187.088C185.349 73.1448 183.684 73.8398 182.457 75.071C181.229 76.3018 180.539 77.9686 180.536 79.707V83.4009C180.536 84.6484 180.04 85.8448 179.158 86.7269C178.276 87.609 177.08 88.1042 175.832 88.1042Z" fill="#006580"/>
<path d="M195.604 73.8708C196.209 73.8708 196.7 73.3802 196.7 72.7746C196.7 72.1693 196.209 71.6783 195.604 71.6783C194.998 71.6783 194.507 72.1693 194.507 72.7746C194.507 73.3802 194.998 73.8708 195.604 73.8708Z" fill="#006580"/>
<path d="M158.574 88.8351C159.18 88.8351 159.671 88.3445 159.671 87.7388C159.671 87.1335 159.18 86.6426 158.574 86.6426C157.969 86.6426 157.478 87.1335 157.478 87.7388C157.478 88.3445 157.969 88.8351 158.574 88.8351Z" fill="#006580"/>
<path d="M169.982 116.375C170.588 116.375 171.079 115.884 171.079 115.279C171.079 114.673 170.588 114.182 169.982 114.182C169.377 114.182 168.886 114.673 168.886 115.279C168.886 115.884 169.377 116.375 169.982 116.375Z" fill="#006580"/>
<path d="M289.573 61.1071H214.786C213.673 61.1071 212.771 62.0094 212.771 63.1223V113.386C212.771 114.5 213.673 115.402 214.786 115.402H289.573C290.686 115.402 291.588 114.5 291.588 113.386V63.1223C291.588 62.0094 290.686 61.1071 289.573 61.1071Z" fill="#006580"/>
<path opacity="0.6" d="M289.573 61.1071H214.786C213.673 61.1071 212.771 62.0094 212.771 63.1223V113.386C212.771 114.5 213.673 115.402 214.786 115.402H289.573C290.686 115.402 291.588 114.5 291.588 113.386V63.1223C291.588 62.0094 290.686 61.1071 289.573 61.1071Z" fill="white"/>
<path d="M288.079 61.1071H289.573C290.107 61.1071 290.62 61.3194 290.998 61.6975C291.376 62.0752 291.588 62.5879 291.588 63.1223V65.0506H288.082V61.1071H288.079Z" fill="#006580"/>
<path opacity="0.2" d="M288.079 61.1071H289.573C290.107 61.1071 290.62 61.3194 290.998 61.6975C291.376 62.0752 291.588 62.5879 291.588 63.1223V65.0506H288.082V61.1071H288.079Z" fill="white"/>
<path d="M288.684 61.1071H213.897C212.784 61.1071 211.882 62.0094 211.882 63.1223V113.386C211.882 114.5 212.784 115.402 213.897 115.402H288.684C289.796 115.402 290.699 114.5 290.699 113.386V63.1223C290.699 62.0094 289.796 61.1071 288.684 61.1071Z" fill="#006580"/>
<path opacity="0.9" d="M288.684 61.1071H213.897C212.784 61.1071 211.882 62.0094 211.882 63.1223V113.386C211.882 114.5 212.784 115.402 213.897 115.402H288.684C289.796 115.402 290.699 114.5 290.699 113.386V63.1223C290.699 62.0094 289.796 61.1071 288.684 61.1071Z" fill="white"/>
<path d="M213.897 61.1071H236.071V115.412H213.897C213.362 115.412 212.85 115.2 212.472 114.822C212.094 114.444 211.882 113.932 211.882 113.397V63.1259C211.881 62.861 211.933 62.5987 212.034 62.3538C212.135 62.1089 212.283 61.8864 212.471 61.6986C212.658 61.5112 212.88 61.3625 213.125 61.2608C213.37 61.1595 213.632 61.1071 213.897 61.1071Z" fill="#006580"/>
<path opacity="0.7" d="M213.897 61.1071H236.071V115.412H213.897C213.362 115.412 212.85 115.2 212.472 114.822C212.094 114.444 211.882 113.932 211.882 113.397V63.1259C211.881 62.861 211.933 62.5987 212.034 62.3538C212.135 62.1089 212.283 61.8864 212.471 61.6986C212.658 61.5112 212.88 61.3625 213.125 61.2608C213.37 61.1595 213.632 61.1071 213.897 61.1071Z" fill="white"/>
<path d="M290.699 65.0506V63.1259C290.699 62.861 290.646 62.5984 290.545 62.3534C290.443 62.1085 290.295 61.886 290.107 61.6986C289.92 61.5112 289.697 61.3625 289.452 61.2608C289.207 61.1595 288.945 61.1071 288.68 61.1071H213.897C213.632 61.1071 213.37 61.1595 213.125 61.2608C212.88 61.3625 212.658 61.5112 212.471 61.6986C212.283 61.8864 212.135 62.1089 212.034 62.3538C211.933 62.5987 211.881 62.861 211.882 63.1259V65.0506H290.699Z" fill="#006580"/>
<path d="M222.04 85.7703C222.678 85.7703 223.195 85.2536 223.195 84.6162C223.195 83.979 222.678 83.462 222.04 83.462C221.403 83.462 220.886 83.979 220.886 84.6162C220.886 85.2536 221.403 85.7703 222.04 85.7703Z" fill="white"/>
<path d="M231.555 84.1313H224.757C224.597 84.1313 224.468 84.2609 224.468 84.4208V84.8296C224.468 84.9895 224.597 85.1191 224.757 85.1191H231.555C231.715 85.1191 231.845 84.9895 231.845 84.8296V84.4208C231.845 84.2609 231.715 84.1313 231.555 84.1313Z" fill="#006580"/>
<path opacity="0.3" d="M231.555 84.1313H224.757C224.597 84.1313 224.468 84.2609 224.468 84.4208V84.8296C224.468 84.9895 224.597 85.1191 224.757 85.1191H231.555C231.715 85.1191 231.845 84.9895 231.845 84.8296V84.4208C231.845 84.2609 231.715 84.1313 231.555 84.1313Z" fill="white"/>
<path d="M222.04 90.0507C222.678 90.0507 223.195 89.5337 223.195 88.8966C223.195 88.2591 222.678 87.7424 222.04 87.7424C221.403 87.7424 220.886 88.2591 220.886 88.8966C220.886 89.5337 221.403 90.0507 222.04 90.0507Z" fill="white"/>
<path d="M231.555 88.4114H224.757C224.597 88.4114 224.468 88.5409 224.468 88.7008V89.1097C224.468 89.2696 224.597 89.3991 224.757 89.3991H231.555C231.715 89.3991 231.845 89.2696 231.845 89.1097V88.7008C231.845 88.5409 231.715 88.4114 231.555 88.4114Z" fill="#006580"/>
<path opacity="0.3" d="M231.555 88.4114H224.757C224.597 88.4114 224.468 88.5409 224.468 88.7008V89.1097C224.468 89.2696 224.597 89.3991 224.757 89.3991H231.555C231.715 89.3991 231.845 89.2696 231.845 89.1097V88.7008C231.845 88.5409 231.715 88.4114 231.555 88.4114Z" fill="white"/>
<path d="M217.28 74.3777C218.229 74.3777 218.998 73.6082 218.998 72.6592C218.998 71.7102 218.229 70.9407 217.28 70.9407C216.33 70.9407 215.561 71.7102 215.561 72.6592C215.561 73.6082 216.33 74.3777 217.28 74.3777Z" fill="#006580"/>
<path d="M217.28 81.013C218.229 81.013 218.998 80.2434 218.998 79.2945C218.998 78.3455 218.229 77.5759 217.28 77.5759C216.33 77.5759 215.561 78.3455 215.561 79.2945C215.561 80.2434 216.33 81.013 217.28 81.013Z" fill="#006580"/>
<path d="M217.28 96.5308C218.229 96.5308 218.998 95.7613 218.998 94.8123C218.998 93.8629 218.229 93.0938 217.28 93.0938C216.33 93.0938 215.561 93.8629 215.561 94.8123C215.561 95.7613 216.33 96.5308 217.28 96.5308Z" fill="#006580"/>
<path d="M222.04 101.284C222.678 101.284 223.195 100.768 223.195 100.13C223.195 99.4931 222.678 98.9761 222.04 98.9761C221.403 98.9761 220.886 99.4931 220.886 100.13C220.886 100.768 221.403 101.284 222.04 101.284Z" fill="white"/>
<path d="M231.555 99.649H224.757C224.597 99.649 224.468 99.7786 224.468 99.9385V100.347C224.468 100.507 224.597 100.637 224.757 100.637H231.555C231.715 100.637 231.845 100.507 231.845 100.347V99.9385C231.845 99.7786 231.715 99.649 231.555 99.649Z" fill="#006580"/>
<path opacity="0.3" d="M231.555 99.649H224.757C224.597 99.649 224.468 99.7786 224.468 99.9385V100.347C224.468 100.507 224.597 100.637 224.757 100.637H231.555C231.715 100.637 231.845 100.507 231.845 100.347V99.9385C231.845 99.7786 231.715 99.649 231.555 99.649Z" fill="white"/>
<path d="M222.04 105.568C222.678 105.568 223.195 105.051 223.195 104.414C223.195 103.776 222.678 103.26 222.04 103.26C221.403 103.26 220.886 103.776 220.886 104.414C220.886 105.051 221.403 105.568 222.04 105.568Z" fill="white"/>
<path d="M231.555 103.929H224.757C224.597 103.929 224.468 104.059 224.468 104.219V104.627C224.468 104.787 224.597 104.917 224.757 104.917H231.555C231.715 104.917 231.845 104.787 231.845 104.627V104.219C231.845 104.059 231.715 103.929 231.555 103.929Z" fill="#006580"/>
<path opacity="0.3" d="M231.555 103.929H224.757C224.597 103.929 224.468 104.059 224.468 104.219V104.627C224.468 104.787 224.597 104.917 224.757 104.917H231.555C231.715 104.917 231.845 104.787 231.845 104.627V104.219C231.845 104.059 231.715 103.929 231.555 103.929Z" fill="white"/>
<path d="M231.552 78.7992H221.172C221.012 78.7992 220.882 78.9287 220.882 79.0886V79.4975C220.882 79.6574 221.012 79.7869 221.172 79.7869H231.552C231.711 79.7869 231.841 79.6574 231.841 79.4975V79.0886C231.841 78.9287 231.711 78.7992 231.552 78.7992Z" fill="#006580"/>
<path opacity="0.3" d="M231.552 78.7992H221.172C221.012 78.7992 220.882 78.9287 220.882 79.0886V79.4975C220.882 79.6574 221.012 79.7869 221.172 79.7869H231.552C231.711 79.7869 231.841 79.6574 231.841 79.4975V79.0886C231.841 78.9287 231.711 78.7992 231.552 78.7992Z" fill="white"/>
<path d="M231.552 72.1675H221.172C221.012 72.1675 220.882 72.297 220.882 72.4569V72.8657C220.882 73.0256 221.012 73.1552 221.172 73.1552H231.552C231.711 73.1552 231.841 73.0256 231.841 72.8657V72.4569C231.841 72.297 231.711 72.1675 231.552 72.1675Z" fill="#006580"/>
<path opacity="0.3" d="M231.552 72.1675H221.172C221.012 72.1675 220.882 72.297 220.882 72.4569V72.8657C220.882 73.0256 221.012 73.1552 221.172 73.1552H231.552C231.711 73.1552 231.841 73.0256 231.841 72.8657V72.4569C231.841 72.297 231.711 72.1675 231.552 72.1675Z" fill="white"/>
<path d="M231.552 94.0192H221.172C221.012 94.0192 220.882 94.1487 220.882 94.3086V94.7174C220.882 94.8774 221.012 95.0069 221.172 95.0069H231.552C231.711 95.0069 231.841 94.8774 231.841 94.7174V94.3086C231.841 94.1487 231.711 94.0192 231.552 94.0192Z" fill="#006580"/>
<path opacity="0.3" d="M231.552 94.0192H221.172C221.012 94.0192 220.882 94.1487 220.882 94.3086V94.7174C220.882 94.8774 221.012 95.0069 221.172 95.0069H231.552C231.711 95.0069 231.841 94.8774 231.841 94.7174V94.3086C231.841 94.1487 231.711 94.0192 231.552 94.0192Z" fill="white"/>
<path d="M264.772 72.1675H243.777C243.617 72.1675 243.488 72.297 243.488 72.4569V72.8657C243.488 73.0256 243.617 73.1552 243.777 73.1552H264.772C264.932 73.1552 265.062 73.0256 265.062 72.8657V72.4569C265.062 72.297 264.932 72.1675 264.772 72.1675Z" fill="#006580"/>
<path d="M282.692 72.1675H267.004C266.844 72.1675 266.715 72.297 266.715 72.4569V72.8657C266.715 73.0256 266.844 73.1552 267.004 73.1552H282.692C282.852 73.1552 282.981 73.0256 282.981 72.8657V72.4569C282.981 72.297 282.852 72.1675 282.692 72.1675Z" fill="#006580"/>
<path d="M264.772 94.157H243.777C243.617 94.157 243.488 94.2865 243.488 94.4464V94.8552C243.488 95.0152 243.617 95.1447 243.777 95.1447H264.772C264.932 95.1447 265.062 95.0152 265.062 94.8552V94.4464C265.062 94.2865 264.932 94.157 264.772 94.157Z" fill="#006580"/>
<path d="M282.692 94.157H267.004C266.844 94.157 266.715 94.2865 266.715 94.4464V94.8552C266.715 95.0152 266.844 95.1447 267.004 95.1447H282.692C282.852 95.1447 282.981 95.0152 282.981 94.8552V94.4464C282.981 94.2865 282.852 94.157 282.692 94.157Z" fill="#006580"/>
<path d="M264.768 99.649H255.452C255.292 99.649 255.163 99.7786 255.163 99.9385V100.347C255.163 100.507 255.292 100.637 255.452 100.637H264.768C264.928 100.637 265.058 100.507 265.058 100.347V99.9385C265.058 99.7786 264.928 99.649 264.768 99.649Z" fill="#006580"/>
<path d="M282.692 99.649H267.004C266.844 99.649 266.715 99.7786 266.715 99.9385V100.347C266.715 100.507 266.844 100.637 267.004 100.637H282.692C282.852 100.637 282.981 100.507 282.981 100.347V99.9385C282.981 99.7786 282.852 99.649 282.692 99.649Z" fill="#006580"/>
<path d="M264.768 103.918H255.452C255.292 103.918 255.163 104.048 255.163 104.208V104.616C255.163 104.776 255.292 104.906 255.452 104.906H264.768C264.928 104.906 265.058 104.776 265.058 104.616V104.208C265.058 104.048 264.928 103.918 264.768 103.918Z" fill="#006580"/>
<path d="M282.692 103.918H267.004C266.844 103.918 266.715 104.048 266.715 104.208V104.616C266.715 104.776 266.844 104.906 267.004 104.906H282.692C282.852 104.906 282.981 104.776 282.981 104.616V104.208C282.981 104.048 282.852 103.918 282.692 103.918Z" fill="#006580"/>
<path d="M264.772 78.7587H243.777C243.617 78.7587 243.488 78.8886 243.488 79.0481V79.4569C243.488 79.6168 243.617 79.7464 243.777 79.7464H264.772C264.932 79.7464 265.062 79.6168 265.062 79.4569V79.0481C265.062 78.8886 264.932 78.7587 264.772 78.7587Z" fill="#006580"/>
<path d="M282.692 78.7587H267.004C266.844 78.7587 266.715 78.8886 266.715 79.0481V79.4569C266.715 79.6168 266.844 79.7464 267.004 79.7464H282.692C282.852 79.7464 282.981 79.6168 282.981 79.4569V79.0481C282.981 78.8886 282.852 78.7587 282.692 78.7587Z" fill="#006580"/>
<path d="M264.768 84.2471H255.452C255.292 84.2471 255.163 84.3769 255.163 84.5365V84.9453C255.163 85.1052 255.292 85.2348 255.452 85.2348H264.768C264.928 85.2348 265.058 85.1052 265.058 84.9453V84.5365C265.058 84.3769 264.928 84.2471 264.768 84.2471Z" fill="#006580"/>
<path d="M282.692 84.2471H267.004C266.844 84.2471 266.715 84.3769 266.715 84.5365V84.9453C266.715 85.1052 266.844 85.2348 267.004 85.2348H282.692C282.852 85.2348 282.981 85.1052 282.981 84.9453V84.5365C282.981 84.3769 282.852 84.2471 282.692 84.2471Z" fill="#006580"/>
<path d="M264.768 88.5166H255.452C255.292 88.5166 255.163 88.6461 255.163 88.806V89.2149C255.163 89.3748 255.292 89.5043 255.452 89.5043H264.768C264.928 89.5043 265.058 89.3748 265.058 89.2149V88.806C265.058 88.6461 264.928 88.5166 264.768 88.5166Z" fill="#006580"/>
<path d="M282.692 88.5166H267.004C266.844 88.5166 266.715 88.6461 266.715 88.806V89.2149C266.715 89.3748 266.844 89.5043 267.004 89.5043H282.692C282.852 89.5043 282.981 89.3748 282.981 89.2149V88.806C282.981 88.6461 282.852 88.5166 282.692 88.5166Z" fill="#006580"/>
<g opacity="0.5">
<path opacity="0.5" d="M264.768 99.649H255.452C255.292 99.649 255.163 99.7786 255.163 99.9385V100.347C255.163 100.507 255.292 100.637 255.452 100.637H264.768C264.928 100.637 265.058 100.507 265.058 100.347V99.9385C265.058 99.7786 264.928 99.649 264.768 99.649Z" fill="white"/>
</g>
<g opacity="0.5">
<path opacity="0.5" d="M282.692 99.649H267.004C266.844 99.649 266.715 99.7786 266.715 99.9385V100.347C266.715 100.507 266.844 100.637 267.004 100.637H282.692C282.852 100.637 282.981 100.507 282.981 100.347V99.9385C282.981 99.7786 282.852 99.649 282.692 99.649Z" fill="white"/>
</g>
<g opacity="0.5">
<path opacity="0.5" d="M264.768 103.918H255.452C255.292 103.918 255.163 104.048 255.163 104.208V104.616C255.163 104.776 255.292 104.906 255.452 104.906H264.768C264.928 104.906 265.058 104.776 265.058 104.616V104.208C265.058 104.048 264.928 103.918 264.768 103.918Z" fill="white"/>
</g>
<g opacity="0.5">
<path opacity="0.5" d="M282.692 103.918H267.004C266.844 103.918 266.715 104.048 266.715 104.208V104.616C266.715 104.776 266.844 104.906 267.004 104.906H282.692C282.852 104.906 282.981 104.776 282.981 104.616V104.208C282.981 104.048 282.852 103.918 282.692 103.918Z" fill="white"/>
</g>
<g opacity="0.5">
<path opacity="0.5" d="M264.768 84.2471H255.452C255.292 84.2471 255.163 84.3769 255.163 84.5365V84.9453C255.163 85.1052 255.292 85.2348 255.452 85.2348H264.768C264.928 85.2348 265.058 85.1052 265.058 84.9453V84.5365C265.058 84.3769 264.928 84.2471 264.768 84.2471Z" fill="white"/>
</g>
<g opacity="0.5">
<path opacity="0.5" d="M282.692 84.2471H267.004C266.844 84.2471 266.715 84.3769 266.715 84.5365V84.9453C266.715 85.1052 266.844 85.2348 267.004 85.2348H282.692C282.852 85.2348 282.981 85.1052 282.981 84.9453V84.5365C282.981 84.3769 282.852 84.2471 282.692 84.2471Z" fill="white"/>
</g>
<g opacity="0.5">
<path opacity="0.5" d="M264.768 88.5166H255.452C255.292 88.5166 255.163 88.6461 255.163 88.806V89.2149C255.163 89.3748 255.292 89.5043 255.452 89.5043H264.768C264.928 89.5043 265.058 89.3748 265.058 89.2149V88.806C265.058 88.6461 264.928 88.5166 264.768 88.5166Z" fill="white"/>
</g>
<g opacity="0.5">
<path opacity="0.5" d="M282.692 88.5166H267.004C266.844 88.5166 266.715 88.6461 266.715 88.806V89.2149C266.715 89.3748 266.844 89.5043 267.004 89.5043H282.692C282.852 89.5043 282.981 89.3748 282.981 89.2149V88.806C282.981 88.6461 282.852 88.5166 282.692 88.5166Z" fill="white"/>
</g>
<path opacity="0.85" d="M215.561 63.763C215.938 63.763 216.245 63.4569 216.245 63.0792C216.245 62.7015 215.938 62.3954 215.561 62.3954C215.183 62.3954 214.877 62.7015 214.877 63.0792C214.877 63.4569 215.183 63.763 215.561 63.763Z" fill="white"/>
<path opacity="0.85" d="M218.77 63.763C219.147 63.763 219.454 63.4569 219.454 63.0792C219.454 62.7015 219.147 62.3954 218.77 62.3954C218.392 62.3954 218.086 62.7015 218.086 63.0792C218.086 63.4569 218.392 63.763 218.77 63.763Z" fill="white"/>
<path opacity="0.85" d="M221.979 63.763C222.357 63.763 222.663 63.4569 222.663 63.0792C222.663 62.7015 222.357 62.3954 221.979 62.3954C221.601 62.3954 221.295 62.7015 221.295 63.0792C221.295 63.4569 221.601 63.763 221.979 63.763Z" fill="white"/>
<g opacity="0.3">
<path opacity="0.3" d="M217.28 74.3777C218.229 74.3777 218.998 73.6082 218.998 72.6592C218.998 71.7102 218.229 70.9407 217.28 70.9407C216.33 70.9407 215.561 71.7102 215.561 72.6592C215.561 73.6082 216.33 74.3777 217.28 74.3777Z" fill="white"/>
<path opacity="0.3" d="M217.28 81.0131C218.229 81.0131 218.999 80.2436 218.999 79.2946C218.999 78.3456 218.229 77.576 217.28 77.576C216.331 77.576 215.562 78.3456 215.562 79.2946C215.562 80.2436 216.331 81.0131 217.28 81.0131Z" fill="white"/>
<path opacity="0.3" d="M217.28 96.5308C218.229 96.5308 218.999 95.7613 218.999 94.8123C218.999 93.8629 218.229 93.0938 217.28 93.0938C216.331 93.0938 215.562 93.8629 215.562 94.8123C215.562 95.7613 216.331 96.5308 217.28 96.5308Z" fill="white"/>
</g>
<path d="M246.288 0.0799561H171.502C170.389 0.0799561 169.486 0.981912 169.486 2.09515V52.3593C169.486 53.4721 170.389 54.3745 171.502 54.3745H246.288C247.401 54.3745 248.303 53.4721 248.303 52.3593V2.09515C248.303 0.981912 247.401 0.0799561 246.288 0.0799561Z" fill="#006580"/>
<path opacity="0.6" d="M246.288 0.0799561H171.502C170.389 0.0799561 169.486 0.981912 169.486 2.09515V52.3593C169.486 53.4721 170.389 54.3745 171.502 54.3745H246.288C247.401 54.3745 248.303 53.4721 248.303 52.3593V2.09515C248.303 0.981912 247.401 0.0799561 246.288 0.0799561Z" fill="white"/>
<path d="M244.797 0.0799561H246.292C246.826 0.0799561 247.339 0.292334 247.717 0.670047C248.094 1.04812 248.307 1.56042 248.307 2.09515V4.02352H244.801V0.0799561H244.797Z" fill="#006580"/>
<path opacity="0.2" d="M244.797 0.0799561H246.292C246.826 0.0799561 247.339 0.292334 247.717 0.670047C248.094 1.04812 248.307 1.56042 248.307 2.09515V4.02352H244.801V0.0799561H244.797Z" fill="white"/>
<path d="M245.398 0.0799561H170.611C169.499 0.0799561 168.596 0.981912 168.596 2.09515V52.3593C168.596 53.4721 169.499 54.3745 170.611 54.3745H245.398C246.511 54.3745 247.413 53.4721 247.413 52.3593V2.09515C247.413 0.981912 246.511 0.0799561 245.398 0.0799561Z" fill="#006580"/>
<path opacity="0.9" d="M245.398 0.0799561H170.611C169.499 0.0799561 168.596 0.981912 168.596 2.09515V52.3593C168.596 53.4721 169.499 54.3745 170.611 54.3745H245.398C246.511 54.3745 247.413 53.4721 247.413 52.3593V2.09515C247.413 0.981912 246.511 0.0799561 245.398 0.0799561Z" fill="white"/>
<path d="M170.615 0.0799561H192.789V54.3745H170.615C170.08 54.3745 169.568 54.1621 169.19 53.784C168.812 53.4063 168.6 52.8936 168.6 52.3593V2.09515C168.6 1.56042 168.812 1.04812 169.19 0.670047C169.568 0.292334 170.08 0.0799561 170.615 0.0799561Z" fill="#006580"/>
<path opacity="0.7" d="M170.615 0.0799561H192.789V54.3745H170.615C170.08 54.3745 169.568 54.1621 169.19 53.784C168.812 53.4063 168.6 52.8936 168.6 52.3593V2.09515C168.6 1.56042 168.812 1.04812 169.19 0.670047C169.568 0.292334 170.08 0.0799561 170.615 0.0799561Z" fill="white"/>
<path d="M247.413 4.02352V2.09515C247.413 1.56042 247.201 1.04812 246.823 0.670047C246.445 0.292334 245.932 0.0799561 245.398 0.0799561H170.615C170.08 0.0799561 169.567 0.291972 169.189 0.670047C168.81 1.04776 168.597 1.56042 168.596 2.09515V4.02352H247.413Z" fill="#006580"/>
<path d="M178.756 24.7395C179.393 24.7395 179.91 24.2229 179.91 23.5854C179.91 22.9479 179.393 22.4313 178.756 22.4313C178.118 22.4313 177.602 22.9479 177.602 23.5854C177.602 24.2229 178.118 24.7395 178.756 24.7395Z" fill="white"/>
<path d="M188.271 23.1039H181.473C181.313 23.1039 181.183 23.2338 181.183 23.3933V23.8021C181.183 23.9621 181.313 24.0916 181.473 24.0916H188.271C188.431 24.0916 188.56 23.9621 188.56 23.8021V23.3933C188.56 23.2338 188.431 23.1039 188.271 23.1039Z" fill="#006580"/>
<path opacity="0.3" d="M188.271 23.1039H181.473C181.313 23.1039 181.183 23.2338 181.183 23.3933V23.8021C181.183 23.9621 181.313 24.0916 181.473 24.0916H188.271C188.431 24.0916 188.56 23.9621 188.56 23.8021V23.3933C188.56 23.2338 188.431 23.1039 188.271 23.1039Z" fill="white"/>
<path d="M178.756 29.0231C179.393 29.0231 179.91 28.5065 179.91 27.869C179.91 27.2315 179.393 26.7148 178.756 26.7148C178.118 26.7148 177.602 27.2315 177.602 27.869C177.602 28.5065 178.118 29.0231 178.756 29.0231Z" fill="white"/>
<path d="M188.271 27.3838H181.473C181.313 27.3838 181.183 27.5137 181.183 27.6732V28.082C181.183 28.242 181.313 28.3715 181.473 28.3715H188.271C188.431 28.3715 188.56 28.242 188.56 28.082V27.6732C188.56 27.5137 188.431 27.3838 188.271 27.3838Z" fill="#006580"/>
<path opacity="0.3" d="M188.271 27.3838H181.473C181.313 27.3838 181.183 27.5137 181.183 27.6732V28.082C181.183 28.242 181.313 28.3715 181.473 28.3715H188.271C188.431 28.3715 188.56 28.242 188.56 28.082V27.6732C188.56 27.5137 188.431 27.3838 188.271 27.3838Z" fill="white"/>
<path d="M173.994 13.3503C174.943 13.3503 175.713 12.5811 175.713 11.6317C175.713 10.6827 174.943 9.91321 173.994 9.91321C173.045 9.91321 172.276 10.6827 172.276 11.6317C172.276 12.5811 173.045 13.3503 173.994 13.3503Z" fill="#006580"/>
<path d="M173.994 19.9855C174.943 19.9855 175.713 19.2163 175.713 18.267C175.713 17.318 174.943 16.5485 173.994 16.5485C173.045 16.5485 172.276 17.318 172.276 18.267C172.276 19.2163 173.045 19.9855 173.994 19.9855Z" fill="#006580"/>
<path d="M173.994 35.4989C174.943 35.4989 175.713 34.7294 175.713 33.7804C175.713 32.8314 174.943 32.0619 173.994 32.0619C173.045 32.0619 172.276 32.8314 172.276 33.7804C172.276 34.7294 173.045 35.4989 173.994 35.4989Z" fill="#006580"/>
<path d="M178.756 40.2572C179.393 40.2572 179.91 39.7402 179.91 39.1031C179.91 38.4656 179.393 37.949 178.756 37.949C178.118 37.949 177.602 38.4656 177.602 39.1031C177.602 39.7402 178.118 40.2572 178.756 40.2572Z" fill="white"/>
<path d="M188.271 38.6216H181.473C181.313 38.6216 181.183 38.7511 181.183 38.911V39.3198C181.183 39.4798 181.313 39.6093 181.473 39.6093H188.271C188.431 39.6093 188.56 39.4798 188.56 39.3198V38.911C188.56 38.7511 188.431 38.6216 188.271 38.6216Z" fill="#006580"/>
<path opacity="0.3" d="M188.271 38.6216H181.473C181.313 38.6216 181.183 38.7511 181.183 38.911V39.3198C181.183 39.4798 181.313 39.6093 181.473 39.6093H188.271C188.431 39.6093 188.56 39.4798 188.56 39.3198V38.911C188.56 38.7511 188.431 38.6216 188.271 38.6216Z" fill="white"/>
<path d="M178.756 44.5405C179.393 44.5405 179.91 44.0239 179.91 43.3864C179.91 42.7493 179.393 42.2323 178.756 42.2323C178.118 42.2323 177.602 42.7493 177.602 43.3864C177.602 44.0239 178.118 44.5405 178.756 44.5405Z" fill="white"/>
<path d="M188.271 42.9016H181.473C181.313 42.9016 181.183 43.0311 181.183 43.1911V43.5999C181.183 43.7598 181.313 43.8893 181.473 43.8893H188.271C188.431 43.8893 188.56 43.7598 188.56 43.5999V43.1911C188.56 43.0311 188.431 42.9016 188.271 42.9016Z" fill="#006580"/>
<path opacity="0.3" d="M188.271 42.9016H181.473C181.313 42.9016 181.183 43.0311 181.183 43.1911V43.5999C181.183 43.7598 181.313 43.8893 181.473 43.8893H188.271C188.431 43.8893 188.56 43.7598 188.56 43.5999V43.1911C188.56 43.0311 188.431 42.9016 188.271 42.9016Z" fill="white"/>
<path d="M188.271 17.771H177.891C177.731 17.771 177.602 17.9005 177.602 18.0604V18.4693C177.602 18.6292 177.731 18.7587 177.891 18.7587H188.271C188.43 18.7587 188.56 18.6292 188.56 18.4693V18.0604C188.56 17.9005 188.43 17.771 188.271 17.771Z" fill="#006580"/>
<path opacity="0.3" d="M188.271 17.771H177.891C177.731 17.771 177.602 17.9005 177.602 18.0604V18.4693C177.602 18.6292 177.731 18.7587 177.891 18.7587H188.271C188.43 18.7587 188.56 18.6292 188.56 18.4693V18.0604C188.56 17.9005 188.43 17.771 188.271 17.771Z" fill="white"/>
<path d="M188.271 11.1393H177.891C177.731 11.1393 177.602 11.2688 177.602 11.4287V11.8375C177.602 11.9975 177.731 12.127 177.891 12.127H188.271C188.43 12.127 188.56 11.9975 188.56 11.8375V11.4287C188.56 11.2688 188.43 11.1393 188.271 11.1393Z" fill="#006580"/>
<path opacity="0.3" d="M188.271 11.1393H177.891C177.731 11.1393 177.602 11.2688 177.602 11.4287V11.8375C177.602 11.9975 177.731 12.127 177.891 12.127H188.271C188.43 12.127 188.56 11.9975 188.56 11.8375V11.4287C188.56 11.2688 188.43 11.1393 188.271 11.1393Z" fill="white"/>
<path d="M188.271 32.9917H177.891C177.731 32.9917 177.602 33.1216 177.602 33.2811V33.69C177.602 33.8499 177.731 33.9794 177.891 33.9794H188.271C188.43 33.9794 188.56 33.8499 188.56 33.69V33.2811C188.56 33.1216 188.43 32.9917 188.271 32.9917Z" fill="#006580"/>
<path opacity="0.3" d="M188.271 32.9917H177.891C177.731 32.9917 177.602 33.1216 177.602 33.2811V33.69C177.602 33.8499 177.731 33.9794 177.891 33.9794H188.271C188.43 33.9794 188.56 33.8499 188.56 33.69V33.2811C188.56 33.1216 188.43 32.9917 188.271 32.9917Z" fill="white"/>
<path d="M221.49 11.1393H200.495C200.336 11.1393 200.206 11.2688 200.206 11.4287V11.8375C200.206 11.9975 200.336 12.127 200.495 12.127H221.49C221.65 12.127 221.78 11.9975 221.78 11.8375V11.4287C221.78 11.2688 221.65 11.1393 221.49 11.1393Z" fill="#006580"/>
<path d="M239.41 11.1393H223.723C223.563 11.1393 223.434 11.2688 223.434 11.4287V11.8375C223.434 11.9975 223.563 12.127 223.723 12.127H239.41C239.57 12.127 239.7 11.9975 239.7 11.8375V11.4287C239.7 11.2688 239.57 11.1393 239.41 11.1393Z" fill="#006580"/>
<path d="M221.49 33.1295H200.495C200.336 33.1295 200.206 33.259 200.206 33.4189V33.8278C200.206 33.9877 200.336 34.1172 200.495 34.1172H221.49C221.65 34.1172 221.78 33.9877 221.78 33.8278V33.4189C221.78 33.259 221.65 33.1295 221.49 33.1295Z" fill="#006580"/>
<path d="M239.41 33.1295H223.723C223.563 33.1295 223.434 33.259 223.434 33.4189V33.8278C223.434 33.9877 223.563 34.1172 223.723 34.1172H239.41C239.57 34.1172 239.7 33.9877 239.7 33.8278V33.4189C239.7 33.259 239.57 33.1295 239.41 33.1295Z" fill="#006580"/>
<path d="M221.487 38.6216H212.171C212.011 38.6216 211.882 38.7511 211.882 38.911V39.3198C211.882 39.4798 212.011 39.6093 212.171 39.6093H221.487C221.647 39.6093 221.777 39.4798 221.777 39.3198V38.911C221.777 38.7511 221.647 38.6216 221.487 38.6216Z" fill="#006580"/>
<path d="M239.41 38.6216H223.723C223.563 38.6216 223.434 38.7511 223.434 38.911V39.3198C223.434 39.4798 223.563 39.6093 223.723 39.6093H239.41C239.57 39.6093 239.7 39.4798 239.7 39.3198V38.911C239.7 38.7511 239.57 38.6216 239.41 38.6216Z" fill="#006580"/>
<path d="M221.487 42.8911H212.171C212.011 42.8911 211.882 43.0206 211.882 43.1806V43.5894C211.882 43.7493 212.011 43.8788 212.171 43.8788H221.487C221.647 43.8788 221.777 43.7493 221.777 43.5894V43.1806C221.777 43.0206 221.647 42.8911 221.487 42.8911Z" fill="#006580"/>
<path d="M239.41 42.8911H223.723C223.563 42.8911 223.434 43.0206 223.434 43.1806V43.5894C223.434 43.7493 223.563 43.8788 223.723 43.8788H239.41C239.57 43.8788 239.7 43.7493 239.7 43.5894V43.1806C239.7 43.0206 239.57 42.8911 239.41 42.8911Z" fill="#006580"/>
<path d="M221.49 17.7279H200.495C200.336 17.7279 200.206 17.8574 200.206 18.0173V18.4262C200.206 18.5861 200.336 18.7156 200.495 18.7156H221.49C221.65 18.7156 221.78 18.5861 221.78 18.4262V18.0173C221.78 17.8574 221.65 17.7279 221.49 17.7279Z" fill="#006580"/>
<path d="M239.41 17.7279H223.723C223.563 17.7279 223.434 17.8574 223.434 18.0173V18.4262C223.434 18.5861 223.563 18.7156 223.723 18.7156H239.41C239.57 18.7156 239.7 18.5861 239.7 18.4262V18.0173C239.7 17.8574 239.57 17.7279 239.41 17.7279Z" fill="#006580"/>
<path d="M221.487 23.22H212.171C212.011 23.22 211.882 23.3495 211.882 23.5094V23.9182C211.882 24.0781 212.011 24.2077 212.171 24.2077H221.487C221.647 24.2077 221.777 24.0781 221.777 23.9182V23.5094C221.777 23.3495 221.647 23.22 221.487 23.22Z" fill="#006580"/>
<path d="M239.41 23.22H223.723C223.563 23.22 223.434 23.3495 223.434 23.5094V23.9182C223.434 24.0781 223.563 24.2077 223.723 24.2077H239.41C239.57 24.2077 239.7 24.0781 239.7 23.9182V23.5094C239.7 23.3495 239.57 23.22 239.41 23.22Z" fill="#006580"/>
<path d="M221.487 27.4891H212.171C212.011 27.4891 211.882 27.619 211.882 27.7786V28.1874C211.882 28.3473 212.011 28.4768 212.171 28.4768H221.487C221.647 28.4768 221.777 28.3473 221.777 28.1874V27.7786C221.777 27.619 221.647 27.4891 221.487 27.4891Z" fill="#006580"/>
<path d="M239.41 27.4891H223.723C223.563 27.4891 223.434 27.619 223.434 27.7786V28.1874C223.434 28.3473 223.563 28.4768 223.723 28.4768H239.41C239.57 28.4768 239.7 28.3473 239.7 28.1874V27.7786C239.7 27.619 239.57 27.4891 239.41 27.4891Z" fill="#006580"/>
<g opacity="0.5">
<path opacity="0.5" d="M221.487 38.6216H212.171C212.011 38.6216 211.882 38.7511 211.882 38.911V39.3198C211.882 39.4798 212.011 39.6093 212.171 39.6093H221.487C221.647 39.6093 221.777 39.4798 221.777 39.3198V38.911C221.777 38.7511 221.647 38.6216 221.487 38.6216Z" fill="white"/>
</g>
<g opacity="0.5">
<path opacity="0.5" d="M239.41 38.6216H223.723C223.563 38.6216 223.434 38.7511 223.434 38.911V39.3198C223.434 39.4798 223.563 39.6093 223.723 39.6093H239.41C239.57 39.6093 239.7 39.4798 239.7 39.3198V38.911C239.7 38.7511 239.57 38.6216 239.41 38.6216Z" fill="white"/>
</g>
<g opacity="0.5">
<path opacity="0.5" d="M221.487 42.8911H212.171C212.011 42.8911 211.882 43.0206 211.882 43.1806V43.5894C211.882 43.7493 212.011 43.8788 212.171 43.8788H221.487C221.647 43.8788 221.777 43.7493 221.777 43.5894V43.1806C221.777 43.0206 221.647 42.8911 221.487 42.8911Z" fill="white"/>
</g>
<g opacity="0.5">
<path opacity="0.5" d="M239.41 42.8911H223.723C223.563 42.8911 223.434 43.0206 223.434 43.1806V43.5894C223.434 43.7493 223.563 43.8788 223.723 43.8788H239.41C239.57 43.8788 239.7 43.7493 239.7 43.5894V43.1806C239.7 43.0206 239.57 42.8911 239.41 42.8911Z" fill="white"/>
</g>
<g opacity="0.5">
<path opacity="0.5" d="M221.487 23.22H212.171C212.011 23.22 211.882 23.3495 211.882 23.5094V23.9182C211.882 24.0781 212.011 24.2077 212.171 24.2077H221.487C221.647 24.2077 221.777 24.0781 221.777 23.9182V23.5094C221.777 23.3495 221.647 23.22 221.487 23.22Z" fill="white"/>
</g>
<g opacity="0.5">
<path opacity="0.5" d="M239.41 23.22H223.723C223.563 23.22 223.434 23.3495 223.434 23.5094V23.9182C223.434 24.0781 223.563 24.2077 223.723 24.2077H239.41C239.57 24.2077 239.7 24.0781 239.7 23.9182V23.5094C239.7 23.3495 239.57 23.22 239.41 23.22Z" fill="white"/>
</g>
<g opacity="0.5">
<path opacity="0.5" d="M221.487 27.4891H212.171C212.011 27.4891 211.882 27.619 211.882 27.7786V28.1874C211.882 28.3473 212.011 28.4768 212.171 28.4768H221.487C221.647 28.4768 221.777 28.3473 221.777 28.1874V27.7786C221.777 27.619 221.647 27.4891 221.487 27.4891Z" fill="white"/>
</g>
<g opacity="0.5">
<path opacity="0.5" d="M239.41 27.4891H223.723C223.563 27.4891 223.434 27.619 223.434 27.7786V28.1874C223.434 28.3473 223.563 28.4768 223.723 28.4768H239.41C239.57 28.4768 239.7 28.3473 239.7 28.1874V27.7786C239.7 27.619 239.57 27.4891 239.41 27.4891Z" fill="white"/>
</g>
<path opacity="0.85" d="M172.279 2.73489C172.657 2.73489 172.963 2.42881 172.963 2.0511C172.963 1.67339 172.657 1.36731 172.279 1.36731C171.901 1.36731 171.595 1.67339 171.595 2.0511C171.595 2.42881 171.901 2.73489 172.279 2.73489Z" fill="white"/>
<path opacity="0.85" d="M175.485 2.73489C175.862 2.73489 176.168 2.42881 176.168 2.0511C176.168 1.67339 175.862 1.36731 175.485 1.36731C175.107 1.36731 174.801 1.67339 174.801 2.0511C174.801 2.42881 175.107 2.73489 175.485 2.73489Z" fill="white"/>
<path opacity="0.85" d="M178.693 2.73489C179.071 2.73489 179.377 2.42881 179.377 2.0511C179.377 1.67339 179.071 1.36731 178.693 1.36731C178.316 1.36731 178.01 1.67339 178.01 2.0511C178.01 2.42881 178.316 2.73489 178.693 2.73489Z" fill="white"/>
<g opacity="0.3">
<path opacity="0.3" d="M173.994 13.3503C174.943 13.3503 175.713 12.5811 175.713 11.6317C175.713 10.6827 174.943 9.91321 173.994 9.91321C173.045 9.91321 172.276 10.6827 172.276 11.6317C172.276 12.5811 173.045 13.3503 173.994 13.3503Z" fill="white"/>
<path opacity="0.3" d="M173.994 19.9855C174.943 19.9855 175.713 19.2163 175.713 18.267C175.713 17.318 174.943 16.5485 173.994 16.5485C173.045 16.5485 172.276 17.318 172.276 18.267C172.276 19.2163 173.045 19.9855 173.994 19.9855Z" fill="white"/>
<path opacity="0.3" d="M173.994 35.4997C174.943 35.4997 175.713 34.7301 175.713 33.7811C175.713 32.8322 174.943 32.0626 173.994 32.0626C173.045 32.0626 172.276 32.8322 172.276 33.7811C172.276 34.7301 173.045 35.4997 173.994 35.4997Z" fill="white"/>
</g>
<path d="M247.344 67.0003C253.362 67.0003 258.241 62.1215 258.241 56.1031C258.241 50.0846 253.362 45.2058 247.344 45.2058C241.326 45.2058 236.447 50.0846 236.447 56.1031C236.447 62.1215 241.326 67.0003 247.344 67.0003Z" fill="#21252B"/>
<path d="M245.76 67.0003C251.778 67.0003 256.657 62.1215 256.657 56.1031C256.657 50.0846 251.778 45.2058 245.76 45.2058C239.741 45.2058 234.862 50.0846 234.862 56.1031C234.862 62.1215 239.741 67.0003 245.76 67.0003Z" fill="#21252B"/>
<path opacity="0.2" d="M245.76 67.0003C251.778 67.0003 256.657 62.1215 256.657 56.1031C256.657 50.0846 251.778 45.2058 245.76 45.2058C239.741 45.2058 234.862 50.0846 234.862 56.1031C234.862 62.1215 239.741 67.0003 245.76 67.0003Z" fill="white"/>
<path d="M245.76 65.3722C243.926 65.373 242.134 64.8299 240.609 63.8118C239.084 62.7937 237.896 61.3466 237.193 59.653C236.491 57.9591 236.307 56.0955 236.664 54.297C237.022 52.4989 237.904 50.8469 239.201 49.5502C240.496 48.2536 242.148 47.3704 243.947 47.0123C245.745 46.6544 247.608 46.8379 249.302 47.539C250.996 48.2406 252.444 49.4287 253.463 50.9529C254.482 52.4775 255.025 54.2699 255.025 56.1031C255.022 58.56 254.045 60.9153 252.308 62.653C250.571 64.3907 248.216 65.3686 245.76 65.3722ZM245.76 47.1957C243.998 47.195 242.275 47.717 240.81 48.6953C239.345 49.6736 238.202 51.0644 237.528 52.6921C236.853 54.3194 236.676 56.1107 237.019 57.8386C237.363 59.5669 238.211 61.1541 239.456 62.4005C240.702 63.6465 242.289 64.4953 244.017 64.839C245.745 65.183 247.536 65.0068 249.164 64.3328C250.792 63.6588 252.183 62.517 253.162 61.0521C254.141 59.5871 254.663 57.865 254.663 56.1031C254.661 53.742 253.723 51.4779 252.054 49.8082C250.384 48.1382 248.121 47.1986 245.76 47.1957Z" fill="white"/>
<path d="M247.829 53.9073L243.488 58.2489" stroke="white" stroke-width="1.23706" stroke-linecap="round" stroke-linejoin="round"/>
<path d="M243.488 53.9073L247.829 58.2489" stroke="white" stroke-width="1.23706" stroke-linecap="round" stroke-linejoin="round"/>
<path d="M167.562 70.3112H150.029C149.088 70.3112 148.325 71.0742 148.325 72.0152V80.1845C148.325 81.1256 149.088 81.8886 150.029 81.8886H167.562C168.503 81.8886 169.266 81.1256 169.266 80.1845V72.0152C169.266 71.0742 168.503 70.3112 167.562 70.3112Z" fill="#006580"/>
<path opacity="0.45" d="M167.562 70.3112H150.029C149.088 70.3112 148.325 71.0742 148.325 72.0152V80.1845C148.325 81.1256 149.088 81.8886 150.029 81.8886H167.562C168.503 81.8886 169.266 81.1256 169.266 80.1845V72.0152C169.266 71.0742 168.503 70.3112 167.562 70.3112Z" fill="white"/>
<path d="M154.88 74.902H152.098C151.917 74.902 151.769 75.0496 151.769 75.2312V75.5605C151.769 75.7424 151.917 75.8897 152.098 75.8897H154.88C155.062 75.8897 155.21 75.7424 155.21 75.5605V75.2312C155.21 75.0496 155.062 74.902 154.88 74.902Z" fill="#006580"/>
<path d="M166.114 74.902H156.639C156.457 74.902 156.31 75.0496 156.31 75.2312V75.5605C156.31 75.7424 156.457 75.8897 156.639 75.8897H166.114C166.296 75.8897 166.443 75.7424 166.443 75.5605V75.2312C166.443 75.0496 166.296 74.902 166.114 74.902Z" fill="#006580"/>
<path d="M154.88 77.7931H152.098C151.917 77.7931 151.769 77.9403 151.769 78.1223V78.4516C151.769 78.6332 151.917 78.7808 152.098 78.7808H154.88C155.062 78.7808 155.21 78.6332 155.21 78.4516V78.1223C155.21 77.9403 155.062 77.7931 154.88 77.7931Z" fill="#006580"/>
<path d="M162.496 77.7931H156.639C156.457 77.7931 156.31 77.9403 156.31 78.1223V78.4516C156.31 78.6332 156.457 78.7808 156.639 78.7808H162.496C162.678 78.7808 162.826 78.6332 162.826 78.4516V78.1223C162.826 77.9403 162.678 77.7931 162.496 77.7931Z" fill="#006580"/>
<path d="M167.562 70.3112H150.026C149.802 70.3112 149.581 70.3553 149.374 70.441C149.167 70.5264 148.98 70.652 148.822 70.8104C148.664 70.9685 148.539 71.1567 148.454 71.3632C148.368 71.5702 148.324 71.7916 148.325 72.0152V72.5977H169.266V72.0152C169.266 71.5633 169.086 71.1299 168.767 70.8101C168.447 70.4906 168.014 70.3112 167.562 70.3112Z" fill="#006580"/>
<path d="M167.019 70.3112H149.487C148.545 70.3112 147.783 71.0742 147.783 72.0152V80.1845C147.783 81.1256 148.545 81.8886 149.487 81.8886H167.019C167.96 81.8886 168.723 81.1256 168.723 80.1845V72.0152C168.723 71.0742 167.96 70.3112 167.019 70.3112Z" fill="#006580"/>
<path opacity="0.7" d="M167.019 70.3112H149.487C148.545 70.3112 147.783 71.0742 147.783 72.0152V80.1845C147.783 81.1256 148.545 81.8886 149.487 81.8886H167.019C167.96 81.8886 168.723 81.1256 168.723 80.1845V72.0152C168.723 71.0742 167.96 70.3112 167.019 70.3112Z" fill="white"/>
<path d="M154.341 74.902H151.559C151.377 74.902 151.23 75.0496 151.23 75.2312V75.5605C151.23 75.7424 151.377 75.8897 151.559 75.8897H154.341C154.523 75.8897 154.671 75.7424 154.671 75.5605V75.2312C154.671 75.0496 154.523 74.902 154.341 74.902Z" fill="#006580"/>
<path d="M165.576 74.902H156.1C155.918 74.902 155.771 75.0496 155.771 75.2312V75.5605C155.771 75.7424 155.918 75.8897 156.1 75.8897H165.576C165.757 75.8897 165.905 75.7424 165.905 75.5605V75.2312C165.905 75.0496 165.757 74.902 165.576 74.902Z" fill="#006580"/>
<path d="M154.341 77.7931H151.559C151.377 77.7931 151.23 77.9403 151.23 78.1223V78.4516C151.23 78.6332 151.377 78.7808 151.559 78.7808H154.341C154.523 78.7808 154.671 78.6332 154.671 78.4516V78.1223C154.671 77.9403 154.523 77.7931 154.341 77.7931Z" fill="#006580"/>
<path d="M161.958 77.7931H156.1C155.918 77.7931 155.771 77.9403 155.771 78.1223V78.4516C155.771 78.6332 155.918 78.7808 156.1 78.7808H161.958C162.139 78.7808 162.287 78.6332 162.287 78.4516V78.1223C162.287 77.9403 162.139 77.7931 161.958 77.7931Z" fill="#006580"/>
<path d="M167.023 70.3112H149.487C149.263 70.3112 149.041 70.3553 148.834 70.4407C148.628 70.5264 148.44 70.652 148.282 70.8101C148.124 70.9685 147.998 71.1563 147.912 71.3629C147.827 71.5698 147.783 71.7913 147.783 72.0152V72.5977H168.723V72.0152C168.724 71.7916 168.68 71.5702 168.595 71.3632C168.51 71.1567 168.384 70.9685 168.227 70.8104C168.069 70.652 167.881 70.5264 167.675 70.441C167.468 70.3553 167.247 70.3112 167.023 70.3112Z" fill="#006580"/>
<path d="M153.282 40.8828H135.749C134.808 40.8828 134.045 41.6458 134.045 42.5869V50.7562C134.045 51.6972 134.808 52.4602 135.749 52.4602H153.282C154.223 52.4602 154.986 51.6972 154.986 50.7562V42.5869C154.986 41.6458 154.223 40.8828 153.282 40.8828Z" fill="#006580"/>
<path opacity="0.45" d="M153.282 40.8828H135.749C134.808 40.8828 134.045 41.6458 134.045 42.5869V50.7562C134.045 51.6972 134.808 52.4602 135.749 52.4602H153.282C154.223 52.4602 154.986 51.6972 154.986 50.7562V42.5869C154.986 41.6458 154.223 40.8828 153.282 40.8828Z" fill="white"/>
<path d="M140.605 45.4746H137.823C137.641 45.4746 137.493 45.6219 137.493 45.8038V46.1331C137.493 46.3147 137.641 46.4623 137.823 46.4623H140.605C140.787 46.4623 140.934 46.3147 140.934 46.1331V45.8038C140.934 45.6219 140.787 45.4746 140.605 45.4746Z" fill="#006580"/>
<path d="M151.834 45.4746H142.359C142.177 45.4746 142.03 45.6219 142.03 45.8038V46.1331C142.03 46.3147 142.177 46.4623 142.359 46.4623H151.834C152.016 46.4623 152.164 46.3147 152.164 46.1331V45.8038C152.164 45.6219 152.016 45.4746 151.834 45.4746Z" fill="#006580"/>
<path d="M140.605 48.3611H137.823C137.641 48.3611 137.493 48.5087 137.493 48.6903V49.0196C137.493 49.2015 137.641 49.3488 137.823 49.3488H140.605C140.787 49.3488 140.934 49.2015 140.934 49.0196V48.6903C140.934 48.5087 140.787 48.3611 140.605 48.3611Z" fill="#006580"/>
<path d="M148.216 48.3611H142.359C142.177 48.3611 142.03 48.5087 142.03 48.6903V49.0196C142.03 49.2015 142.177 49.3488 142.359 49.3488H148.216C148.398 49.3488 148.546 49.2015 148.546 49.0196V48.6903C148.546 48.5087 148.398 48.3611 148.216 48.3611Z" fill="#006580"/>
<path d="M153.282 40.8828H135.745C135.522 40.8825 135.301 40.9262 135.094 41.0113C134.888 41.0966 134.7 41.2218 134.542 41.3799C134.384 41.538 134.259 41.7254 134.173 41.932C134.088 42.1386 134.045 42.36 134.045 42.5832V43.1694H154.986V42.5832C154.986 42.3597 154.941 42.1382 154.856 41.9317C154.77 41.7251 154.645 41.5377 154.486 41.3796C154.328 41.2218 154.14 41.0966 153.934 41.0113C153.727 40.9262 153.505 40.8825 153.282 40.8828Z" fill="#006580"/>
<path d="M152.739 40.8828H135.206C134.265 40.8828 133.502 41.6458 133.502 42.5869V50.7562C133.502 51.6972 134.265 52.4602 135.206 52.4602H152.739C153.68 52.4602 154.443 51.6972 154.443 50.7562V42.5869C154.443 41.6458 153.68 40.8828 152.739 40.8828Z" fill="#006580"/>
<path opacity="0.7" d="M152.739 40.8828H135.206C134.265 40.8828 133.502 41.6458 133.502 42.5869V50.7562C133.502 51.6972 134.265 52.4602 135.206 52.4602H152.739C153.68 52.4602 154.443 51.6972 154.443 50.7562V42.5869C154.443 41.6458 153.68 40.8828 152.739 40.8828Z" fill="white"/>
<path d="M140.062 45.4746H137.28C137.098 45.4746 136.95 45.6219 136.95 45.8038V46.1331C136.95 46.3147 137.098 46.4623 137.28 46.4623H140.062C140.244 46.4623 140.391 46.3147 140.391 46.1331V45.8038C140.391 45.6219 140.244 45.4746 140.062 45.4746Z" fill="#006580"/>
<path d="M151.295 45.4746H141.82C141.638 45.4746 141.491 45.6219 141.491 45.8038V46.1331C141.491 46.3147 141.638 46.4623 141.82 46.4623H151.295C151.477 46.4623 151.625 46.3147 151.625 46.1331V45.8038C151.625 45.6219 151.477 45.4746 151.295 45.4746Z" fill="#006580"/>
<path d="M140.062 48.3611H137.28C137.098 48.3611 136.95 48.5087 136.95 48.6903V49.0196C136.95 49.2015 137.098 49.3488 137.28 49.3488H140.062C140.244 49.3488 140.391 49.2015 140.391 49.0196V48.6903C140.391 48.5087 140.244 48.3611 140.062 48.3611Z" fill="#006580"/>
<path d="M147.677 48.3611H141.82C141.638 48.3611 141.491 48.5087 141.491 48.6903V49.0196C141.491 49.2015 141.638 49.3488 141.82 49.3488H147.677C147.859 49.3488 148.007 49.2015 148.007 49.0196V48.6903C148.007 48.5087 147.859 48.3611 147.677 48.3611Z" fill="#006580"/>
<path d="M152.742 40.8828H135.206C134.982 40.8825 134.761 40.9262 134.554 41.0113C134.347 41.0966 134.16 41.2218 134.001 41.3796C133.843 41.5377 133.718 41.7251 133.632 41.9317C133.546 42.1382 133.502 42.3597 133.502 42.5832V43.1694H154.446V42.5832C154.446 42.3597 154.402 42.1382 154.316 41.9317C154.231 41.7251 154.105 41.5377 153.947 41.3796C153.789 41.2218 153.601 41.0966 153.394 41.0113C153.188 40.9262 152.966 40.8825 152.742 40.8828Z" fill="#006580"/>
<path d="M499.725 265.051H0.271484V265.412H499.725V265.051Z" fill="#B2B6BB"/>
</g>
<defs>
<radialGradient id="paint0_radial" cx="0" cy="0" r="1" gradientUnits="userSpaceOnUse" gradientTransform="translate(249 265) rotate(90) scale(118.5 226.103)">
<stop stop-color="#E2E6E7"/>
<stop offset="1" stop-color="white"/>
</radialGradient>
<clipPath id="clip0">
<rect width="500" height="265.557" fill="white"/>
</clipPath>
</defs>
</svg>
