<svg width="165" height="36" viewBox="0 0 165 36" fill="none" xmlns="http://www.w3.org/2000/svg">
<path d="M58.0822 17.5781H62.3549V25.777C61.2578 26.6046 59.9876 27.2398 58.5441 27.6824C57.1006 28.1251 55.6475 28.3464 54.1848 28.3464C52.087 28.3464 50.2008 27.9038 48.5264 27.0184C46.852 26.1139 45.5336 24.8725 44.5713 23.2943C43.6282 21.6968 43.1567 19.8973 43.1567 17.8957C43.1567 15.8941 43.6282 14.1041 44.5713 12.5259C45.5336 10.9285 46.8616 9.68711 48.5553 8.80178C50.2489 7.8972 52.1543 7.44492 54.2714 7.44492C56.0421 7.44492 57.6492 7.74323 59.0926 8.33987C60.5361 8.93651 61.7486 9.80259 62.7302 10.9381L59.7278 13.7096C58.2843 12.1891 56.5425 11.4289 54.5024 11.4289C53.2129 11.4289 52.0677 11.6984 51.0669 12.2373C50.0661 12.7762 49.2866 13.5364 48.7285 14.5179C48.1703 15.4995 47.8913 16.6254 47.8913 17.8957C47.8913 19.1467 48.1703 20.263 48.7285 21.2445C49.2866 22.2261 50.0565 22.996 51.038 23.5541C52.0389 24.093 53.1744 24.3624 54.4446 24.3624C55.7919 24.3624 57.0044 24.0737 58.0822 23.4964V17.5781ZM72.7619 28.231C71.126 28.231 69.6536 27.8941 68.3449 27.2205C67.0554 26.5277 66.0449 25.575 65.3136 24.3624C64.5822 23.1499 64.2165 21.7738 64.2165 20.2341C64.2165 18.6944 64.5822 17.3183 65.3136 16.1058C66.0449 14.8932 67.0554 13.9502 68.3449 13.2766C69.6536 12.5837 71.126 12.2373 72.7619 12.2373C74.3978 12.2373 75.8606 12.5837 77.1501 13.2766C78.4396 13.9502 79.45 14.8932 80.1814 16.1058C80.9127 17.3183 81.2784 18.6944 81.2784 20.2341C81.2784 21.7738 80.9127 23.1499 80.1814 24.3624C79.45 25.575 78.4396 26.5277 77.1501 27.2205C75.8606 27.8941 74.3978 28.231 72.7619 28.231ZM72.7619 24.5357C73.9167 24.5357 74.8597 24.1507 75.5911 23.3809C76.3417 22.5918 76.717 21.5429 76.717 20.2341C76.717 18.9254 76.3417 17.8861 75.5911 17.1162C74.8597 16.3271 73.9167 15.9325 72.7619 15.9325C71.6071 15.9325 70.6544 16.3271 69.9038 17.1162C69.1532 17.8861 68.7779 18.9254 68.7779 20.2341C68.7779 21.5429 69.1532 22.5918 69.9038 23.3809C70.6544 24.1507 71.6071 24.5357 72.7619 24.5357ZM105.6 17.4915C106.755 17.8572 107.66 18.4731 108.314 19.3391C108.968 20.186 109.296 21.2349 109.296 22.4859C109.296 24.2566 108.603 25.6231 107.217 26.5854C105.85 27.5285 103.849 28 101.212 28H90.7613V7.79135H100.635C103.098 7.79135 104.984 8.26288 106.293 9.20596C107.621 10.149 108.285 11.4289 108.285 13.0456C108.285 14.0272 108.045 14.9029 107.563 15.6727C107.101 16.4426 106.447 17.0488 105.6 17.4915ZM95.4093 11.3134V16.0769H100.057C101.212 16.0769 102.088 15.8748 102.684 15.4706C103.281 15.0665 103.579 14.4698 103.579 13.6807C103.579 12.8916 103.281 12.3046 102.684 11.9197C102.088 11.5155 101.212 11.3134 100.057 11.3134H95.4093ZM100.866 24.4779C102.097 24.4779 103.021 24.2758 103.637 23.8717C104.272 23.4675 104.59 22.842 104.59 21.9951C104.59 20.3207 103.348 19.4835 100.866 19.4835H95.4093V24.4779H100.866ZM117.773 12.2373C120.179 12.2373 122.026 12.8146 123.316 13.9694C124.605 15.105 125.25 16.8275 125.25 19.1371V28H121.035V26.0657C120.188 27.5092 118.61 28.231 116.301 28.231C115.107 28.231 114.068 28.0289 113.183 27.6247C112.317 27.2205 111.653 26.6624 111.191 25.9503C110.729 25.2382 110.498 24.4298 110.498 23.5252C110.498 22.0818 111.037 20.9462 112.115 20.1186C113.212 19.291 114.896 18.8772 117.167 18.8772H120.747C120.747 17.8957 120.448 17.1451 119.852 16.6254C119.255 16.0865 118.36 15.8171 117.167 15.8171C116.339 15.8171 115.521 15.9518 114.713 16.2212C113.924 16.4714 113.25 16.8179 112.692 17.2605L111.075 14.1138C111.922 13.5171 112.933 13.0552 114.107 12.728C115.3 12.4008 116.522 12.2373 117.773 12.2373ZM117.427 25.1997C118.196 25.1997 118.88 25.0264 119.476 24.68C120.073 24.3143 120.496 23.7851 120.747 23.0922V21.5044H117.658C115.81 21.5044 114.886 22.1106 114.886 23.3231C114.886 23.9005 115.107 24.3624 115.55 24.7089C116.012 25.0361 116.638 25.1997 117.427 25.1997ZM137.756 12.2373C139.681 12.2373 141.23 12.8146 142.404 13.9694C143.597 15.1242 144.194 16.8371 144.194 19.1082V28H139.69V19.8011C139.69 18.5693 139.421 17.6551 138.882 17.0585C138.343 16.4426 137.564 16.1346 136.544 16.1346C135.408 16.1346 134.504 16.4907 133.83 17.2028C133.156 17.8957 132.819 18.935 132.819 20.3207V28H128.316V12.4682H132.617V14.287C133.214 13.6326 133.955 13.1322 134.84 12.7858C135.726 12.4201 136.698 12.2373 137.756 12.2373ZM153.935 21.9085L151.77 24.0449V28H147.266V6.57883H151.77V18.704L158.352 12.4682H163.722L157.255 19.0505L164.299 28H158.843L153.935 21.9085Z" fill="#DC1B37"/>
<rect y="1.0614" width="33.6811" height="33.6811" rx="3.36811" fill="#DC1B37"/>
<path d="M16.8414 17.9807C22.7813 13.5036 18.6966 8.87975 16.8414 7.22077C14.9862 8.87975 10.9022 13.5036 16.8414 17.9807ZM18.0779 30.5195L15.6041 30.5189V25.6069C12.4249 25.8314 2.83467 25.828 3.00969 17.6182C3.01882 17.0768 3.47691 16.6346 4.06816 16.5609C4.09175 16.5562 8.91766 15.8822 12.816 17.3629C7.68493 11.0238 15.7722 5.11086 16.0508 4.90986C16.4959 4.58087 17.1587 4.56747 17.6244 4.90383C17.651 4.92393 26.0792 10.9227 20.8683 17.3623C24.7658 15.8829 29.5902 16.5556 29.6138 16.5582C30.2036 16.6346 30.6624 17.0768 30.6715 17.6182C30.8473 25.8267 21.2594 25.8314 18.0779 25.6083V30.5195ZM18.5208 23.4575C21.1354 23.6116 27.525 23.4803 28.1589 18.6119C25.5435 18.4591 19.1539 18.5904 18.5208 23.4575ZM5.52233 18.6119C6.15619 23.4796 12.5458 23.6109 15.1604 23.4575C14.5273 18.5904 8.13769 18.4591 5.52233 18.6119Z" fill="white"/>
<path fill-rule="evenodd" clip-rule="evenodd" d="M23.4565 30.2188C23.4565 30.7171 23.0525 31.121 22.5543 31.121H11.1268C10.6285 31.121 10.2246 30.7171 10.2246 30.2188C10.2246 29.7206 10.6285 29.3167 11.1268 29.3167H22.5543C23.0525 29.3167 23.4565 29.7206 23.4565 30.2188Z" fill="white"/>
</svg>
