<svg width="504" height="119" viewBox="0 0 504 119" fill="none" xmlns="http://www.w3.org/2000/svg">
<path d="M83.652 37.3341L71.6814 26.4858L71.4541 26.2788C65.1354 20.5258 55.4111 20.7534 49.3686 26.796L27.0412 49.1234C20.9433 55.2212 20.9433 65.1078 27.0412 71.2057V71.2057L38.0823 82.2468" stroke="url(#paint0_linear_6975_11750)" stroke-width="12" stroke-linejoin="round"/>
<path d="M36.7048 80.1663L48.3013 91.5757L48.873 92.0983C55.1893 97.8722 64.9307 97.6537 70.9819 91.6026L93.2879 69.2966C99.3857 63.1987 99.3857 53.3122 93.2879 47.2143V47.2143L79.1143 33.0407" stroke="url(#paint1_linear_6975_11750)" stroke-width="12" stroke-linejoin="round"/>
<rect x="60.1646" y="41.771" width="26.0123" height="26.0123" rx="4" transform="rotate(45 60.1646 41.771)" fill="#1F8BFE"/>
<circle cx="60.2261" cy="59.7388" r="3.58982" fill="white"/>
<line x1="69.5714" y1="51.0607" x2="50.2331" y2="70.399" stroke="white" stroke-width="3"/>
<path d="M123.25 75.71V42.102H130.356V55.9686H144.78V42.102H151.869V75.71H144.78V61.827H130.356V75.71H123.25ZM160.873 85.1622C159.986 85.1622 159.155 85.0911 158.378 84.9489C157.612 84.8176 156.978 84.648 156.475 84.4402L158.05 79.2217C158.871 79.4734 159.609 79.6101 160.265 79.632C160.933 79.6539 161.507 79.5007 161.989 79.1725C162.481 78.8443 162.88 78.2864 163.186 77.4987L163.597 76.432L154.555 50.504H161.906L167.125 69.0146H167.387L172.655 50.504H180.056L170.259 78.434C169.789 79.7906 169.149 80.9721 168.339 81.9786C167.541 82.9961 166.529 83.7783 165.303 84.3253C164.078 84.8832 162.601 85.1622 160.873 85.1622ZM182.594 85.1622V50.504H189.486V54.7378H189.798C190.104 54.0595 190.547 53.3703 191.127 52.6701C191.718 51.959 192.484 51.3683 193.424 50.8978C194.376 50.4165 195.558 50.1758 196.969 50.1758C198.807 50.1758 200.503 50.6572 202.056 51.6199C203.61 52.5717 204.851 54.0103 205.781 55.9358C206.711 57.8503 207.176 60.2516 207.176 63.1398C207.176 65.9514 206.722 68.3254 205.814 70.2618C204.917 72.1873 203.692 73.6478 202.138 74.6433C200.596 75.6279 198.867 76.1202 196.953 76.1202C195.596 76.1202 194.442 75.8959 193.49 75.4474C192.549 74.9989 191.778 74.4354 191.176 73.7572C190.575 73.0679 190.115 72.3732 189.798 71.6731H189.584V85.1622H182.594ZM189.437 63.107C189.437 64.6058 189.645 65.9131 190.06 67.029C190.476 68.1449 191.078 69.0146 191.865 69.6382C192.653 70.2509 193.61 70.5572 194.737 70.5572C195.875 70.5572 196.838 70.2454 197.625 69.6218C198.413 68.9873 199.009 68.1121 199.414 66.9962C199.83 65.8694 200.038 64.573 200.038 63.107C200.038 61.6519 199.835 60.372 199.431 59.267C199.026 58.1621 198.43 57.2978 197.642 56.6742C196.854 56.0506 195.886 55.7388 194.737 55.7388C193.599 55.7388 192.637 56.0397 191.849 56.6414C191.072 57.2431 190.476 58.0964 190.06 59.2014C189.645 60.3063 189.437 61.6082 189.437 63.107ZM222.284 76.2023C219.691 76.2023 217.459 75.6771 215.589 74.6269C213.729 73.5657 212.296 72.0669 211.289 70.1305C210.283 68.1832 209.779 65.8803 209.779 63.2219C209.779 60.6291 210.283 58.3535 211.289 56.3952C212.296 54.437 213.712 52.9108 215.539 51.8168C217.377 50.7228 219.532 50.1758 222.005 50.1758C223.668 50.1758 225.216 50.4438 226.649 50.9799C228.093 51.505 229.351 52.2982 230.423 53.3594C231.506 54.4206 232.349 55.7552 232.951 57.3634C233.552 58.9607 233.853 60.8314 233.853 62.9757V64.8957H212.569V60.5634H227.273C227.273 59.5569 227.054 58.6653 226.616 57.8886C226.179 57.1118 225.571 56.5046 224.795 56.067C224.029 55.6185 223.137 55.3942 222.12 55.3942C221.059 55.3942 220.118 55.6404 219.297 56.1327C218.488 56.614 217.853 57.265 217.394 58.0855C216.934 58.895 216.699 59.7976 216.688 60.7932V64.9121C216.688 66.1593 216.918 67.2369 217.377 68.1449C217.848 69.0529 218.51 69.7531 219.363 70.2454C220.216 70.7377 221.228 70.9838 222.399 70.9838C223.176 70.9838 223.887 70.8744 224.532 70.6556C225.178 70.4368 225.73 70.1086 226.19 69.671C226.649 69.2334 226.999 68.6974 227.24 68.0628L233.705 68.4895C233.377 70.043 232.704 71.3996 231.687 72.5592C230.68 73.7079 229.379 74.605 227.781 75.2505C226.195 75.885 224.363 76.2023 222.284 76.2023ZM237.375 75.71V50.504H244.153V54.9019H244.415C244.875 53.3375 245.646 52.156 246.729 51.3573C247.812 50.5478 249.059 50.143 250.471 50.143C250.821 50.143 251.198 50.1649 251.603 50.2086C252.008 50.2524 252.363 50.3125 252.67 50.3891V56.5922C252.341 56.4937 251.887 56.4062 251.308 56.3296C250.728 56.253 250.197 56.2147 249.716 56.2147C248.687 56.2147 247.768 56.439 246.959 56.8875C246.16 57.3251 245.526 57.9378 245.055 58.7255C244.596 59.5132 244.366 60.4212 244.366 61.4496V75.71H237.375ZM276.216 57.6916L269.816 58.0855C269.707 57.5385 269.472 57.0462 269.111 56.6086C268.75 56.16 268.274 55.8045 267.683 55.5419C267.103 55.2684 266.409 55.1317 265.599 55.1317C264.516 55.1317 263.602 55.3614 262.858 55.8209C262.115 56.2694 261.743 56.8711 261.743 57.626C261.743 58.2277 261.983 58.7364 262.465 59.1521C262.946 59.5679 263.772 59.9015 264.943 60.1532L269.505 61.0721C271.955 61.5754 273.782 62.3849 274.986 63.5008C276.189 64.6167 276.791 66.0827 276.791 67.8987C276.791 69.5507 276.304 71.0003 275.33 72.2474C274.367 73.4946 273.044 74.4683 271.359 75.1684C269.685 75.8577 267.754 76.2023 265.566 76.2023C262.229 76.2023 259.571 75.5076 257.591 74.1182C255.622 72.7178 254.467 70.8143 254.128 68.4075L261.004 68.0464C261.212 69.0639 261.715 69.8406 262.514 70.3767C263.312 70.9018 264.335 71.1644 265.583 71.1644C266.808 71.1644 267.792 70.9291 268.536 70.4587C269.291 69.9774 269.674 69.3592 269.685 68.6044C269.674 67.9698 269.406 67.4502 268.881 67.0454C268.356 66.6297 267.546 66.3124 266.452 66.0936L262.087 65.2239C259.626 64.7316 257.793 63.8783 256.59 62.6639C255.397 61.4496 254.801 59.9015 254.801 58.0198C254.801 56.4007 255.239 55.0058 256.114 53.8353C257 52.6647 258.242 51.7621 259.839 51.1276C261.447 50.4931 263.329 50.1758 265.484 50.1758C268.668 50.1758 271.173 50.8486 273 52.1942C274.838 53.5399 275.91 55.3723 276.216 57.6916ZM291.542 76.2023C288.96 76.2023 286.739 75.6553 284.879 74.5613C283.03 73.4563 281.608 71.9247 280.612 69.9664C279.628 68.0081 279.136 65.7545 279.136 63.2054C279.136 60.6236 279.633 58.359 280.629 56.4116C281.635 54.4534 283.063 52.9272 284.912 51.8332C286.761 50.7283 288.96 50.1758 291.509 50.1758C293.708 50.1758 295.633 50.5751 297.285 51.3737C298.937 52.1724 300.244 53.2937 301.207 54.7378C302.17 56.1819 302.7 57.8776 302.799 59.825H296.202C296.016 58.5668 295.524 57.5549 294.725 56.7891C293.937 56.0123 292.904 55.624 291.624 55.624C290.541 55.624 289.594 55.9193 288.785 56.5101C287.986 57.0899 287.362 57.9378 286.914 59.0537C286.465 60.1696 286.241 61.5207 286.241 63.107C286.241 64.7152 286.46 66.0827 286.898 67.2095C287.346 68.3363 287.975 69.1951 288.785 69.7859C289.594 70.3767 290.541 70.6721 291.624 70.6721C292.422 70.6721 293.139 70.5079 293.773 70.1797C294.419 69.8515 294.949 69.3757 295.365 68.7521C295.792 68.1175 296.071 67.3572 296.202 66.4711H302.799C302.69 68.3965 302.164 70.0922 301.224 71.5582C300.294 73.0132 299.008 74.151 297.367 74.9715C295.726 75.792 293.784 76.2023 291.542 76.2023ZM313.423 76.1859C311.814 76.1859 310.381 75.9069 309.123 75.3489C307.865 74.7801 306.87 73.9431 306.137 72.8382C305.415 71.7223 305.054 70.3329 305.054 68.67C305.054 67.2697 305.311 66.0936 305.825 65.1418C306.339 64.19 307.039 63.4242 307.925 62.8444C308.811 62.2646 309.818 61.827 310.945 61.5316C312.083 61.2362 313.275 61.0284 314.522 60.908C315.988 60.7549 317.17 60.6126 318.067 60.4814C318.964 60.3391 319.615 60.1313 320.02 59.8578C320.424 59.5843 320.627 59.1795 320.627 58.6434V58.545C320.627 57.5057 320.299 56.7016 319.642 56.1327C318.997 55.5638 318.078 55.2793 316.885 55.2793C315.627 55.2793 314.626 55.5583 313.882 56.1163C313.138 56.6633 312.646 57.3525 312.405 58.1839L305.94 57.6588C306.268 56.1272 306.913 54.8035 307.876 53.6876C308.839 52.5607 310.08 51.6965 311.601 51.0948C313.133 50.4821 314.905 50.1758 316.918 50.1758C318.318 50.1758 319.659 50.3399 320.939 50.6681C322.229 50.9963 323.373 51.505 324.368 52.1942C325.375 52.8835 326.168 53.7696 326.748 54.8527C327.328 55.9248 327.617 57.2103 327.617 58.7091V75.71H320.988V72.2146H320.791C320.386 73.0023 319.845 73.697 319.166 74.2987C318.488 74.8895 317.673 75.3544 316.721 75.6936C315.769 76.0218 314.67 76.1859 313.423 76.1859ZM315.425 71.3613C316.453 71.3613 317.361 71.1589 318.149 70.7541C318.936 70.3384 319.555 69.7804 320.003 69.0803C320.452 68.3801 320.676 67.5869 320.676 66.7008V64.0259C320.457 64.1682 320.156 64.2995 319.773 64.4198C319.401 64.5292 318.98 64.6331 318.51 64.7316C318.039 64.8191 317.569 64.9012 317.099 64.9777C316.628 65.0434 316.201 65.1035 315.819 65.1582C314.998 65.2786 314.281 65.47 313.669 65.7326C313.056 65.9952 312.58 66.3507 312.241 66.7993C311.902 67.2369 311.732 67.7839 311.732 68.4403C311.732 69.3921 312.077 70.1196 312.766 70.6228C313.466 71.1151 314.353 71.3613 315.425 71.3613ZM338.992 42.102V75.71H332.001V42.102H338.992ZM355.039 76.2023C352.446 76.2023 350.215 75.6771 348.344 74.6269C346.484 73.5657 345.051 72.0669 344.044 70.1305C343.038 68.1832 342.535 65.8803 342.535 63.2219C342.535 60.6291 343.038 58.3535 344.044 56.3952C345.051 54.437 346.468 52.9108 348.295 51.8168C350.133 50.7228 352.288 50.1758 354.76 50.1758C356.423 50.1758 357.971 50.4438 359.404 50.9799C360.848 51.505 362.107 52.2982 363.179 53.3594C364.262 54.4206 365.104 55.7552 365.706 57.3634C366.308 58.9607 366.608 60.8314 366.608 62.9757V64.8957H345.324V60.5634H360.028C360.028 59.5569 359.809 58.6653 359.372 57.8886C358.934 57.1118 358.327 56.5046 357.55 56.067C356.784 55.6185 355.893 55.3942 354.875 55.3942C353.814 55.3942 352.873 55.6404 352.053 56.1327C351.243 56.614 350.609 57.265 350.149 58.0855C349.69 58.895 349.454 59.7976 349.443 60.7932V64.9121C349.443 66.1593 349.673 67.2369 350.133 68.1449C350.603 69.0529 351.265 69.7531 352.118 70.2454C352.972 70.7377 353.984 70.9838 355.154 70.9838C355.931 70.9838 356.642 70.8744 357.287 70.6556C357.933 70.4368 358.485 70.1086 358.945 69.671C359.404 69.2334 359.754 68.6974 359.995 68.0628L366.461 68.4895C366.132 70.043 365.46 71.3996 364.442 72.5592C363.436 73.7079 362.134 74.605 360.537 75.2505C358.95 75.885 357.118 76.2023 355.039 76.2023ZM379.917 75.71V42.102H393.374C395.846 42.102 397.908 42.4685 399.56 43.2015C401.212 43.9345 402.454 44.9519 403.286 46.2538C404.117 47.5447 404.533 49.0326 404.533 50.7173C404.533 52.0301 404.27 53.1843 403.745 54.1799C403.22 55.1645 402.498 55.974 401.579 56.6086C400.671 57.2322 399.632 57.6752 398.461 57.9378V58.266C399.741 58.3207 400.939 58.6817 402.055 59.3491C403.182 60.0164 404.095 60.9518 404.795 62.1552C405.495 63.3477 405.846 64.7699 405.846 66.4218C405.846 68.2051 405.402 69.7968 404.516 71.1972C403.641 72.5866 402.345 73.686 400.627 74.4956C398.909 75.3052 396.793 75.71 394.276 75.71H379.917ZM387.023 69.9008H392.816C394.796 69.9008 396.24 69.5233 397.148 68.7685C398.056 68.0027 398.51 66.9852 398.51 65.7162C398.51 64.7863 398.286 63.9658 397.837 63.2547C397.389 62.5436 396.749 61.9856 395.917 61.5808C395.097 61.1761 394.118 60.9737 392.98 60.9737H387.023V69.9008ZM387.023 56.1655H392.291C393.264 56.1655 394.129 55.9959 394.884 55.6568C395.649 55.3067 396.251 54.8144 396.689 54.1799C397.137 53.5453 397.361 52.785 397.361 51.8989C397.361 50.6845 396.929 49.7054 396.065 48.9614C395.212 48.2175 393.997 47.8456 392.422 47.8456H387.023V56.1655ZM416.486 76.1859C414.877 76.1859 413.444 75.9069 412.186 75.3489C410.928 74.7801 409.933 73.9431 409.2 72.8382C408.478 71.7223 408.116 70.3329 408.116 68.67C408.116 67.2697 408.374 66.0936 408.888 65.1418C409.402 64.19 410.102 63.4242 410.988 62.8444C411.874 62.2646 412.881 61.827 414.008 61.5316C415.145 61.2362 416.338 61.0284 417.585 60.908C419.051 60.7549 420.233 60.6126 421.13 60.4814C422.027 60.3391 422.678 60.1313 423.083 59.8578C423.487 59.5843 423.69 59.1795 423.69 58.6434V58.545C423.69 57.5057 423.362 56.7016 422.705 56.1327C422.06 55.5638 421.141 55.2793 419.948 55.2793C418.69 55.2793 417.689 55.5583 416.945 56.1163C416.201 56.6633 415.709 57.3525 415.468 58.1839L409.003 57.6588C409.331 56.1272 409.976 54.8035 410.939 53.6876C411.902 52.5607 413.143 51.6965 414.664 51.0948C416.196 50.4821 417.968 50.1758 419.981 50.1758C421.381 50.1758 422.722 50.3399 424.002 50.6681C425.292 50.9963 426.436 51.505 427.431 52.1942C428.438 52.8835 429.231 53.7696 429.811 54.8527C430.391 55.9248 430.68 57.2103 430.68 58.7091V75.71H424.051V72.2146H423.854C423.449 73.0023 422.907 73.697 422.229 74.2987C421.551 74.8895 420.736 75.3544 419.784 75.6936C418.832 76.0218 417.733 76.1859 416.486 76.1859ZM418.488 71.3613C419.516 71.3613 420.424 71.1589 421.212 70.7541C421.999 70.3384 422.618 69.7804 423.066 69.0803C423.515 68.3801 423.739 67.5869 423.739 66.7008V64.0259C423.52 64.1682 423.219 64.2995 422.836 64.4198C422.464 64.5292 422.043 64.6331 421.573 64.7316C421.102 64.8191 420.632 64.9012 420.162 64.9777C419.691 65.0434 419.264 65.1035 418.882 65.1582C418.061 65.2786 417.344 65.47 416.732 65.7326C416.119 65.9952 415.643 66.3507 415.304 66.7993C414.965 67.2369 414.795 67.7839 414.795 68.4403C414.795 69.3921 415.14 70.1196 415.829 70.6228C416.529 71.1151 417.416 71.3613 418.488 71.3613ZM442.055 61.1378V75.71H435.064V50.504H441.727V54.9511H442.022C442.58 53.4852 443.515 52.3255 444.828 51.4722C446.141 50.6079 447.733 50.1758 449.604 50.1758C451.354 50.1758 452.88 50.5587 454.182 51.3245C455.484 52.0903 456.496 53.1843 457.218 54.6065C457.94 56.0178 458.301 57.7026 458.301 59.6609V75.71H451.31V60.908C451.321 59.3655 450.927 58.1621 450.129 57.2978C449.33 56.4226 448.231 55.985 446.83 55.985C445.889 55.985 445.058 56.1874 444.336 56.5922C443.625 56.9969 443.067 57.5877 442.662 58.3645C442.268 59.1303 442.066 60.0547 442.055 61.1378ZM469.105 68.4567L469.122 60.0711H470.139L478.213 50.504H486.237L475.39 63.1726H473.733L469.105 68.4567ZM462.771 75.71V42.102H469.762V75.71H462.771ZM478.525 75.71L471.107 64.7316L475.768 59.7921L486.713 75.71H478.525Z" fill="#212533"/>
<defs>
<linearGradient id="paint0_linear_6975_11750" x1="32.7696" y1="51.6706" x2="41.8672" y2="77.9295" gradientUnits="userSpaceOnUse">
<stop stop-color="#1F8BFE"/>
<stop offset="1" stop-color="#1F8BFE" stop-opacity="0"/>
</linearGradient>
<linearGradient id="paint1_linear_6975_11750" x1="87.5593" y1="66.7493" x2="78.4618" y2="40.4905" gradientUnits="userSpaceOnUse">
<stop stop-color="#1F8BFE"/>
<stop offset="1" stop-color="#1F8BFE" stop-opacity="0"/>
</linearGradient>
</defs>
</svg>
