<svg width="548" height="924" viewBox="0 0 548 924" fill="none" xmlns="http://www.w3.org/2000/svg">
<path d="M53.5261 475.813C265.698 316.013 119.793 150.974 53.5261 91.7606C-12.7403 150.974 -158.619 316.013 53.5261 475.813ZM97.6947 923.361L9.33038 923.337V748.015C-104.23 756.027 -446.788 755.907 -440.537 462.875C-440.21 443.552 -423.848 427.768 -402.728 425.137C-401.886 424.97 -229.506 400.911 -90.2595 453.764C-273.539 227.503 15.3373 16.4519 25.2854 9.27736C41.1861 -2.46496 64.8604 -2.94327 81.495 9.06212C82.4463 9.77957 383.499 223.892 197.366 453.74C336.585 400.935 508.911 424.946 509.754 425.042C530.819 427.768 547.208 443.552 547.535 462.875C553.813 755.859 211.337 756.027 97.6947 748.063V923.361ZM113.514 671.296C206.907 676.796 435.143 672.109 457.784 498.341C364.364 492.889 136.128 497.576 113.514 671.296ZM-350.786 498.341C-328.145 672.085 -99.9086 676.772 -6.5159 671.296C-29.1302 497.576 -257.366 492.889 -350.786 498.341Z" fill="white"/>
</svg>
