<svg width="169" height="28" viewBox="0 0 169 28" fill="none" xmlns="http://www.w3.org/2000/svg">
<rect width="27.6782" height="27.6782" fill="white"/>
<path fill-rule="evenodd" clip-rule="evenodd" d="M0 27.6782V27.6599L0.0183552 27.6782H0ZM26.2916 27.6782L13.6539 15.0406L1.01627 27.6782H26.2916ZM12.2673 13.6539L0 25.9212V9.47223L9.47223 0H25.9212L13.6539 12.2673L13.6538 12.2672L12.2672 13.6538L12.2673 13.6539ZM15.0406 13.6539L27.6782 1.01627V26.2916L15.0406 13.6539ZM6.7092 0H0V6.7092L6.7092 0Z" fill="url(#paint0_linear)"/>
<path d="M36.4474 21L42.1608 6.46405H43.7153L49.2875 21H47.8742L46.1986 16.4373H39.5766L37.8606 21H36.4474ZM40.041 15.2664H45.7342L42.8876 7.635L40.041 15.2664ZM52.4166 15.8115C52.4166 16.4037 52.4973 16.969 52.6588 17.5073C52.8203 18.0322 53.0491 18.4966 53.3453 18.9004C53.6548 19.2907 54.0249 19.607 54.4556 19.8492C54.8998 20.078 55.3978 20.1924 55.9496 20.1924C56.5687 20.1924 57.1071 20.0713 57.5647 19.829C58.0358 19.5733 58.4194 19.2301 58.7155 18.7994C59.0116 18.3687 59.2269 17.8707 59.3615 17.3054C59.4961 16.7267 59.55 16.1076 59.523 15.4481C59.523 14.7886 59.4288 14.2098 59.2404 13.7118C59.0654 13.2004 58.8164 12.7697 58.4934 12.4197C58.1704 12.0698 57.7935 11.8074 57.3628 11.6324C56.9321 11.444 56.4611 11.3497 55.9496 11.3497C55.3843 11.3497 54.8796 11.4641 54.4354 11.693C53.9913 11.9218 53.6212 12.238 53.3251 12.6418C53.029 13.0321 52.8002 13.5032 52.6386 14.055C52.4906 14.5934 52.4166 15.1789 52.4166 15.8115ZM52.4166 25.1185H51.2052V10.5422H52.4166V12.3794H52.4569C52.6319 12.0429 52.854 11.7401 53.1232 11.4709C53.4058 11.2017 53.7087 10.9796 54.0317 10.8046C54.3682 10.6297 54.7114 10.4951 55.0613 10.4009C55.4112 10.3067 55.7545 10.2595 56.0909 10.2595C56.9389 10.2595 57.6589 10.4009 58.2511 10.6835C58.8433 10.9662 59.3279 11.3565 59.7047 11.8545C60.095 12.339 60.3777 12.9177 60.5527 13.5907C60.7276 14.2637 60.8151 14.9837 60.8151 15.7509C60.8151 16.4777 60.7209 17.1776 60.5325 17.8505C60.344 18.5235 60.0547 19.1157 59.6644 19.6272C59.2875 20.1252 58.803 20.5289 58.2108 20.8385C57.632 21.1346 56.9456 21.2826 56.1515 21.2826C55.4112 21.2826 54.6979 21.1211 54.0115 20.7981C53.3385 20.4616 52.8069 19.9704 52.4166 19.3243V25.1185ZM70.9767 15.0443C70.9767 14.5328 70.9027 14.055 70.7546 13.6109C70.6201 13.1533 70.4114 12.763 70.1288 12.4399C69.8596 12.1035 69.5164 11.841 69.0992 11.6526C68.6819 11.4507 68.2041 11.3497 67.6658 11.3497C67.1274 11.3497 66.6496 11.4507 66.2323 11.6526C65.8286 11.8545 65.4786 12.1236 65.1825 12.4601C64.8999 12.7966 64.6711 13.1869 64.4961 13.6311C64.3211 14.0752 64.2067 14.5463 64.1529 15.0443H70.9767ZM64.1529 16.0537C64.1529 16.619 64.2269 17.1574 64.375 17.6688C64.523 18.1668 64.7384 18.6043 65.021 18.9811C65.3171 19.3445 65.6872 19.6406 66.1314 19.8694C66.5756 20.0848 67.087 20.1924 67.6658 20.1924C68.4598 20.1924 69.1395 19.9838 69.7048 19.5666C70.2701 19.1494 70.647 18.5572 70.8354 17.79H72.1881C72.04 18.288 71.8448 18.7523 71.6026 19.183C71.3603 19.6002 71.0575 19.9704 70.6941 20.2934C70.3307 20.603 69.9 20.8452 69.402 21.0202C68.904 21.1952 68.3253 21.2826 67.6658 21.2826C66.8313 21.2826 66.1112 21.1413 65.5055 20.8587C64.8999 20.576 64.4019 20.1924 64.0116 19.7079C63.6213 19.2099 63.3319 18.6312 63.1435 17.9717C62.955 17.2987 62.8608 16.5786 62.8608 15.8115C62.8608 15.0443 62.9685 14.3242 63.1838 13.6513C63.4126 12.9783 63.7289 12.3928 64.1327 11.8948C64.5499 11.3834 65.0547 10.9863 65.6469 10.7037C66.2391 10.4076 66.912 10.2595 67.6658 10.2595C69.1059 10.2595 70.2365 10.7575 71.0575 11.7535C71.8785 12.736 72.2823 14.1694 72.2688 16.0537H64.1529ZM78.2581 16.4777L75.0077 21H73.5339L77.5515 15.5894L73.8569 10.5422H75.3509L78.2379 14.7011L81.2057 10.5422H82.74L78.9647 15.5894L82.8813 21H81.4277L78.2581 16.4777ZM90.3779 21V6.46405H99.7455V7.635H91.7507V12.8841H99.0187V14.055H91.7507V21H90.3779ZM101.383 21V10.5422H102.594V21H101.383ZM101.322 8.26085V6.46405H102.654V8.26085H101.322ZM106.888 21H105.676V10.5422H106.888V11.9958C107.372 11.4843 107.87 11.0671 108.382 10.7441C108.906 10.4211 109.532 10.2595 110.259 10.2595C110.905 10.2595 111.504 10.3739 112.056 10.6028C112.608 10.8181 113.072 11.2017 113.449 11.7535C113.705 12.1304 113.853 12.5207 113.893 12.9245C113.947 13.3148 113.974 13.7253 113.974 14.156V21H112.763V14.1762C112.763 13.234 112.554 12.5274 112.137 12.0564C111.719 11.5853 111.026 11.3497 110.057 11.3497C109.68 11.3497 109.337 11.4103 109.028 11.5314C108.718 11.6391 108.435 11.7872 108.18 11.9756C107.937 12.164 107.729 12.3794 107.554 12.6216C107.379 12.8639 107.244 13.1196 107.15 13.3888C107.029 13.7253 106.955 14.0483 106.928 14.3579C106.901 14.6674 106.888 15.0039 106.888 15.3673V21ZM123.738 15.5086C123.227 15.724 122.709 15.8653 122.184 15.9326C121.659 15.9999 121.134 16.0537 120.609 16.0941C119.681 16.1614 118.954 16.37 118.429 16.72C117.917 17.0699 117.662 17.6015 117.662 18.3149C117.662 18.6379 117.722 18.9206 117.843 19.1628C117.978 19.3916 118.146 19.5868 118.348 19.7483C118.563 19.8963 118.806 20.0107 119.075 20.0915C119.358 20.1588 119.64 20.1924 119.923 20.1924C120.407 20.1924 120.878 20.1319 121.336 20.0107C121.794 19.8896 122.197 19.7079 122.547 19.4656C122.911 19.2099 123.2 18.8936 123.415 18.5168C123.631 18.1265 123.738 17.6688 123.738 17.1439V15.5086ZM121.699 14.903C121.928 14.8761 122.197 14.8357 122.507 14.7818C122.83 14.728 123.092 14.654 123.294 14.5598C123.496 14.4656 123.617 14.3108 123.658 14.0954C123.712 13.8666 123.738 13.658 123.738 13.4696C123.738 12.8504 123.537 12.3457 123.133 11.9554C122.742 11.5516 122.076 11.3497 121.134 11.3497C120.717 11.3497 120.333 11.3901 119.983 11.4709C119.633 11.5382 119.324 11.666 119.055 11.8545C118.799 12.0294 118.584 12.2717 118.409 12.5813C118.247 12.8774 118.139 13.2542 118.086 13.7118H116.854C116.894 13.0927 117.036 12.5678 117.278 12.1371C117.52 11.693 117.83 11.3363 118.207 11.0671C118.597 10.7845 119.041 10.5826 119.539 10.4614C120.051 10.3268 120.589 10.2595 121.154 10.2595C121.679 10.2595 122.17 10.3201 122.628 10.4412C123.099 10.5489 123.503 10.7306 123.839 10.9863C124.189 11.2286 124.459 11.5584 124.647 11.9756C124.849 12.3928 124.95 12.9043 124.95 13.5099V19.2032C124.95 19.6743 125.031 19.9771 125.192 20.1117C125.367 20.2328 125.71 20.1992 126.222 20.0107V20.9596C126.127 20.9865 125.986 21.0269 125.798 21.0808C125.623 21.1346 125.448 21.1615 125.273 21.1615C125.084 21.1615 124.903 21.1413 124.728 21.1009C124.526 21.074 124.364 21.0135 124.243 20.9192C124.122 20.8116 124.021 20.6904 123.94 20.5558C123.873 20.4078 123.826 20.253 123.799 20.0915C123.772 19.9165 123.759 19.7348 123.759 19.5464C123.247 20.1117 122.662 20.5424 122.002 20.8385C121.343 21.1346 120.629 21.2826 119.862 21.2826C119.405 21.2826 118.96 21.2221 118.53 21.1009C118.113 20.9798 117.742 20.7914 117.419 20.5357C117.096 20.2799 116.841 19.9704 116.652 19.607C116.464 19.2301 116.37 18.786 116.37 18.2745C116.37 16.4979 117.588 15.4481 120.024 15.1251L121.699 14.903ZM129.324 21H128.113V10.5422H129.324V11.9958C129.809 11.4843 130.307 11.0671 130.818 10.7441C131.343 10.4211 131.969 10.2595 132.696 10.2595C133.342 10.2595 133.941 10.3739 134.492 10.6028C135.044 10.8181 135.509 11.2017 135.885 11.7535C136.141 12.1304 136.289 12.5207 136.33 12.9245C136.383 13.3148 136.41 13.7253 136.41 14.156V21H135.199V14.1762C135.199 13.234 134.99 12.5274 134.573 12.0564C134.156 11.5853 133.463 11.3497 132.494 11.3497C132.117 11.3497 131.774 11.4103 131.464 11.5314C131.154 11.6391 130.872 11.7872 130.616 11.9756C130.374 12.164 130.165 12.3794 129.99 12.6216C129.815 12.8639 129.681 13.1196 129.586 13.3888C129.465 13.7253 129.391 14.0483 129.364 14.3579C129.337 14.6674 129.324 15.0039 129.324 15.3673V21ZM146.74 13.833C146.525 13.0523 146.155 12.4467 145.63 12.016C145.105 11.5718 144.439 11.3497 143.631 11.3497C143.012 11.3497 142.48 11.4776 142.036 11.7333C141.592 11.9891 141.229 12.3323 140.946 12.763C140.663 13.1802 140.455 13.658 140.32 14.1964C140.186 14.7213 140.118 15.2529 140.118 15.7913C140.118 16.3431 140.179 16.8815 140.3 17.4064C140.435 17.9313 140.643 18.4024 140.926 18.8196C141.208 19.2368 141.572 19.5733 142.016 19.829C142.46 20.0713 142.999 20.1924 143.631 20.1924C144.533 20.1924 145.253 19.9435 145.791 19.4455C146.343 18.9475 146.693 18.261 146.841 17.3862H148.133C148.026 17.9649 147.851 18.4966 147.608 18.9811C147.379 19.4522 147.077 19.8627 146.7 20.2126C146.336 20.5491 145.899 20.8116 145.388 21C144.876 21.1884 144.291 21.2826 143.631 21.2826C142.797 21.2826 142.077 21.1413 141.471 20.8587C140.865 20.576 140.367 20.1924 139.977 19.7079C139.587 19.2099 139.297 18.6244 139.109 17.9515C138.92 17.2785 138.826 16.5585 138.826 15.7913C138.826 15.0645 138.927 14.3713 139.129 13.7118C139.344 13.0389 139.654 12.4467 140.058 11.9352C140.461 11.4238 140.959 11.02 141.552 10.7239C142.157 10.4143 142.85 10.2595 143.631 10.2595C144.842 10.2595 145.818 10.5489 146.558 11.1277C147.312 11.7064 147.783 12.6082 147.972 13.833H146.74ZM150.376 21V10.5422H151.587V21H150.376ZM150.315 8.26085V6.46405H151.648V8.26085H150.315ZM161.514 15.5086C161.002 15.724 160.484 15.8653 159.959 15.9326C159.434 15.9999 158.909 16.0537 158.384 16.0941C157.456 16.1614 156.729 16.37 156.204 16.72C155.693 17.0699 155.437 17.6015 155.437 18.3149C155.437 18.6379 155.497 18.9206 155.619 19.1628C155.753 19.3916 155.921 19.5868 156.123 19.7483C156.339 19.8963 156.581 20.0107 156.85 20.0915C157.133 20.1588 157.415 20.1924 157.698 20.1924C158.183 20.1924 158.654 20.1319 159.111 20.0107C159.569 19.8896 159.973 19.7079 160.323 19.4656C160.686 19.2099 160.975 18.8936 161.191 18.5168C161.406 18.1265 161.514 17.6688 161.514 17.1439V15.5086ZM159.475 14.903C159.703 14.8761 159.973 14.8357 160.282 14.7818C160.605 14.728 160.868 14.654 161.07 14.5598C161.271 14.4656 161.393 14.3108 161.433 14.0954C161.487 13.8666 161.514 13.658 161.514 13.4696C161.514 12.8504 161.312 12.3457 160.908 11.9554C160.518 11.5516 159.851 11.3497 158.909 11.3497C158.492 11.3497 158.108 11.3901 157.759 11.4709C157.409 11.5382 157.099 11.666 156.83 11.8545C156.574 12.0294 156.359 12.2717 156.184 12.5813C156.022 12.8774 155.915 13.2542 155.861 13.7118H154.629C154.67 13.0927 154.811 12.5678 155.053 12.1371C155.295 11.693 155.605 11.3363 155.982 11.0671C156.372 10.7845 156.816 10.5826 157.314 10.4614C157.826 10.3268 158.364 10.2595 158.929 10.2595C159.454 10.2595 159.946 10.3201 160.403 10.4412C160.874 10.5489 161.278 10.7306 161.615 10.9863C161.965 11.2286 162.234 11.5584 162.422 11.9756C162.624 12.3928 162.725 12.9043 162.725 13.5099V19.2032C162.725 19.6743 162.806 19.9771 162.967 20.1117C163.142 20.2328 163.485 20.1992 163.997 20.0107V20.9596C163.903 20.9865 163.761 21.0269 163.573 21.0808C163.398 21.1346 163.223 21.1615 163.048 21.1615C162.86 21.1615 162.678 21.1413 162.503 21.1009C162.301 21.074 162.14 21.0135 162.018 20.9192C161.897 20.8116 161.796 20.6904 161.716 20.5558C161.648 20.4078 161.601 20.253 161.574 20.0915C161.547 19.9165 161.534 19.7348 161.534 19.5464C161.022 20.1117 160.437 20.5424 159.777 20.8385C159.118 21.1346 158.405 21.2826 157.637 21.2826C157.18 21.2826 156.736 21.2221 156.305 21.1009C155.888 20.9798 155.518 20.7914 155.195 20.5357C154.872 20.2799 154.616 19.9704 154.427 19.607C154.239 19.2301 154.145 18.786 154.145 18.2745C154.145 16.4979 155.363 15.4481 157.799 15.1251L159.475 14.903ZM166.07 21V6.46405H167.281V21H166.07Z" fill="#3E48A2"/>
<defs>
<linearGradient id="paint0_linear" x1="0" y1="0" x2="27.6782" y2="28.9807" gradientUnits="userSpaceOnUse">
<stop stop-color="#1790FF"/>
<stop offset="0.192708" stop-color="#345DF2"/>
<stop offset="0.713542" stop-color="#42175C"/>
</linearGradient>
</defs>
</svg>
