<svg width="30" height="30" viewBox="0 0 30 30" fill="none" xmlns="http://www.w3.org/2000/svg">
<path d="M10.7285 0.012024C10.4529 0.0119491 10.1885 0.121312 9.9935 0.316078C9.79847 0.510844 9.68876 0.775076 9.68846 1.0507V8.32935H28.919L20.1615 0.0142783L10.7285 0.012024ZM29.6234 10.5313C29.6235 10.3949 29.5967 10.2598 29.5445 10.1338C29.4923 10.0078 29.4157 9.8933 29.3192 9.79695C29.2226 9.70061 29.108 9.62427 28.9819 9.57233C28.8557 9.52039 28.7206 9.49386 28.5842 9.49427H21.3061V28.7242L29.62 19.9645L29.6234 10.5313ZM19.1008 29.4222C19.376 29.4215 19.6396 29.3116 19.8338 29.1168C20.0281 28.922 20.1372 28.6581 20.1372 28.383V21.1052H0.907585L9.66366 29.4202L19.1008 29.4222ZM0.205078 18.9041C0.205041 19.0405 0.231878 19.1756 0.284057 19.3017C0.336235 19.4278 0.412734 19.5423 0.509184 19.6388C0.605635 19.7353 0.720146 19.8119 0.846184 19.8641C0.972222 19.9164 1.10732 19.9433 1.24376 19.9433H8.52241V0.711991L0.206205 9.46947L0.205078 18.9041Z" fill="#0659A5"/>
</svg>
