<svg width="159" height="30" viewBox="0 0 159 30" fill="none" xmlns="http://www.w3.org/2000/svg">
<g clip-path="url(#clip0)">
<path d="M139.729 0.0117188C139.453 0.0116439 139.189 0.121007 138.994 0.315773C138.799 0.510539 138.689 0.774771 138.689 1.0504V8.32904H157.919L149.162 0.0139731L139.729 0.0117188ZM158.624 10.531C158.624 10.3946 158.597 10.2595 158.545 10.1335C158.493 10.0075 158.416 9.89299 158.32 9.79665C158.223 9.7003 158.108 9.62397 157.982 9.57203C157.856 9.52009 157.721 9.49356 157.585 9.49397H150.307V28.7239L158.621 19.9642L158.624 10.531ZM148.101 29.4219C148.376 29.4212 148.64 29.3113 148.834 29.1165C149.029 28.9217 149.138 28.6578 149.138 28.3827V21.1049H129.908L138.664 29.4199L148.101 29.4219ZM129.206 18.9038C129.206 19.0402 129.232 19.1753 129.285 19.3014C129.337 19.4275 129.413 19.542 129.51 19.6385C129.606 19.735 129.721 19.8116 129.847 19.8638C129.973 19.9161 130.108 19.943 130.244 19.943H137.523V0.711686L129.207 9.46917L129.206 18.9038Z" fill="#0659A5"/>
<path d="M41.0611 3.52085V12.4012H28.6877V3.52085L24.1827 3.51916V25.9105H28.6877V16.291H41.0611V25.9105H45.5743V3.52085H41.0611ZM101.01 3.52085V25.9066L120.782 25.9054L118.277 21.966H105.531V16.291H117.873V12.4947H105.531V7.36954H118.256L120.71 3.52085H101.01ZM7.43335 3.51803C2.74463 3.51803 0.376465 6.36581 0.376465 10.5129V18.8722C0.376465 23.67 3.42657 25.9111 7.40911 25.9111L21.5449 25.9083L18.9262 21.8164H8.28154C6.02129 21.8164 5.03672 20.9995 5.03672 18.4684V10.8854C5.03672 8.43838 5.8649 7.48367 8.34184 7.48367H19.0372L21.553 3.51831L7.43335 3.51803ZM81.2354 3.51155C78.5266 3.51155 75.7543 5.13776 75.7543 9.32348V10.3988C75.7543 14.7595 78.4246 16.426 81.094 16.4381H90.4706C91.4441 16.4381 92.2357 16.5993 92.2357 18.2461L92.2346 20.1493C92.2103 21.6248 91.4706 21.966 90.437 21.966H78.1028L75.576 25.9052H90.7256C94.381 25.9052 96.861 24.0885 96.861 19.8881V18.345C96.861 14.285 94.5571 12.3691 90.9831 12.3691H82.0307C81.0373 12.3691 80.3467 12.0966 80.3467 10.6265L80.3455 9.07888C80.3455 7.82689 80.8212 7.36954 81.9774 7.36954L93.7233 7.36504L96.1791 3.50732L81.2354 3.51155ZM58.6685 3.52423L48.0509 25.9083H53.0699L55.1377 21.2855H66.6745L68.7358 25.9083H73.7747L63.1329 3.52395L58.6685 3.52423ZM60.8935 8.17039L64.9736 17.4754H56.8391L60.8935 8.17039Z" fill="#010101"/>
</g>
<defs>
<clipPath id="clip0">
<rect width="158.247" height="29.434" fill="white" transform="translate(0.376465)"/>
</clipPath>
</defs>
</svg>
