<svg width="169" height="32" viewBox="0 0 169 32" fill="none" xmlns="http://www.w3.org/2000/svg">
<path fill-rule="evenodd" clip-rule="evenodd" d="M137.472 0H169V31.5288H137.472V0ZM141.877 4.34409V27.1215H164.592V4.34409H141.877Z" fill="#393B8F"/>
<path fill-rule="evenodd" clip-rule="evenodd" d="M144.548 23.8329L155.905 7.07444L162.05 6.95068L150.318 23.8329H144.548ZM0 31.3413V18.5575H5.46149C7.19949 18.5575 8.50208 19.2404 9.49483 20.6044C10.3024 21.7851 10.7369 23.2123 10.7369 24.9503C10.7369 26.626 10.3024 28.1156 9.37108 29.3558C8.37832 30.6593 7.07483 31.3423 5.46149 31.3423H0V31.3413ZM2.66932 20.8528V29.046H5.15165C6.14531 29.046 6.82822 28.6106 7.32414 27.8039C7.75955 27.0596 7.94563 26.1283 7.94563 24.9494C7.94563 23.9558 7.75955 23.0244 7.32414 22.2801C6.82822 21.2864 6.08298 20.8528 5.15165 20.8528H2.66932ZM18.4332 28.3631H20.9155C20.7295 29.4182 20.1712 30.1625 19.3022 30.784C18.557 31.2799 17.6265 31.5283 16.51 31.5283C15.2065 31.5283 14.1515 31.0306 13.3448 30.1011C12.4749 29.1698 12.0413 27.9891 12.0413 26.5004C12.0413 25.1987 12.4749 24.0813 13.2825 23.2114C14.1515 22.3415 15.2065 21.8456 16.51 21.8456C18.3718 21.8456 19.613 22.5285 20.2959 23.832C20.5443 24.2656 20.7304 24.8239 20.8541 25.383C20.9779 26.0045 21.0402 26.6251 21.0402 27.308H14.5851C14.5851 27.8039 14.772 28.2375 15.0819 28.672C15.5164 29.1698 15.9509 29.4182 16.51 29.4182C16.9436 29.4182 17.3781 29.2926 17.6889 29.1698C18.061 28.9846 18.3095 28.7353 18.4332 28.3631ZM14.5851 25.6938H18.4332C18.4332 25.2602 18.2471 24.8239 17.875 24.5149C17.4405 24.1428 17.006 23.9558 16.51 23.9558C16.0132 23.9558 15.5787 24.1428 15.2065 24.5149C15.0143 24.6455 14.8571 24.8212 14.7487 25.0268C14.6403 25.2324 14.5841 25.4614 14.5851 25.6938ZM22.5921 22.0326H25.0744V28.1761C25.0744 28.4868 25.2605 28.7976 25.5089 29.046C25.8188 29.2926 26.1919 29.4182 26.564 29.4182C27.06 29.4182 27.4954 29.2926 27.8666 28.9846C28.2397 28.6106 28.4258 28.2384 28.4258 27.8039V22.0326H30.8467V31.3413H28.4258V30.1625C27.6814 31.092 26.7501 31.5283 25.6336 31.5283C24.9038 31.5316 24.1899 31.315 23.5849 30.9068C22.9634 30.4732 22.5921 29.8518 22.5921 29.1074V22.0326ZM35.749 19.3633V22.0326H37.1772V23.7706H35.749V28.5483C35.749 28.7353 35.8728 28.9204 35.9974 29.046C36.1221 29.1698 36.3073 29.2312 36.5557 29.2312H36.9288C37.0525 29.1698 37.1148 29.1698 37.1772 29.1698V31.3413C36.8664 31.4046 36.5557 31.4669 36.3696 31.4669C36.1221 31.5283 35.8113 31.5283 35.3769 31.5283C34.7554 31.5283 34.3218 31.3413 33.8873 30.9068C33.5151 30.5347 33.329 30.1002 33.329 29.541V23.7697H32.0869V22.0317H33.329V20.7896L35.749 19.3633ZM38.2323 28.1761H40.7146C40.7146 28.6097 40.8392 28.9846 41.2105 29.2312C41.5213 29.4796 41.9558 29.6033 42.4526 29.6033C42.8871 29.6033 43.2592 29.5419 43.5077 29.4182C43.8184 29.2926 44.0045 28.9846 44.0045 28.6097C44.0045 28.1138 43.57 27.7416 42.5763 27.4932C40.963 27.0596 40.0317 26.8103 39.9079 26.6865C38.9152 26.2529 38.4183 25.6314 38.4183 24.7633C38.4183 23.8934 38.7905 23.2105 39.4734 22.6514C40.1563 22.094 41.0877 21.8447 42.2042 21.8447C43.3216 21.8447 44.1897 22.0931 44.9349 22.589C45.7425 23.1482 46.1761 23.8925 46.1761 24.9476H43.8798C43.8175 24.5754 43.6314 24.2647 43.3207 24.0795C42.9839 23.875 42.5972 23.7674 42.2033 23.7688C41.8311 23.7688 41.5213 23.8925 41.2719 24.0154C41.0244 24.2024 40.8998 24.3876 40.8998 24.6983C40.8998 25.0705 41.3966 25.3812 42.3279 25.5682C43.7552 25.8148 44.6865 26.0018 44.9963 26.1879C45.99 26.6233 46.4859 27.3685 46.4859 28.4236C46.4859 29.4787 46.0514 30.2854 45.1833 30.7822C44.4381 31.2781 43.5691 31.5265 42.4526 31.5265C41.2105 31.5265 40.2178 31.2158 39.4111 30.5952C38.6044 30.0378 38.2323 29.2312 38.2323 28.1761ZM52.2582 31.5283C50.9547 31.5283 49.8996 31.0306 49.0315 30.1011C48.2239 29.1698 47.7903 27.9891 47.7903 26.5004C47.7903 25.2602 48.2239 24.1437 49.0929 23.2114C49.9619 22.3415 51.017 21.8456 52.2582 21.8456C53.3756 21.8456 54.3683 22.2178 55.175 22.9007C56.0431 23.5222 56.4785 24.3894 56.4785 25.383H53.9952C53.9952 24.9494 53.8092 24.6387 53.4984 24.3894C53.1262 24.0804 52.7541 23.9558 52.2572 23.9558C51.6367 23.9558 51.2022 24.2042 50.83 24.7001C50.5193 25.1337 50.3332 25.7552 50.3332 26.4995C50.3332 27.3694 50.5193 28.0523 50.83 28.6097C51.2022 29.1074 51.6367 29.4182 52.2572 29.4182C52.6917 29.4182 53.1262 29.2312 53.4361 28.9204C53.8092 28.6097 53.9952 28.3008 53.9952 27.8654H56.4785C56.4785 28.9204 56.044 29.8518 55.175 30.5347C54.3069 31.1562 53.3756 31.5283 52.2582 31.5283ZM58.0927 18.5575H60.576V23.0244C60.8858 22.5908 61.3203 22.2801 61.8171 22.0949C62.313 21.9694 62.8722 21.8465 63.4305 21.8465C64.238 21.8465 64.9824 22.0949 65.6029 22.5908C66.2235 23.0244 66.5334 23.7074 66.5334 24.4526V31.3423H64.1134V25.5077C64.1134 25.0118 63.9264 24.6396 63.6789 24.3912C63.4314 24.1446 63.0583 24.019 62.6247 24.019C62.1279 24.019 61.631 24.1446 61.1965 24.4526C60.8244 24.7651 60.576 25.1355 60.576 25.6332V31.3423H58.0927V18.5575ZM74.5395 28.3631H76.9604C76.7743 29.4182 76.2161 30.1625 75.3462 30.784C74.6019 31.2799 73.6705 31.5283 72.6154 31.5283C71.3129 31.5283 70.2569 31.0306 69.3879 30.1011C68.5189 29.1698 68.1467 27.9891 68.1467 26.5004C68.1467 25.1987 68.5189 24.0813 69.3879 23.2114C70.1945 22.3415 71.312 21.8456 72.6154 21.8456C74.4158 21.8456 75.6569 22.5285 76.3399 23.832C76.6497 24.2656 76.8358 24.8239 76.9604 25.383C77.0842 26.0045 77.0842 26.6251 77.0842 27.308H70.6299C70.6299 27.8039 70.816 28.2375 71.1882 28.672C71.5604 29.1698 72.0572 29.4182 72.6154 29.4182C73.0499 29.4182 73.4221 29.2926 73.7952 29.1698C74.105 28.9846 74.3534 28.7353 74.5395 28.3631ZM70.629 25.6938H74.5386C74.5386 25.2602 74.2902 24.8239 73.918 24.5149C73.5459 24.1428 73.1114 23.9558 72.6145 23.9558C72.1186 23.9558 71.6218 24.1428 71.2487 24.5149C70.8774 24.8239 70.629 25.2602 70.629 25.6938ZM83.2277 31.3413V18.5575H89.7443C90.6756 18.5575 91.4823 18.8682 92.1028 19.5493C92.7858 20.2323 93.1579 21.0398 93.1579 22.0335C93.1579 22.5908 93.0324 23.0868 92.7858 23.5845C92.4835 24.0649 92.0534 24.4515 91.5437 24.701C92.1652 24.9494 92.6602 25.3839 93.0965 25.8817C93.4687 26.439 93.6538 26.9982 93.6538 27.6196C93.6538 28.6729 93.2817 29.5428 92.5988 30.2257C91.9158 30.9701 91.1715 31.3423 90.1779 31.3423H83.2277V31.3413ZM85.8347 20.8528V23.5836H88.9999C89.4335 23.5836 89.8066 23.4598 90.1164 23.2114C90.4263 22.963 90.55 22.6523 90.55 22.2801C90.55 21.8465 90.4263 21.5358 90.1164 21.225C89.8221 20.9761 89.4467 20.8437 89.0613 20.8528H85.8347ZM85.8347 25.8808V29.046H89.1851C89.6828 29.046 90.055 28.9204 90.4272 28.5483C90.7379 28.2375 90.9249 27.8654 90.9249 27.4318C90.9249 26.9982 90.7379 26.6251 90.4272 26.3152C90.055 26.0045 89.6828 25.8817 89.1851 25.8817H85.8347V25.8808ZM97.9997 24.8239H95.5156C95.5156 23.832 95.951 23.0859 96.7577 22.5285C97.502 22.0949 98.3719 21.8456 99.427 21.8456C100.854 21.8456 101.909 22.094 102.592 22.5285C103.151 22.9621 103.46 23.4598 103.46 24.1428V29.8518C103.46 30.4109 103.647 30.9068 104.019 31.3404H101.474C101.35 31.1553 101.227 31.0297 101.165 30.8445C101.083 30.6652 101.02 30.4778 100.978 30.2854C100.667 30.719 100.234 31.0297 99.7359 31.2167C99.3023 31.4037 98.7441 31.5274 98.0612 31.5274C97.1913 31.5274 96.5083 31.2167 96.0124 30.719C95.4533 30.1616 95.1425 29.4787 95.1425 28.7344C95.1425 27.9882 95.3909 27.3071 95.8272 26.8094C96.2608 26.3134 96.8805 26.0027 97.689 25.8799C99.1162 25.6314 99.7992 25.5059 99.8606 25.5059C100.605 25.3207 100.977 25.0723 100.977 24.823C100.977 24.4508 100.853 24.1418 100.543 24.0163C100.295 23.8311 99.922 23.7697 99.427 23.7697C98.9934 23.7697 98.6826 23.8934 98.3719 24.0163C98.1235 24.2051 97.9997 24.4517 97.9997 24.8239ZM100.978 28.1761V26.7488C100.171 26.8726 99.5507 27.0596 99.0548 27.1824C98.1235 27.4309 97.689 27.8654 97.689 28.4245C97.689 28.8581 97.7504 29.1074 97.9997 29.2926C98.2463 29.4796 98.5571 29.541 98.9934 29.541C99.427 29.541 99.8615 29.4173 100.234 29.1689C100.606 28.9846 100.854 28.6106 100.978 28.1761ZM105.634 22.0326H108.116V23.0859C108.439 22.6963 108.841 22.3795 109.295 22.1563C109.854 21.9694 110.35 21.8456 110.784 21.8456C111.653 21.8456 112.336 22.094 112.955 22.4671C113.577 22.963 113.949 23.5836 113.949 24.3288V31.3423H111.466V25.1987C111.466 24.8248 111.343 24.5158 111.094 24.3288C110.784 24.0822 110.473 24.0181 110.101 24.0181C109.605 24.0181 109.233 24.0813 108.922 24.2665C108.592 24.5181 108.317 24.8352 108.115 25.1978V31.3413H105.633V22.0326H105.634ZM115.936 18.5575H118.418V25.3839L121.273 22.0335H124.253L121.212 25.5709L124.564 31.3423H121.646L119.536 27.3712L118.419 28.5501V31.3432H115.937V18.5575H115.936Z" fill="#393B8F"/>
</svg>
