<svg width="200" height="171" viewBox="0 0 200 171" fill="none" xmlns="http://www.w3.org/2000/svg">
<path opacity="0.3" d="M85.0233 28.8284C87.5163 24.2361 92.3225 21.3765 97.5479 21.3765H166.162C171.564 21.3765 175.001 27.1536 172.424 31.9015L114.491 138.621C111.998 143.213 107.191 146.073 101.966 146.073H33.3523C27.9499 146.073 24.5126 140.296 27.09 135.548L85.0233 28.8284Z" fill="#36C6AF"/>
<path d="M65.2124 8.30183C67.3938 4.28359 71.5992 1.78137 76.1714 1.78137H144.785C148.837 1.78137 151.415 6.11422 149.482 9.67513L91.5485 116.394C89.3671 120.413 85.1617 122.915 80.5895 122.915H11.9759C7.92407 122.915 5.34608 118.582 7.27914 115.021L65.2124 8.30183Z" stroke="#36C6AF" stroke-width="3.56275"/>
<path opacity="0.1" d="M106.4 50.2049C108.892 45.6126 113.699 42.753 118.924 42.753H187.538C192.94 42.753 196.377 48.5301 193.8 53.278L135.867 159.997C133.374 164.589 128.567 167.449 123.342 167.449H54.7285C49.3262 167.449 45.8888 161.672 48.4663 156.924L106.4 50.2049Z" fill="#36C6AF"/>
</svg>
