<svg width="170" height="170" viewBox="0 0 170 170" fill="none" xmlns="http://www.w3.org/2000/svg">
<rect width="169.826" height="169.826" rx="16.9826" fill="#DC1B37"/>
<path d="M84.9168 85.3095C114.867 62.7351 94.271 39.4209 84.9168 31.056C75.5626 39.4209 54.9704 62.7351 84.9168 85.3095ZM91.1516 148.533L78.6781 148.529V123.762C62.6479 124.894 14.2925 124.877 15.1749 83.4818C15.221 80.7521 17.5308 78.5223 20.512 78.1507C20.6309 78.1271 44.964 74.7284 64.62 82.1946C38.7484 50.2317 79.5261 20.4175 80.9303 19.404C83.1749 17.7452 86.5167 17.6776 88.8649 19.3736C88.9992 19.4749 131.496 49.7216 105.221 82.1913C124.873 74.7318 149.199 78.1237 149.318 78.1372C152.291 78.5223 154.605 80.7521 154.651 83.4818C155.537 124.87 107.193 124.894 91.1516 123.769V148.533ZM93.3847 112.924C106.568 113.701 138.786 113.039 141.982 88.492C128.795 87.7217 96.5769 88.3838 93.3847 112.924ZM27.8441 88.492C31.0402 113.036 63.258 113.698 76.4413 112.924C73.249 88.3838 41.0313 87.7217 27.8441 88.492Z" fill="white"/>
<path fill-rule="evenodd" clip-rule="evenodd" d="M118.272 147.016C118.272 149.529 116.235 151.565 113.723 151.565H56.1032C53.5909 151.565 51.5543 149.529 51.5543 147.016C51.5543 144.504 53.5909 142.467 56.1032 142.467H113.723C116.235 142.467 118.272 144.504 118.272 147.016Z" fill="white"/>
</svg>
