<svg width="169" height="37" viewBox="0 0 169 37" fill="none" xmlns="http://www.w3.org/2000/svg">
<path d="M58.9967 17.6939H63.3106V25.9719C62.203 26.8075 60.9205 27.4487 59.4631 27.8957C58.0057 28.3426 56.5386 28.5661 55.0618 28.5661C52.9437 28.5661 51.0394 28.1191 49.3488 27.2253C47.6582 26.312 46.3271 25.0586 45.3555 23.4652C44.4034 21.8524 43.9273 20.0355 43.9273 18.0146C43.9273 15.9936 44.4034 14.1865 45.3555 12.5931C46.3271 10.9802 47.6679 9.72687 49.3779 8.833C51.0879 7.9197 53.0117 7.46305 55.1492 7.46305C56.9369 7.46305 58.5595 7.76425 60.0169 8.36663C61.4743 8.96902 62.6985 9.84346 63.6895 10.9899L60.6581 13.7881C59.2008 12.253 57.4422 11.4855 55.3824 11.4855C54.0805 11.4855 52.9243 11.7575 51.9138 12.3016C50.9033 12.8457 50.1163 13.6132 49.5528 14.6043C48.9893 15.5953 48.7075 16.7321 48.7075 18.0146C48.7075 19.2776 48.9893 20.4047 49.5528 21.3957C50.1163 22.3867 50.8936 23.164 51.8847 23.7275C52.8951 24.2716 54.0416 24.5437 55.3241 24.5437C56.6843 24.5437 57.9085 24.2522 58.9967 23.6692V17.6939ZM73.8179 28.4495C72.1662 28.4495 70.6797 28.1094 69.3583 27.4293C68.0564 26.7298 67.0362 25.7679 66.2978 24.5437C65.5594 23.3195 65.1902 21.9301 65.1902 20.3755C65.1902 18.821 65.5594 17.4316 66.2978 16.2074C67.0362 14.9832 68.0564 14.031 69.3583 13.3509C70.6797 12.6514 72.1662 12.3016 73.8179 12.3016C75.4697 12.3016 76.9465 12.6514 78.2484 13.3509C79.5503 14.031 80.5705 14.9832 81.3089 16.2074C82.0473 17.4316 82.4166 18.821 82.4166 20.3755C82.4166 21.9301 82.0473 23.3195 81.3089 24.5437C80.5705 25.7679 79.5503 26.7298 78.2484 27.4293C76.9465 28.1094 75.4697 28.4495 73.8179 28.4495ZM73.8179 24.7186C74.9839 24.7186 75.936 24.3299 76.6744 23.5527C77.4323 22.7559 77.8112 21.6969 77.8112 20.3755C77.8112 19.0542 77.4323 18.0049 76.6744 17.2276C75.936 16.4309 74.9839 16.0325 73.8179 16.0325C72.652 16.0325 71.6901 16.4309 70.9323 17.2276C70.1745 18.0049 69.7955 19.0542 69.7955 20.3755C69.7955 21.6969 70.1745 22.7559 70.9323 23.5527C71.6901 24.3299 72.652 24.7186 73.8179 24.7186ZM106.973 17.6065C108.139 17.9757 109.052 18.5975 109.713 19.472C110.373 20.327 110.704 21.386 110.704 22.6491C110.704 24.4368 110.004 25.8165 108.605 26.7881C107.226 27.7402 105.205 28.2163 102.542 28.2163H91.9909V7.81282H101.959C104.447 7.81282 106.351 8.28891 107.672 9.24107C109.013 10.1932 109.684 11.4855 109.684 13.1177C109.684 14.1088 109.441 14.9929 108.955 15.7702C108.489 16.5475 107.828 17.1596 106.973 17.6065ZM96.6837 11.3689V16.1783H101.377C102.542 16.1783 103.427 15.9742 104.029 15.5661C104.631 15.1581 104.933 14.5557 104.933 13.759C104.933 12.9623 104.631 12.3696 104.029 11.981C103.427 11.5729 102.542 11.3689 101.377 11.3689H96.6837ZM102.193 24.6603C103.436 24.6603 104.369 24.4562 104.991 24.0482C105.632 23.6401 105.953 23.0086 105.953 22.1536C105.953 20.463 104.699 19.6177 102.193 19.6177H96.6837V24.6603H102.193ZM119.263 12.3016C121.692 12.3016 123.558 12.8845 124.859 14.0505C126.161 15.1969 126.812 16.9361 126.812 19.2679V28.2163H122.557V26.2634C121.702 27.7208 120.108 28.4495 117.777 28.4495C116.572 28.4495 115.522 28.2455 114.629 27.8374C113.754 27.4293 113.084 26.8658 112.617 26.1468C112.151 25.4278 111.918 24.6117 111.918 23.6984C111.918 22.241 112.462 21.0945 113.55 20.259C114.658 19.4234 116.358 19.0056 118.651 19.0056H122.265C122.265 18.0146 121.964 17.2567 121.362 16.7321C120.759 16.188 119.856 15.9159 118.651 15.9159C117.815 15.9159 116.99 16.0519 116.173 16.324C115.377 16.5766 114.697 16.9264 114.133 17.3733L112.501 14.1962C113.356 13.5938 114.376 13.1274 115.561 12.7971C116.766 12.4668 118 12.3016 119.263 12.3016ZM118.913 25.389C119.691 25.389 120.38 25.2141 120.983 24.8643C121.585 24.4951 122.013 23.9607 122.265 23.2612V21.658H119.146C117.281 21.658 116.348 22.2702 116.348 23.4944C116.348 24.0773 116.572 24.5437 117.019 24.8935C117.485 25.2238 118.117 25.389 118.913 25.389ZM139.439 12.3016C141.382 12.3016 142.946 12.8845 144.132 14.0505C145.336 15.2164 145.939 16.9458 145.939 19.2388V28.2163H141.392V19.9383C141.392 18.6947 141.12 17.7717 140.576 17.1693C140.031 16.5475 139.244 16.2365 138.215 16.2365C137.068 16.2365 136.155 16.596 135.475 17.315C134.795 18.0146 134.455 19.0639 134.455 20.463V28.2163H129.907V12.5348H134.251V14.3711C134.853 13.7104 135.601 13.2052 136.495 12.8554C137.389 12.4862 138.37 12.3016 139.439 12.3016ZM155.773 22.0661L153.587 24.2231V28.2163H149.04V6.58862H153.587V18.8307L160.233 12.5348H165.655L159.125 19.1805L166.238 28.2163H160.729L155.773 22.0661Z" fill="#DC1B37"/>
<rect y="1.29688" width="34.0058" height="34.0058" rx="3.40058" fill="#DC1B37"/>
<path d="M17.1456 18.5217C23.1929 13.9637 19.0343 9.2563 17.1456 7.56734C15.2569 9.2563 11.0991 13.9637 17.1456 18.5217ZM18.4045 31.2872L15.886 31.2865V26.2858C12.6493 26.5143 2.88575 26.5109 3.06393 18.1527C3.07323 17.6015 3.5396 17.1513 4.14154 17.0763C4.16555 17.0715 9.07869 16.3853 13.0475 17.8928C7.82368 11.4391 16.0572 5.41929 16.3407 5.21465C16.7939 4.87973 17.4687 4.86608 17.9428 5.20851C17.9699 5.22898 26.5505 11.3361 21.2453 17.8921C25.2133 16.386 30.1249 17.0708 30.1489 17.0736C30.7493 17.1513 31.2165 17.6015 31.2258 18.1527C31.4047 26.5096 21.6435 26.5143 18.4045 26.2872V31.2872ZM18.8554 24.0975C21.5172 24.2544 28.0224 24.1207 28.6677 19.1643C26.0051 19.0088 19.4999 19.1425 18.8554 24.0975ZM5.62198 19.1643C6.26731 24.12 12.7725 24.2537 15.4343 24.0975C14.7898 19.1425 8.28462 19.0088 5.62198 19.1643Z" fill="white"/>
<path fill-rule="evenodd" clip-rule="evenodd" d="M23.6827 30.7351C23.6827 31.2381 23.2749 31.646 22.7718 31.646H11.2341C10.7311 31.646 10.3232 31.2381 10.3232 30.7351C10.3232 30.232 10.7311 29.8242 11.2341 29.8242H22.7718C23.2749 29.8242 23.6827 30.232 23.6827 30.7351Z" fill="white"/>
</svg>
