<svg width="155" height="50" viewBox="0 0 155 50" fill="none" xmlns="http://www.w3.org/2000/svg">
<g clip-path="url(#clip0)">
<path d="M19.9203 14.7846C19.8993 14.7846 19.9287 24.1538 19.9287 24.1538C19.9298 25.3311 18.9146 26.3587 17.5902 26.3599L16.3218 26.361L16.3222 26.841L27.0685 26.8313L27.068 26.3513L25.7996 26.3525C24.4927 26.3536 23.4616 25.3069 23.4606 24.1507L23.4418 3.28181C23.4407 2.13956 24.4489 1.07348 25.7768 1.07229L27.0452 1.07114L27.0448 0.591116L16.2985 0.60081L16.299 1.07733L17.5674 1.07619C18.9128 1.07497 19.9089 2.14275 19.9099 3.28149L19.9191 13.4566L7.18264 13.4681L7.17346 3.29298C7.17243 2.15073 8.2016 1.08464 9.50853 1.08346L10.7769 1.08231L10.7765 0.605791L0.026718 0.615488L0.0271479 1.09201L1.29904 1.09086C2.62349 1.08967 3.63706 2.15742 3.63809 3.29617L3.65692 24.165C3.65796 25.3248 2.6463 26.3698 1.32184 26.371L0.0499524 26.3722L0.0503854 26.8522L10.7967 26.8425L10.7962 26.366L9.52783 26.3671C8.2209 26.3683 7.18983 25.3216 7.18879 24.1653C7.18879 24.1653 7.19785 14.7961 7.18033 14.7961L19.9203 14.7846ZM45.4819 19.9507C45.5779 21.4923 44.6235 23.8302 43.2966 25.0333C41.797 26.4244 39.8256 27.195 37.78 27.1896C35.019 27.1921 32.6456 25.7226 31.7798 25.387C31.2506 25.1913 30.5638 25.2164 30.1576 25.4691C29.6779 25.7603 29.384 26.2406 29.2727 27.1272L28.8697 27.1275L28.8615 18.0316L29.2644 18.0312C29.6349 20.8305 30.9433 22.4691 31.757 23.4074C33.0828 24.9303 35.5854 25.7935 37.9957 25.4059C39.912 25.0924 42.0054 23.0127 41.7718 20.4376C41.6904 19.5091 41.4825 18.1604 39.5507 16.8972C38.3377 16.1064 36.6163 14.9868 34.9825 13.9056C32.9245 12.5409 31.0556 11.064 30.526 10.4653C29.8421 9.68456 28.9826 8.55359 28.981 6.74912C28.9796 5.20743 29.5631 3.43747 30.8164 2.25905C32.0662 1.08063 33.7578 0.196134 36.186 0.193944C38.6141 0.191754 40.4583 1.4795 41.0822 1.77326C41.349 1.90155 41.6413 1.96803 41.9374 1.96776C42.2334 1.9675 42.5256 1.90049 42.7921 1.77172C43.1808 1.55063 43.4363 1.21403 43.5477 0.337968L43.9471 0.337608L43.9549 8.94653L43.5554 8.94689C43.185 6.15116 41.9673 4.05346 41.1186 3.27988C40.27 2.5063 38.6152 1.44262 36.149 1.92487C33.7878 2.3825 32.636 3.45572 32.4205 5.34798C32.2536 6.78821 33.0393 7.68098 33.4917 8.22017C34.4142 9.32304 40.2546 12.6254 42.8986 14.911C44.2661 16.0871 45.3326 17.4841 45.4819 19.9507ZM62.4977 13.4007C67.1733 15.0012 68.5112 18.3042 67.6453 21.7037C66.6293 25.706 62.1206 26.5264 60.6562 26.724C59.9975 26.8051 58.3122 26.7997 56.6444 26.8012C53.6696 26.8074 49.91 26.8002 46.8897 26.803L46.8892 26.3229L48.4344 26.3215C49.419 26.3206 50.543 25.4927 50.5419 24.2419L50.523 3.29242C50.5218 2.04155 49.3963 1.19464 48.4223 1.19552L46.8771 1.19691L46.8766 0.71338L56.2074 0.704963C58.4533 0.702937 59.6728 0.919075 60.4578 1.07254C61.7825 1.32712 65.6483 2.46589 66.573 6.0705C67.2868 8.86592 65.899 12.3885 62.4977 13.4007ZM54.0283 12.6725C55.318 13.0007 59.1092 13.0849 60.58 12.1516C62.8842 10.6849 63.6809 8.33659 63.2551 6.25569C63.0078 4.96462 62.2711 3.81908 61.1989 3.05854C58.9516 1.47684 55.7142 1.73554 54.0224 2.25213L54.0318 12.6725L54.0283 12.6725ZM54.0397 25.3249C55.8587 25.8874 59.3173 26.3152 61.7299 24.5892C64.6222 22.5158 65.2273 17.4522 61.136 14.8175C59.4917 13.7573 55.3888 13.8346 54.0261 14.1547L54.0362 25.3249L54.0397 25.3249ZM92.2236 0.991323L92.61 9.88021L92.081 9.89821C91.8196 7.65249 90.9773 6.06951 89.9042 5.04385C89.5956 4.74631 89.0134 4.14417 88.172 3.61585C86.4071 2.47582 84.2779 2.04124 82.2074 2.39839C78.4904 3.06397 76.5795 5.52188 75.6286 7.88783C74.4504 10.7971 73.7086 15.7662 75.7061 19.962C77.3349 23.3628 80.4511 24.7755 82.8516 25.1377C84.9016 25.4512 89.4425 25.3525 92.9001 20.6753L93.4505 21.0427C90.7665 24.8363 87.1982 27.2676 83.1092 27.2363C77.8885 27.1919 74.6028 24.3218 73.0981 22.6062C71.5127 20.8067 70.2973 17.3845 70.2771 14.3993C70.2642 11.7504 70.8467 8.79614 71.7947 7.07139C73.4318 4.10917 76.8524 1.15936 81.3579 0.717314C84.7318 0.377902 86.9503 1.04163 88.8469 2.12261C89.7969 2.66484 90.3296 2.72743 90.8444 2.50973C91.3558 2.28853 91.7724 1.84667 91.7716 0.977716L92.2236 0.977308L92.2236 0.991323Z" fill="black"/>
<path d="M101.268 13.6563L114.391 26.7558L114.368 0.533095L101.268 13.6563ZM114.391 26.7558L140.614 26.7321L127.491 13.6326L114.391 26.7558ZM127.491 13.6326L140.59 0.50944L114.368 0.533095L127.491 13.6326Z" fill="#CF4037"/>
<path d="M140.59 0.509921L140.614 26.7326L153.713 13.6095L140.59 0.509921ZM19.8352 44.6096C19.8341 43.3797 20.5339 42.3805 21.7147 42.3794C23.0882 42.3782 23.6602 43.3518 23.6298 44.6062L19.8352 44.6096ZM109.692 45.3519C109.728 46.7394 109.418 48.1903 107.739 48.1918C106.902 48.1926 106.26 47.7271 106.259 46.8021C106.258 45.7089 107.404 45.3995 108.273 45.3532L109.692 45.3519ZM89.7023 45.2578C89.7009 43.6601 90.2463 42.3176 91.9386 42.3161C93.624 42.3146 94.1788 43.6595 94.1802 45.2538C94.1817 46.8586 93.6293 48.201 91.944 48.2025C90.2516 48.2076 89.7038 46.8626 89.7023 45.2578ZM63.4866 45.271C63.4854 43.8659 63.9009 42.2993 65.6038 42.2978C67.2155 42.2963 67.7285 43.9041 67.7298 45.2671C67.731 46.6722 67.326 48.2668 65.6091 48.2683C64.0114 48.2698 63.4879 46.676 63.4866 45.271ZM45.2912 45.2979C45.2898 43.7001 45.8422 42.3577 47.5275 42.3562C49.2199 42.3546 49.7712 43.6996 49.7726 45.2939C49.7741 46.8986 49.2252 48.2411 47.5328 48.2426C45.8475 48.2476 45.2926 46.9027 45.2912 45.2979ZM3.68146 39.5856L0.061993 39.5889L0.0608331 38.303L8.78889 38.2951L8.79005 39.581L5.17409 39.5843L5.18266 49.0867L3.69003 49.088L3.68146 39.5856ZM147.761 48.9581L147.751 38.1698L149.17 38.1685L149.176 44.5174L151.983 41.4525L153.819 41.4509L150.655 44.6387L154.019 48.9524L152.183 48.9541L149.208 44.9098L149.176 44.9099L149.18 48.9568L147.761 48.9581ZM140.299 42.5738L140.33 42.5738C140.81 41.6273 141.853 41.2409 142.596 41.2403C143.118 41.2398 145.438 41.3708 145.44 43.778L145.445 48.9602L144.026 48.9614L144.021 44.2453C144.02 43.0049 143.494 42.3327 142.299 42.3337C142.299 42.3337 141.525 42.2854 140.926 42.8851C140.716 43.0955 140.328 43.4217 140.329 44.8863L140.333 48.9648L138.914 48.9661L138.907 41.4643L140.294 41.4631L140.295 42.5738L140.299 42.5738ZM135.228 45.3289C135.257 46.7164 134.947 48.1673 133.272 48.1688C132.434 48.1695 131.793 47.7041 131.792 46.7791C131.791 45.6859 132.94 45.3765 133.805 45.3302L135.228 45.3289ZM133.941 44.3385C132.165 44.3401 130.298 44.9549 130.299 47.0642C130.301 48.5253 131.615 49.1969 132.915 49.1957C133.945 49.1948 134.782 48.7911 135.244 47.8481L135.272 47.8481C135.286 48.1915 135.318 48.5208 135.35 48.8642C135.361 49.0463 135.62 48.969 135.75 48.9689L136.706 48.968C136.645 47.7137 136.642 43.7964 136.642 43.7964C136.64 41.7046 135.115 41.2435 133.577 41.2449C132.099 41.2462 130.813 41.829 130.738 43.4724L132.237 43.471C132.251 42.6932 132.92 42.2756 133.638 42.275C135.148 42.2736 135.222 43.0339 135.223 44.3338L133.941 44.335L133.941 44.3385ZM127.228 45.224C127.23 46.6325 126.709 48.1712 125.111 48.1726C123.391 48.1742 122.99 46.6363 122.989 45.2278C122.988 43.8753 123.494 42.2876 125.106 42.2862C126.809 42.2846 127.227 43.8259 127.228 45.224ZM123.019 47.8592L122.991 47.7856L123.019 47.7856C123.528 48.8328 124.517 49.2033 125.606 49.2023C127.831 49.2003 128.726 47.1532 128.725 45.2226C128.723 43.1904 127.673 41.2537 125.343 41.2558C124.39 41.2567 123.448 41.6009 123.011 42.4983L122.983 42.4983L122.979 38.1921L121.56 38.1934L121.569 47.7869C121.569 48.0812 121.524 48.5333 121.493 48.9818L122.957 48.9804L123.019 47.8592ZM113.504 48.989L113.494 38.2007L114.91 38.1994L114.919 48.9877L113.504 48.989ZM108.409 44.3615C106.632 44.3631 104.765 44.978 104.767 47.0873C104.768 48.5484 106.086 49.2199 107.383 49.2187C108.413 49.2178 109.25 48.8141 109.712 47.8712L109.74 47.8711C109.761 48.2145 109.786 48.5438 109.814 48.8872C109.828 49.0694 110.088 48.9921 110.217 48.9919L111.174 48.9911C111.113 47.7368 111.11 43.8195 111.11 43.8195C111.108 41.7277 109.583 41.2665 108.041 41.2679C106.563 41.2693 105.277 41.8521 105.205 43.4954L106.701 43.4941C106.715 42.7162 107.384 42.2987 108.102 42.298C109.612 42.2966 109.683 43.0569 109.684 44.3568L108.409 44.358L108.409 44.3615ZM102.045 43.9047C101.971 42.9623 101.522 42.3074 100.509 42.3084C99.1495 42.3096 98.625 43.4873 98.6266 45.2498C98.6282 47.0157 99.1513 48.196 100.514 48.1948C101.457 48.194 102.038 47.5768 102.111 46.5045L103.53 46.5032C103.412 48.1922 102.159 49.2235 100.498 49.225C98.0906 49.2271 97.136 47.5216 97.134 45.3142C97.132 43.1173 98.2376 41.2803 100.613 41.2781C102.197 41.2767 103.389 42.2777 103.468 43.9034L102.045 43.9047ZM91.9377 41.286C89.471 41.2882 88.2041 42.9326 88.2062 45.2592C88.2083 47.5927 89.4817 49.2349 91.9449 49.2327C94.4081 49.2304 95.682 47.5825 95.6799 45.2524C95.6778 42.9259 94.4009 41.2837 91.9377 41.286ZM84.7408 49.0149L84.7311 38.2266L86.1501 38.2253L86.1598 49.0136L84.7408 49.0149ZM75.6344 41.3007C77.0534 41.2994 78.6517 41.8936 78.5481 43.5966L77.0555 43.5979C77.1142 42.6448 76.3816 42.3301 75.5582 42.3309C74.7944 42.3316 74.1815 42.693 74.1823 43.5269C74.183 44.3643 75.469 44.4227 76.0052 44.5869C77.2775 45.0063 78.7422 45.1521 78.7438 46.8444C78.7454 48.6805 76.9555 49.2532 75.4138 49.2546C73.8406 49.256 72.5295 48.5389 72.5419 46.808L74.0346 46.8066C74.0669 47.7351 74.6946 48.2251 75.56 48.2243C76.3939 48.2236 77.2486 47.8899 77.2477 46.9194C77.2462 45.2445 72.6888 46.5065 72.6862 43.5773C72.6918 42.0041 74.2749 41.3019 75.6344 41.3007ZM71.6547 38.2419L73.3891 38.2403L71.7211 41.8999L70.705 41.9008L71.6547 38.2419ZM67.7133 42.5517L67.6818 42.5517C67.2465 41.6516 66.3071 41.3126 65.3506 41.3134C63.0205 41.3156 61.9922 43.2576 61.994 45.2863C61.9957 47.2169 62.8771 49.2624 65.1055 49.2604C66.1987 49.2594 67.1829 48.8871 67.6865 47.839L67.7181 47.839L67.7181 47.9126L67.7612 49.0337L69.2118 49.0324C69.1834 48.598 69.1374 48.153 69.137 47.7045L69.1285 38.2442L67.7094 38.2455L67.7133 42.5517ZM58.5286 49.0386L58.5189 38.2502L59.9379 38.249L59.9476 49.0373L58.5286 49.0386ZM54.4817 49.0422L53.0626 49.0435L53.0558 41.5418L54.4749 41.5405L54.4762 42.9911L54.5077 42.9911C54.717 41.9572 55.6696 41.4378 56.7032 41.4369C56.8819 41.4367 57.0326 41.4471 57.1973 41.4469L57.1985 42.7889C57.0022 42.719 56.778 42.7192 56.5853 42.7194C54.7949 42.7771 54.4769 43.7374 54.4783 45.3211L54.4817 49.0422ZM47.5266 41.326C45.0634 41.3282 43.793 42.9727 43.7951 45.2992C43.7972 47.6328 45.0705 49.275 47.5337 49.2727C50.0039 49.2705 51.2709 47.6226 51.2687 45.2925C51.2667 42.966 49.9968 41.3238 47.5266 41.326ZM42.9122 41.5544L40.2736 49.0585L38.6618 49.06L36.9078 42.8878L36.8763 42.8878L34.9408 49.0633L33.2834 49.0648L30.796 41.5654L32.3341 41.564L34.1476 47.603L34.1791 47.6029L36.0412 41.5606L37.8772 41.559L39.5714 47.4754L39.6029 47.4754L41.4651 41.5557L42.9122 41.5544ZM25.1234 45.5894L25.1227 44.8886C25.1209 42.8073 24.0579 41.3892 21.8189 41.3492C19.4433 41.3514 18.3378 43.1884 18.3397 45.3853C18.3417 47.5927 19.2998 49.2982 21.7035 49.296C23.4974 49.2944 24.8141 48.4418 25.0333 46.7352L23.5407 46.7366C23.3805 47.8299 22.8273 48.2684 21.72 48.2694C20.273 48.2707 19.7321 46.9117 19.8361 45.5942L25.1234 45.5894ZM10.0074 49.0823L9.99771 38.294L11.4168 38.2927L11.4206 42.5814L11.4522 42.5814C11.9875 41.7435 12.793 41.3539 13.8827 41.3529C15.8379 41.3511 16.4522 42.6505 16.4534 43.9924L16.458 49.073L15.0425 49.0743L15.0385 44.6419C15.0373 43.328 14.6931 42.4734 13.3616 42.45C12.794 42.433 11.9254 42.8683 11.6597 43.4922C11.3311 44.2739 11.4226 44.8099 11.423 45.2268L11.4265 49.0811L10.0074 49.0823Z" fill="#CF4037"/>
</g>
<defs>
<clipPath id="clip0">
<rect width="153.991" height="49.0923" fill="white" transform="translate(0.00683594 0.226562) rotate(-0.0516848)"/>
</clipPath>
</defs>
</svg>
