<svg width="152" height="27" viewBox="0 0 152 27" fill="none" xmlns="http://www.w3.org/2000/svg">
<g clip-path="url(#clip0)">
<path d="M20.6858 12.0605C20.6227 11.1134 20.3701 10.1662 19.8649 9.34533L15.5711 1.83118C15.2554 1.26288 15.0028 0.631441 14.8765 0L14.6871 0.31572C13.6137 2.1469 13.6137 4.48323 14.6871 6.31441L18.16 12.3131C19.2335 14.1443 19.2335 16.4806 18.16 18.3118L17.9706 18.6275C17.8443 17.9961 17.5917 17.3646 17.276 16.7963L14.1188 11.3028L12.0982 7.76672C11.7825 7.19843 11.5299 6.56699 11.4036 5.93554L11.2142 6.25127C10.1407 8.08244 10.1407 10.3556 11.2142 12.25L14.6871 18.2486C15.7606 20.0798 15.7606 22.4162 14.6871 24.2473L14.4977 24.5631C14.3714 23.9316 14.1188 23.3002 13.8031 22.7319L9.44615 15.2177C8.87785 14.2074 8.62528 13.0708 8.62528 11.9342C4.01576 13.134 0.79541 15.7229 0.79541 18.6907C0.79541 22.8582 6.98353 26.2048 14.624 26.2048C22.2644 26.2048 28.4525 22.8582 28.4525 18.6907C28.5157 15.8492 25.3585 13.2603 20.6858 12.0605ZM33.7566 24.8788C33.8198 23.8053 33.9461 23.1107 34.2618 22.2267C35.7141 22.9213 37.6084 23.237 38.9976 23.237C41.3971 23.237 42.7862 22.4793 42.7862 20.9007C42.7862 19.3852 41.7759 18.6907 39.3764 17.6172L38.0504 17.112C35.5878 16.0386 33.9461 14.6494 33.9461 11.9342C33.9461 8.96646 36.0298 7.07214 40.1973 7.07214C41.9022 7.07214 43.4808 7.32472 44.9331 7.82987C44.87 8.84017 44.6806 9.66105 44.428 10.4188C43.0388 9.91362 41.3339 9.66105 40.1342 9.66105C37.861 9.66105 36.8507 10.5451 36.8507 11.9342C36.8507 13.2603 37.861 14.0811 39.6922 14.8389L41.0813 15.4072C44.3648 16.7963 45.754 18.3118 45.754 20.8376C45.754 23.8053 43.4808 25.8891 39.0607 25.8891C36.977 25.8891 35.2089 25.5734 33.7566 24.8788ZM59.7089 12.4394V25.4471H57.0568L56.9305 23.8685C56.1728 25.0051 55.0993 25.7628 53.2682 25.7628C49.8584 25.7628 47.522 23.237 47.522 18.8801C47.522 14.3337 49.9847 11.6817 54.7836 11.6817C56.6779 11.7448 58.2565 11.9342 59.7089 12.4394ZM56.8674 22.4793V14.3337C56.2991 14.2074 55.6045 14.2074 54.7836 14.2074C51.8158 14.2074 50.4267 16.0386 50.4267 18.9432C50.4267 21.5953 51.5001 23.4896 54.0259 23.4896C55.2256 23.4265 56.1096 23.0476 56.8674 22.4793ZM74.3583 16.7332V25.4471H71.5168V17.2383C71.5168 15.1546 70.8222 14.2074 67.9807 14.2074C67.2861 14.2074 66.5284 14.2706 65.7075 14.3969V25.4471H62.8661V12.4394C64.6972 11.9974 66.7178 11.6817 68.0439 11.6817C72.8428 11.7448 74.3583 13.576 74.3583 16.7332ZM82.3144 23.3633C83.1353 23.3633 83.9562 23.237 84.5245 22.9844C84.4613 23.7422 84.3351 24.6262 84.2088 25.3839C83.451 25.6996 82.567 25.8259 81.8093 25.8259C79.0309 25.8259 77.2629 24.5631 77.2629 21.4058V7.70358C78.1469 7.38786 79.2204 7.26157 80.1044 7.26157V12.1868H84.6508C84.5876 13.0708 84.5245 13.8917 84.3982 14.6494H80.1044V21.027C80.1044 22.6687 80.9253 23.3633 82.3144 23.3633ZM97.6584 12.4394V25.4471H95.0064L94.8801 23.8685C94.1224 25.0051 93.0489 25.7628 91.2178 25.7628C87.808 25.7628 85.4716 23.237 85.4716 18.8801C85.4716 14.3337 87.9343 11.6817 92.7332 11.6817C94.6275 11.7448 96.143 11.9342 97.6584 12.4394ZM94.7538 22.4793V14.3337C94.1855 14.2074 93.4909 14.2074 92.6701 14.2074C89.7023 14.2074 88.3131 16.0386 88.3131 18.9432C88.3131 21.5953 89.3866 23.4896 91.9123 23.4896C93.1121 23.4265 94.0592 23.0476 94.7538 22.4793ZM112.308 16.7332V25.4471H109.403V17.2383C109.403 15.1546 108.709 14.2074 105.867 14.2074C105.173 14.2074 104.415 14.2706 103.594 14.3969V25.4471H100.753V12.4394C102.584 11.9974 104.604 11.6817 105.93 11.6817C110.729 11.7448 112.308 13.576 112.308 16.7332ZM126.768 7.26157V25.4471H124.116L123.99 23.8053C123.232 25.0051 122.158 25.7628 120.264 25.7628C116.854 25.7628 114.518 23.237 114.518 18.8801C114.518 14.3337 116.981 11.6817 121.779 11.6817C122.537 11.6817 123.232 11.7448 123.926 11.8711V7.57729C124.81 7.32471 125.821 7.26157 126.768 7.26157ZM123.926 22.4793V14.46C123.169 14.3337 122.411 14.2074 121.653 14.2074C118.812 14.2074 117.486 15.9755 117.486 18.9432C117.486 21.5953 118.559 23.4896 121.085 23.4896C122.222 23.4265 123.169 23.0476 123.926 22.4793ZM141.165 19.8904H132.009C132.388 22.2267 133.714 23.3002 136.303 23.3002C137.881 23.3002 139.46 22.9844 140.849 22.2899C140.723 23.0476 140.596 24.0579 140.407 24.8788C139.081 25.4471 137.755 25.6996 136.176 25.6996C131.377 25.6996 129.104 23.0476 129.104 18.6275C129.104 14.7757 130.872 11.6817 135.419 11.6817C139.523 11.6817 141.291 14.3337 141.291 17.6172C141.291 18.5012 141.291 19.1327 141.165 19.8904ZM132.009 17.4909H138.45C138.45 15.344 137.313 14.0811 135.355 14.0811C133.272 14.1443 132.198 15.2809 132.009 17.4909ZM151.205 11.8711C151.205 12.7551 151.078 13.7654 150.952 14.3337C150.257 14.2706 149.626 14.2074 148.805 14.2074C148.111 14.2074 147.416 14.2706 146.721 14.3337V25.4471H143.88V12.4394C145.08 11.9974 147.163 11.6817 148.742 11.6817C149.563 11.7448 150.573 11.7448 151.205 11.8711Z" fill="#EA1D25"/>
</g>
<defs>
<clipPath id="clip0">
<rect width="152" height="26.2048" fill="white"/>
</clipPath>
</defs>
</svg>
