<svg width="170" height="170" xmlns="http://www.w3.org/2000/svg" fill="none">
 <defs>
  <clipPath id="clip0">
   <rect id="svg_1" fill="white" height="26.2048" width="152"/>
  </clipPath>
 </defs>
 <g>
  <title>Layer 1</title>
  <path stroke="null" id="svg_3" fill="#EA1D25" d="m112.92928,75.67003c-0.29262,-5.39259 -1.46404,-10.78576 -3.80688,-15.45963l-19.91227,-42.78404c-1.46404,-3.23578 -2.63546,-6.83108 -3.22117,-10.42637l-0.87833,1.79765c-4.97783,10.42637 -4.97783,23.72895 0,34.15532l16.10539,34.15532c4.9783,10.42648 4.9783,23.7289 0,34.15538l-0.87833,1.79753c-0.58571,-3.59506 -1.75713,-7.1907 -3.22117,-10.42648l-14.64134,-31.27887l-9.37042,-20.13372c-1.46404,-3.23573 -2.63546,-6.83102 -3.22117,-10.42637l-0.87833,1.7977c-4.9783,10.42631 -4.9783,23.36922 0,34.15555l16.10539,34.15481c4.9783,10.42648 4.9783,23.72947 0,34.15538l-0.87833,1.7981c-0.58571,-3.59563 -1.75713,-7.1907 -3.22117,-10.42648l-20.20512,-42.78433c-2.63546,-5.75244 -3.80674,-12.22401 -3.80674,-18.69558c-21.3764,6.83142 -36.3106,21.57209 -36.3106,38.47014c0,23.7289 28.69707,42.78376 64.12934,42.78376c35.43194,0 64.12892,-19.05486 64.12892,-42.78376c0.29309,-16.17892 -14.34826,-30.91959 -36.01765,-37.75101zm60.61513,72.98479c0.29309,-6.11229 0.8788,-10.0672 2.34284,-15.10052c6.73496,3.95491 15.51968,5.75244 21.96202,5.75244c11.12755,0 17.56943,-4.31419 17.56943,-13.30242c0,-8.62895 -4.68521,-12.58329 -15.81276,-18.69558l-6.14925,-2.87651c-11.42017,-6.11172 -19.03347,-14.02154 -19.03347,-29.48134c0,-16.89771 9.66305,-27.68358 28.9896,-27.68358c7.90638,0 15.22705,1.43814 21.96202,4.31436c-0.29262,5.75244 -1.17096,10.42637 -2.34237,14.74084c-6.44234,-2.87639 -14.34872,-4.31447 -19.91227,-4.31447c-10.54184,0 -15.22705,5.0336 -15.22705,12.94285c0,7.55054 4.68521,12.22401 13.1773,16.53877l6.44188,3.23578c15.22705,7.90925 21.66939,16.5382 21.66939,30.91959c0,16.89748 -10.54184,28.76221 -31.03982,28.76221c-9.66305,0 -17.86251,-1.79753 -24.59748,-5.75244zm120.35239,-70.82741l0,74.0632l-12.29897,0l-0.58571,-8.98823c-3.51379,6.47157 -8.49209,10.78576 -16.98372,10.78576c-15.81276,0 -26.64769,-14.38139 -26.64769,-39.18869c0,-25.88628 11.42064,-40.98623 33.67528,-40.98623c8.78471,0.35928 16.10539,1.43768 22.84081,4.31419zm-13.1773,57.16515l0,-46.37939c-2.63546,-0.71913 -5.85663,-0.71913 -9.66351,-0.71913c-13.76301,0 -20.20489,10.42648 -20.20489,26.96468c0,15.10052 4.97783,25.88628 16.6911,25.88628c5.56354,-0.35928 9.66305,-2.51666 13.1773,-5.75244zm81.1131,-32.71712l0,49.61517l-13.1773,0l0,-46.73924c0,-11.86416 -3.22117,-17.25733 -16.39847,-17.25733c-3.22117,0 -6.73496,0.35985 -10.54184,1.07897l0,62.91759l-13.17684,0l0,-74.0632c8.49163,-2.51666 17.86205,-4.31419 24.01177,-4.31419c22.25464,0.35928 29.28269,10.78576 29.28269,28.76221zm36.89598,37.75044c3.80688,0 7.61376,-0.71913 10.24922,-2.15738c-0.29309,4.31476 -0.87833,9.34808 -1.46404,13.66227c-3.51426,1.79753 -7.61376,2.51666 -11.12755,2.51666c-12.88468,0 -21.08368,-7.19013 -21.08368,-25.16715l0,-78.01765c4.0995,-1.79765 9.0778,-2.51672 13.1773,-2.51672l0,28.04326l21.08368,0c-0.29309,5.03332 -0.58571,9.70735 -1.17142,14.02154l-19.91227,0l0,36.31276c0,9.34751 3.80688,13.30242 10.24876,13.30242zm71.15697,-62.19847l0,74.0632l-12.29851,0l-0.58571,-8.98823c-3.51379,6.47157 -8.49209,10.78576 -16.98372,10.78576c-15.81276,0 -26.64769,-14.38139 -26.64769,-39.18869c0,-25.88628 11.42064,-40.98623 33.67528,-40.98623c8.78471,0.35928 15.81276,1.43768 22.84035,4.31419zm-13.46993,57.16515l0,-46.37939c-2.63546,-0.71913 -5.85663,-0.71913 -9.66305,-0.71913c-13.76301,0 -20.20535,10.42648 -20.20535,26.96468c0,15.10052 4.9783,25.88628 16.6911,25.88628c5.56401,-0.35928 9.95613,-2.51666 13.1773,-5.75244zm81.40665,-32.71712l0,49.61517l-13.47178,0l0,-46.73924c0,-11.86416 -3.21839,-17.25733 -16.39801,-17.25733c-3.21839,0 -6.73357,0.35985 -10.54091,1.07897l0,62.91759l-13.17498,0l0,-74.0632c8.49116,-2.51666 17.8588,-4.31419 24.00806,-4.31419c22.2551,0.35928 29.57763,10.78576 29.57763,28.76221zm67.05747,-53.92954l0,103.54471l-12.29851,0l-0.58432,-9.34808c-3.51518,6.83142 -8.4958,11.14561 -17.27912,11.14561c-15.81369,0 -26.64676,-14.38139 -26.64676,-39.18869c0,-25.88628 11.42203,-40.98623 33.67249,-40.98623c3.51518,0 6.73821,0.35928 9.9566,1.07841l0,-24.44808c4.0995,-1.43814 8.78796,-1.79765 13.17962,-1.79765zm-13.17962,86.64666l0,-45.66026c-3.51055,-0.71913 -7.02573,-1.43825 -10.54091,-1.43825c-13.17498,0 -19.32424,10.0672 -19.32424,26.96468c0,15.10052 4.97598,25.88628 16.69017,25.88628c5.27278,-0.35928 9.66444,-2.51666 13.17498,-5.75244zm79.94493,-14.74067l-42.46045,0c1.75759,13.30242 7.90685,19.41471 19.91319,19.41471c7.31789,0 14.64042,-1.7981 21.08183,-5.75244c-0.58432,4.31419 -1.17327,10.06663 -2.04975,14.74067c-6.14925,3.23578 -12.29851,4.67347 -19.62103,4.67347c-22.2551,0 -32.79602,-15.09995 -32.79602,-40.2671c0,-21.93137 8.199,-39.54797 29.28547,-39.54797c19.03208,0 27.23108,15.09995 27.23108,33.79553c0,5.03332 0,8.62895 -0.58432,12.94314zm-42.46045,-13.66227l29.86979,0c0,-12.22401 -5.27278,-19.41471 -14.3529,-19.41471c-9.6598,0.35985 -14.64042,6.83142 -15.51689,19.41471zm89.02041,-31.998c0,5.03332 -0.58896,10.78576 -1.17327,14.02154c-3.22302,-0.35928 -6.14925,-0.71913 -9.9566,-0.71913c-3.21839,0 -6.44141,0.35985 -9.66444,0.71913l0,63.27744l-13.17498,0l0,-74.0632c5.56494,-2.51666 15.22473,-4.31419 22.54726,-4.31419c3.80734,0.35928 8.49116,1.07841 -689.78298,-66.51322l701.20501,67.59163z"/>
 </g>
</svg>